<svg version="1.1" xmlns="http://www.w3.org/2000/svg" x="0px" y="0px" xml:space="preserve" height="50.585" width="50.585" viewBox="0 0 50.585 50.585">
    <g>
        <g>
            <circle fill="none" stroke="#D18129" stroke-width="0.7617" stroke-miterlimit="10" cx="25.292" cy="25.292" r="24.912"/>
        </g>
        <g class="shape" opacity="0">
            <path fill="#F47721" d="M25.292,0.38C11.534,0.38,0.38,11.533,0.38,25.294c0,13.757,11.153,24.911,24.912,24.911
            c13.758,0,24.911-11.154,24.911-24.911C50.204,11.533,39.05,0.38,25.292,0.38z M33.981,20.833c0.009,0.192,0.015,0.387,0.015,0.582
            c0,5.928-4.513,12.76-12.759,12.76c-2.531,0-4.889-0.742-6.873-2.016c0.35,0.041,0.707,0.063,1.069,0.063
            c2.103,0,4.034-0.718,5.568-1.919c-1.961-0.04-3.618-1.334-4.188-3.115c0.273,0.053,0.556,0.078,0.844,0.078
            c0.41,0,0.806-0.054,1.182-0.155c-2.052-0.412-3.598-2.226-3.598-4.396c0-0.019,0-0.038,0-0.057
            c0.606,0.335,1.297,0.535,2.033,0.558c-1.206-0.803-1.998-2.172-1.998-3.729c0-0.821,0.225-1.593,0.608-2.253
            c2.211,2.711,5.518,4.498,9.243,4.685c-0.078-0.329-0.117-0.671-0.117-1.021c0-2.476,2.009-4.484,4.484-4.484
            c1.29,0,2.456,0.544,3.271,1.415c1.023-0.201,1.983-0.574,2.849-1.09c-0.332,1.05-1.046,1.928-1.974,2.482
            c0.912-0.109,1.774-0.35,2.578-0.705C35.617,19.413,34.857,20.204,33.981,20.833z"/>
        </g>
        <g class="letters">
            <path fill="#F47721" d="M35.615,16.737c-0.865,0.516-1.825,0.889-2.849,1.09c-0.815-0.871-1.981-1.415-3.271-1.415
            c-2.476,0-4.484,2.009-4.484,4.484c0,0.351,0.039,0.692,0.117,1.021c-3.726-0.187-7.032-1.974-9.243-4.685
            c-0.384,0.66-0.608,1.432-0.608,2.253c0,1.558,0.792,2.927,1.998,3.729c-0.736-0.022-1.427-0.223-2.033-0.558
            c0,0.019,0,0.038,0,0.057c0,2.171,1.546,3.984,3.598,4.396c-0.376,0.102-0.771,0.155-1.182,0.155c-0.288,0-0.57-0.025-0.844-0.078
            c0.57,1.781,2.228,3.075,4.188,3.115c-1.534,1.201-3.466,1.919-5.568,1.919c-0.362,0-0.72-0.022-1.069-0.063
            c1.984,1.273,4.342,2.016,6.873,2.016c8.246,0,12.759-6.832,12.759-12.76c0-0.195-0.006-0.39-0.015-0.582
            c0.876-0.629,1.636-1.42,2.238-2.318c-0.804,0.355-1.666,0.596-2.578,0.705C34.569,18.665,35.283,17.787,35.615,16.737z"/>
        </g>
    </g>
</svg>