<svg version="1.1" xmlns="http://www.w3.org/2000/svg" x="0px" y="0px" xml:space="preserve" height="50.585" width="50.585" viewBox="0 0 50.585 50.585">
    <g>
        <g>
            <circle fill="none" stroke="#D18129" stroke-width="0.7617" stroke-miterlimit="10" cx="25.292" cy="25.292" r="24.912"/>
        </g>
        <g class="shape" opacity="0">
            <path fill="#F47721" d="M25.303,0.411c-13.759,0-24.912,11.152-24.912,24.914c0,13.756,11.153,24.911,24.912,24.911
            c13.758,0,24.911-11.154,24.911-24.911C50.214,11.563,39.061,0.411,25.303,0.411z M30.314,18.937c-0.936,0-1.947,0-2.427,0
            c-0.477,0-0.962,0.496-0.962,0.866s0,2.47,0,2.47s2.995,0,3.384,0c-0.136,1.895-0.415,3.631-0.415,3.631h-2.986v9.917h-4.448v-9.917
            h-2.168v-3.615h2.168c0,0,0-2.417,0-2.958c0-0.54-0.11-4.157,4.559-4.157c0.625,0,2.048,0,3.296,0
            C30.314,16.743,30.314,18.443,30.314,18.937z"/>
        </g>
        <g class="letters">
            <path fill="#F47721" d="M22.459,19.33c0,0.541,0,2.958,0,2.958h-2.168v3.615h2.168v9.917h4.448v-9.917h2.986
            c0,0,0.279-1.736,0.415-3.631c-0.389,0-3.384,0-3.384,0s0-2.1,0-2.47s0.485-0.866,0.962-0.866c0.479,0,1.491,0,2.427,0
            c0-0.493,0-2.193,0-3.764c-1.248,0-2.671,0-3.296,0C22.349,15.173,22.459,18.79,22.459,19.33z"/>
        </g>
    </g>
</svg>