<svg version="1.1" xmlns="http://www.w3.org/2000/svg" x="0px" y="0px" xml:space="preserve" height="50.585" width="50.585" viewBox="0 0 50.585 50.585">
    <g>
        <g>
            <circle fill="none" stroke="#D18129" stroke-width="0.7617" stroke-miterlimit="10" cx="25.292" cy="25.292" r="24.912"/>
        </g>
        <g class="shape" opacity="0">
            <polygon fill="#F47721" points="21.274,25.964 17.313,25.964 17.313,27.173 18.648,27.173 18.648,34.316 19.937,34.316
                19.937,27.173 21.274,27.173 	"/>
            <path fill="#F47721" d="M27.821,28.078c-0.178,0-0.355,0.048-0.527,0.146c-0.173,0.098-0.338,0.239-0.491,0.428v-2.688h-1.157
                v8.352h1.157v-0.475c0.149,0.187,0.312,0.326,0.487,0.415c0.176,0.091,0.375,0.137,0.6,0.137c0.34,0,0.6-0.116,0.78-0.35
                c0.178-0.233,0.267-0.567,0.267-1.005v-3.417c0-0.505-0.097-0.887-0.285-1.151C28.46,28.208,28.181,28.078,27.821,28.078z
                 M27.759,32.87c0,0.196-0.034,0.339-0.101,0.425c-0.064,0.088-0.171,0.131-0.31,0.131c-0.097,0-0.189-0.023-0.278-0.066
                c-0.083-0.044-0.176-0.116-0.269-0.217v-3.837c0.076-0.088,0.156-0.147,0.235-0.188c0.078-0.042,0.161-0.062,0.243-0.062
                c0.154,0,0.271,0.054,0.353,0.159c0.085,0.112,0.126,0.268,0.126,0.477V32.87z"/>
            <path fill="#F47721" d="M23.382,32.832c-0.11,0.134-0.225,0.244-0.355,0.33c-0.128,0.086-0.236,0.129-0.319,0.129
                c-0.105,0-0.185-0.03-0.23-0.098c-0.05-0.066-0.073-0.17-0.073-0.316v-4.722h-1.146v5.148c0,0.368,0.063,0.643,0.202,0.825
                c0.133,0.184,0.334,0.275,0.598,0.275c0.213,0,0.436-0.066,0.665-0.196c0.229-0.131,0.446-0.322,0.659-0.573v0.682h1.146v-6.161
                h-1.146V32.832z"/>
            <path fill="#F47721" d="M24.657,21.41c0.151,0,0.277-0.047,0.371-0.143c0.089-0.095,0.135-0.224,0.135-0.388v-3.357
                c0-0.136-0.046-0.242-0.142-0.326c-0.093-0.082-0.216-0.124-0.364-0.124c-0.142,0-0.256,0.042-0.342,0.124
                c-0.088,0.084-0.131,0.19-0.131,0.326v3.357c0,0.169,0.039,0.3,0.122,0.392C24.386,21.363,24.505,21.41,24.657,21.41z"/>
            <path fill="#F47721" d="M25.29,0.38c-13.757,0-24.91,11.152-24.91,24.912c0,13.759,11.153,24.913,24.91,24.913
                c13.76,0,24.914-11.154,24.914-24.913C50.204,11.533,39.049,0.38,25.29,0.38z M27.356,16.13l1.146,0.022l-0.08,4.723
                c-0.004,0.146,0.018,0.251,0.064,0.317c0.049,0.066,0.125,0.099,0.232,0.101c0.083,0.002,0.191-0.04,0.322-0.121
                c0.128-0.088,0.245-0.194,0.358-0.327l0.081-4.676l1.145,0.021l-0.108,6.156l-1.143-0.02l0.011-0.68
                c-0.216,0.246-0.437,0.435-0.668,0.562c-0.232,0.126-0.455,0.188-0.667,0.186c-0.266-0.006-0.465-0.101-0.596-0.286
                c-0.132-0.186-0.191-0.462-0.188-0.828L27.356,16.13z M24.711,16.003c0.474,0,0.863,0.149,1.166,0.448
                c0.302,0.299,0.452,0.682,0.452,1.153v3.179c0,0.528-0.148,0.942-0.445,1.243s-0.705,0.449-1.227,0.449
                c-0.5,0-0.903-0.152-1.2-0.465c-0.304-0.309-0.454-0.727-0.454-1.248l-0.002-3.195c0-0.476,0.158-0.857,0.467-1.141
                C23.775,16.144,24.191,16.003,24.711,16.003z M20.036,13.97l0.836,3.34h0.082l0.8-3.34h1.31l-1.501,4.886v3.466h-1.291v-3.311
                l-1.534-5.041H20.036z M34.603,33.796c0,1.485-1.219,2.691-2.723,2.691c-2.15,0.095-4.348,0.13-6.591,0.126
                c-2.24,0.004-4.438-0.031-6.586-0.126c-1.507,0-2.725-1.206-2.725-2.691c-0.091-1.18-0.132-2.359-0.127-3.538
                c-0.005-1.177,0.036-2.356,0.127-3.535c0-1.487,1.218-2.696,2.725-2.696c2.041-0.084,4.128-0.122,6.255-0.122
                c0.11,0,0.223,0,0.331,0c0.114,0,0.225,0,0.336,0c2.125,0,4.211,0.038,6.255,0.122c1.504,0,2.723,1.209,2.723,2.696
                c0.093,1.179,0.131,2.358,0.129,3.535C34.734,31.437,34.696,32.617,34.603,33.796z"/>
            <path fill="#F47721" d="M31.539,28c-0.509,0-0.927,0.164-1.253,0.504c-0.324,0.337-0.485,0.771-0.485,1.307v2.766
                c0,0.592,0.148,1.058,0.442,1.397c0.296,0.338,0.699,0.508,1.211,0.508c0.571,0,1.002-0.158,1.286-0.481
                c0.286-0.315,0.43-0.795,0.43-1.424v-0.464h-1.177v0.428c0,0.364-0.039,0.599-0.112,0.704c-0.079,0.104-0.211,0.157-0.4,0.157
                c-0.184,0-0.312-0.061-0.387-0.188c-0.076-0.123-0.114-0.35-0.114-0.674v-1.164h2.19v-1.565c0-0.586-0.139-1.035-0.419-1.345
                C32.466,28.155,32.062,28,31.539,28z M31.993,30.424h-1.014v-0.626c0-0.258,0.04-0.444,0.122-0.555
                c0.075-0.109,0.208-0.167,0.391-0.167c0.176,0,0.3,0.058,0.382,0.167c0.078,0.11,0.119,0.297,0.119,0.555V30.424z"/>
        </g>
        <g class="letters">
            <polygon fill="#F47721" points="20.271,22.322 21.562,22.322 21.562,18.856 23.063,13.97 21.753,13.97 20.954,17.31 20.872,17.31
                20.036,13.97 18.737,13.97 20.271,19.011 	"/>
            <path fill="#F47721" d="M23.003,20.763c0,0.521,0.15,0.939,0.454,1.248c0.297,0.312,0.7,0.465,1.2,0.465
                c0.521,0,0.93-0.148,1.227-0.449s0.445-0.715,0.445-1.243v-3.179c0-0.472-0.15-0.854-0.452-1.153
                c-0.303-0.299-0.692-0.448-1.166-0.448c-0.521,0-0.937,0.141-1.243,0.424c-0.309,0.283-0.467,0.665-0.467,1.141L23.003,20.763z
                 M24.184,17.522c0-0.136,0.043-0.242,0.131-0.326c0.086-0.082,0.2-0.124,0.342-0.124c0.148,0,0.271,0.042,0.364,0.124
                c0.096,0.084,0.142,0.19,0.142,0.326v3.357c0,0.164-0.046,0.293-0.135,0.388c-0.094,0.096-0.22,0.143-0.371,0.143
                s-0.271-0.047-0.351-0.139c-0.083-0.092-0.122-0.223-0.122-0.392V17.522z"/>
            <path fill="#F47721" d="M28.049,22.395c0.212,0.003,0.435-0.06,0.667-0.186c0.231-0.127,0.452-0.315,0.668-0.562l-0.011,0.68
                l1.143,0.02l0.108-6.156l-1.145-0.021l-0.081,4.676c-0.113,0.133-0.23,0.239-0.358,0.327c-0.131,0.081-0.239,0.123-0.322,0.121
                c-0.107-0.002-0.184-0.034-0.232-0.101c-0.047-0.066-0.068-0.172-0.064-0.317l0.08-4.723l-1.146-0.022l-0.09,5.15
                c-0.004,0.366,0.056,0.643,0.188,0.828C27.584,22.294,27.784,22.389,28.049,22.395z"/>
            <path fill="#F47721" d="M27.281,29.055c-0.082,0-0.165,0.02-0.243,0.062c-0.079,0.041-0.159,0.101-0.235,0.188v3.837
                c0.093,0.101,0.186,0.173,0.269,0.217c0.089,0.043,0.182,0.066,0.278,0.066c0.139,0,0.245-0.043,0.31-0.131
                c0.066-0.086,0.101-0.229,0.101-0.425v-3.179c0-0.209-0.041-0.364-0.126-0.477C27.552,29.109,27.435,29.055,27.281,29.055z"/>
            <path fill="#F47721" d="M31.492,29.077c-0.183,0-0.315,0.058-0.391,0.167c-0.082,0.11-0.122,0.297-0.122,0.555v0.626h1.014v-0.626
                c0-0.258-0.041-0.444-0.119-0.555C31.792,29.134,31.667,29.077,31.492,29.077z"/>
            <path fill="#F47721" d="M31.88,24.027c-2.044-0.084-4.13-0.122-6.255-0.122c-0.111,0-0.222,0-0.336,0c-0.108,0-0.221,0-0.331,0
                c-2.127,0-4.214,0.038-6.255,0.122c-1.507,0-2.725,1.209-2.725,2.696c-0.091,1.179-0.132,2.358-0.127,3.535
                c-0.005,1.179,0.036,2.358,0.127,3.538c0,1.485,1.218,2.691,2.725,2.691c2.148,0.095,4.346,0.13,6.586,0.126
                c2.243,0.004,4.44-0.031,6.591-0.126c1.504,0,2.723-1.206,2.723-2.691c0.093-1.18,0.131-2.359,0.129-3.538
                c0.002-1.177-0.036-2.356-0.129-3.535C34.603,25.236,33.384,24.027,31.88,24.027z M19.937,34.316h-1.289v-7.143h-1.335v-1.209
                h3.961v1.209h-1.337V34.316z M24.528,34.316h-1.146v-0.682c-0.213,0.251-0.431,0.442-0.659,0.573
                c-0.229,0.13-0.452,0.196-0.665,0.196c-0.264,0-0.465-0.092-0.598-0.275c-0.139-0.183-0.202-0.457-0.202-0.825v-5.148h1.146v4.722
                c0,0.146,0.023,0.25,0.073,0.316c0.046,0.067,0.125,0.098,0.23,0.098c0.083,0,0.191-0.043,0.319-0.129
                c0.131-0.086,0.245-0.196,0.355-0.33v-4.677h1.146V34.316z M28.936,33.039c0,0.438-0.089,0.771-0.267,1.005
                c-0.181,0.233-0.44,0.35-0.78,0.35c-0.225,0-0.424-0.046-0.6-0.137c-0.176-0.089-0.338-0.229-0.487-0.415v0.475h-1.157v-8.352
                h1.157v2.688c0.153-0.188,0.318-0.33,0.491-0.428c0.172-0.099,0.35-0.146,0.527-0.146c0.36,0,0.64,0.13,0.83,0.393
                c0.188,0.265,0.285,0.646,0.285,1.151V33.039z M33.169,31.376h-2.19v1.164c0,0.324,0.038,0.551,0.114,0.674
                c0.075,0.127,0.203,0.188,0.387,0.188c0.189,0,0.321-0.054,0.4-0.157c0.073-0.105,0.112-0.34,0.112-0.704v-0.428h1.177v0.464
                c0,0.629-0.144,1.108-0.43,1.424c-0.284,0.323-0.715,0.481-1.286,0.481c-0.512,0-0.915-0.17-1.211-0.508
                c-0.294-0.34-0.442-0.806-0.442-1.397v-2.766c0-0.535,0.161-0.97,0.485-1.307C30.612,28.165,31.03,28,31.539,28
                c0.523,0,0.928,0.154,1.212,0.466c0.28,0.31,0.419,0.759,0.419,1.345V31.376z"/>
        </g>
    </g>
</svg>