<svg version="1.1" xmlns="http://www.w3.org/2000/svg" x="0px" y="0px" xml:space="preserve" x="0px" y="0px" width="373.113px" height="216.335px" viewBox="0 0 373.113 216.335" enable-background="new 0 0 373.113 216.335">
    <g>
        <g id="logo">
            <circle fill="#49B749" stroke="#49B749" stroke-width="4" stroke-miterlimit="10" cx="186.557" cy="55.157" r="38.219" />
            <path opacity="0.2" stroke="#000000" stroke-miterlimit="10" d="M190.209,78.51l-29.029-12.972c0.412-0.973,0.43-2.047,0.044-3.033
        c-0.07-0.182-0.155-0.353-0.248-0.519l9.176-6.98c0.744,1.041,1.939,1.683,3.268,1.683c0.501,0,0.994-0.092,1.464-0.277
        c0.425-0.165,0.804-0.397,1.135-0.679l7.979,3.837c0.079,0.039,0.162,0.056,0.243,0.056c0.21,0,0.411-0.116,0.508-0.318
        c0.135-0.279,0.016-0.617-0.264-0.75l-7.693-3.703c0.683-1.052,0.871-2.404,0.382-3.661c-0.607-1.559-2.082-2.566-3.757-2.566
        c-0.5,0-0.992,0.092-1.463,0.276c-2.028,0.79-3.052,3.054-2.333,5.094l-9.331,7.099c-0.736-0.727-1.735-1.157-2.822-1.157
        c-0.5,0-0.993,0.093-1.463,0.277c-2.07,0.808-3.098,3.148-2.291,5.219c0.608,1.56,2.083,2.566,3.758,2.566
        c0.5,0,0.994-0.091,1.464-0.275c0.66-0.258,1.225-0.678,1.659-1.214l29.154,13.026c0.075,0.033,0.153,0.049,0.229,0.049
        c0.216,0,0.421-0.123,0.515-0.332C190.621,78.969,190.494,78.637,190.209,78.51z" />
            <path opacity="0.2" stroke="#000000" stroke-miterlimit="10" d="M198.552,38.397c0.433-0.985,0.456-2.081,0.064-3.084
        c-0.608-1.56-2.083-2.566-3.758-2.566c-0.5,0-0.992,0.094-1.461,0.275c-1.003,0.393-1.794,1.15-2.227,2.136
        c-0.433,0.986-0.456,2.082-0.064,3.086c0.03,0.076,0.072,0.146,0.106,0.221l-11.465,8.425c-0.25,0.184-0.305,0.537-0.12,0.787
        c0.11,0.15,0.28,0.229,0.454,0.229c0.117,0,0.232-0.034,0.333-0.108l11.405-8.383c0.749,0.871,1.842,1.396,3.043,1.396
        c0.501,0,0.994-0.093,1.464-0.275C197.33,40.143,198.12,39.385,198.552,38.397z" />
            <path opacity="0.2" stroke="#000000" stroke-miterlimit="10" d="M204.09,81.662c-0.55-1.411-1.81-2.362-3.283-2.531l-3.489-29.713
        c-0.036-0.309-0.318-0.533-0.625-0.493c-0.309,0.036-0.53,0.314-0.494,0.624l3.476,29.604c-0.274,0.046-0.543,0.116-0.806,0.218
        c-2.07,0.808-3.098,3.149-2.291,5.221c0.608,1.56,2.083,2.567,3.759,2.567c0.5,0,0.992-0.093,1.462-0.275
        C203.871,86.073,204.898,83.731,204.09,81.662z" />
            <path opacity="0.2" stroke="#000000" stroke-miterlimit="10" d="M189.465,57.151c-0.501,0-0.994,0.093-1.465,0.277
        c-1.003,0.392-1.793,1.148-2.226,2.135c-0.432,0.986-0.455,2.081-0.064,3.086c0.609,1.56,2.084,2.566,3.758,2.566
        c0.5,0,0.992-0.095,1.462-0.277c2.07-0.807,3.097-3.147,2.291-5.221C192.614,58.158,191.14,57.151,189.465,57.151z" />
            <path fill="#FFFFFF" stroke="#FFFFFF" stroke-miterlimit="10" d="M192.586,75.502l-33.953-15.17
        c0.481-1.14,0.502-2.396,0.052-3.549c-0.082-0.214-0.181-0.414-0.29-0.606l10.733-8.166c0.87,1.22,2.268,1.968,3.822,1.968
        c0.585,0,1.161-0.107,1.712-0.322c0.498-0.195,0.941-0.468,1.327-0.794l9.332,4.487c0.091,0.045,0.189,0.066,0.286,0.066
        c0.245,0,0.48-0.138,0.594-0.373c0.158-0.328,0.019-0.723-0.309-0.881l-8.999-4.328c0.8-1.23,1.021-2.813,0.447-4.283
        c-0.711-1.824-2.436-3.002-4.394-3.002c-0.585,0-1.161,0.107-1.711,0.322c-2.371,0.928-3.568,3.575-2.729,5.959l-10.913,8.302
        c-0.861-0.849-2.029-1.351-3.302-1.351c-0.585,0-1.16,0.107-1.71,0.322c-2.422,0.945-3.624,3.684-2.68,6.105
        c0.711,1.823,2.436,3.001,4.395,3.001c0.585,0,1.162-0.108,1.712-0.322c0.772-0.302,1.434-0.792,1.942-1.419l34.099,15.235
        c0.087,0.038,0.179,0.058,0.268,0.058c0.252,0,0.492-0.146,0.602-0.392C193.066,76.039,192.917,75.649,192.586,75.502z" />
            <path fill="#FFFFFF" stroke="#FFFFFF" stroke-miterlimit="10" d="M202.343,28.587c0.506-1.155,0.534-2.436,0.075-3.607
        c-0.711-1.824-2.436-3.003-4.395-3.003c-0.585,0-1.161,0.109-1.71,0.323c-1.174,0.457-2.099,1.345-2.605,2.498
        c-0.506,1.153-0.532,2.435-0.075,3.606c0.036,0.091,0.084,0.172,0.125,0.259l-13.41,9.854c-0.293,0.216-0.356,0.628-0.141,0.922
        c0.129,0.175,0.329,0.268,0.531,0.268c0.135,0,0.272-0.04,0.39-0.126l13.339-9.805c0.876,1.017,2.154,1.631,3.56,1.631
        c0.586,0,1.162-0.108,1.713-0.323C200.913,30.628,201.837,29.74,202.343,28.587z" />
            <path fill="#FFFFFF" stroke="#FFFFFF" stroke-miterlimit="10" d="M208.821,79.189c-0.643-1.649-2.117-2.763-3.84-2.961
        l-4.079-34.754c-0.042-0.36-0.373-0.621-0.731-0.576c-0.361,0.043-0.62,0.369-0.578,0.73l4.065,34.624
        c-0.32,0.054-0.635,0.138-0.942,0.257c-2.422,0.944-3.624,3.684-2.68,6.105c0.712,1.823,2.438,3.003,4.396,3.003
        c0.585,0,1.161-0.11,1.711-0.324C208.564,84.349,209.766,81.608,208.821,79.189z" />
            <path fill="#FFFFFF" stroke="#FFFFFF" stroke-miterlimit="10" d="M191.715,50.521c-0.586,0-1.164,0.108-1.714,0.324
        c-1.172,0.457-2.098,1.344-2.603,2.497c-0.506,1.153-0.533,2.435-0.076,3.607c0.712,1.824,2.438,3.002,4.395,3.002
        c0.586,0,1.161-0.107,1.71-0.323c2.422-0.943,3.625-3.682,2.681-6.105C195.397,51.701,193.673,50.521,191.715,50.521z" />
        </g>
        <g id="words">
            <path fill="#FFFFFF" d="M101.773,130.609h-3.119c-0.26,0-0.431,0.189-0.429,0.43c0,0.259,0.172,0.431,0.465,0.431h3.084
        c0.896,0,1.43,0.759,1.43,1.706v1.259h-2.999c-1.378,0-2.48,1.118-2.48,2.48c0,1.378,1.103,2.464,2.48,2.464h3.222
        c0.397,0,0.69-0.294,0.69-0.69v-5.565C104.117,131.676,103.152,130.609,101.773,130.609z M103.202,138.483h-2.999
        c-0.878,0-1.585-0.708-1.585-1.568c0-0.88,0.707-1.603,1.585-1.603h2.999V138.483z" />
            <path fill="#FFFFFF" d="M151.864,122.152c0.259,0,0.465-0.208,0.465-0.5v-5.015h1.378c0.034,0,0.087,0.036,0.104,0.07
        c1.344,1.673,2.844,3.584,4.188,5.255c0.068,0.104,0.206,0.189,0.362,0.189c0.274,0,0.465-0.206,0.465-0.465
        c0-0.104-0.035-0.224-0.104-0.31l-4.188-5.204l4.014-5.342c0.069-0.085,0.087-0.171,0.087-0.275c0-0.258-0.207-0.465-0.482-0.465
        c-0.138,0-0.274,0.087-0.361,0.189l-4.032,5.445c-0.018,0.019-0.034,0.019-0.086,0.019h-1.344v-5.187
        c0-0.258-0.207-0.465-0.465-0.465c-0.275,0-0.464,0.206-0.464,0.465v11.129C151.399,121.945,151.588,122.152,151.864,122.152z" />
            <path fill="#FFFFFF" d="M166.144,121.686c0,0.241,0.188,0.465,0.447,0.465c0.258,0,0.465-0.224,0.465-0.465v-5.428
        c0-1.826-1.257-2.875-2.705-2.875h-3.084c-0.43,0-0.723,0.361-0.723,0.741v7.563c0,0.241,0.189,0.465,0.447,0.465
        s0.464-0.208,0.464-0.5v-7.409h2.896c0.965,0,1.792,0.81,1.792,2.015V121.686z" />
            <path fill="#FFFFFF" d="M171.656,122.256L171.656,122.256l1.051-0.001c1.619,0,2.86-1.207,2.86-3.032v-2.619
        c0-1.826-1.207-3.205-2.86-3.205h-1.051c-1.672,0-2.878,1.379-2.878,3.205v2.62C168.778,121.049,170.019,122.256,171.656,122.256z
         M169.691,116.604c0-1.205,0.844-2.343,1.964-2.343h1.051c1.103,0,1.964,1.138,1.964,2.343v2.62c0,1.188-0.861,2.17-1.964,2.17
        v-0.001h-1.051c-1.12,0-1.964-0.982-1.964-2.17V116.604z" />
            <path fill="#FFFFFF" d="M185.524,122.152c0.619,0,1.154-0.396,1.292-0.965l1.724-7.063c0-0.05,0.016-0.102,0.016-0.12
        c0-0.242-0.223-0.448-0.446-0.448c-0.207,0-0.362,0.137-0.432,0.328l-1.74,7.098c-0.052,0.154-0.206,0.275-0.413,0.275
        c-0.19,0-0.329-0.122-0.38-0.293l-1.913-6.839c-0.069-0.241-0.276-0.379-0.551-0.379c-0.258,0-0.465,0.139-0.534,0.379l-1.895,6.84
        c-0.053,0.172-0.189,0.293-0.414,0.293c-0.173,0-0.327-0.122-0.379-0.293l-1.706-7.081c-0.052-0.173-0.225-0.345-0.431-0.345
        c-0.259,0-0.448,0.223-0.448,0.447c0,0.052,0,0.104,0.018,0.155l1.688,7.046c0.139,0.552,0.655,0.965,1.258,0.965
        c0.638,0,1.138-0.396,1.292-0.947l1.551-5.79l1.585,5.79C184.421,121.756,184.903,122.152,185.524,122.152z" />
            <path fill="#FFFFFF" d="M202.23,116.604c0-1.826-1.205-3.205-2.858-3.205h-1.052c-1.671,0-2.876,1.379-2.876,3.205v2.62
        c0,1.826,1.241,3.032,2.876,3.032v-0.001h1.052c1.62,0,2.858-1.207,2.858-3.032V116.604z M201.336,119.224
        c0,1.188-0.863,2.17-1.964,2.17v-0.001h-1.052c-1.12,0-1.964-0.982-1.964-2.17v-2.619c0-1.205,0.845-2.343,1.964-2.343h1.052
        c1.102,0,1.964,1.138,1.964,2.343V119.224z" />
            <path fill="#FFFFFF" d="M210.464,121.428v-7.582c0-0.223-0.189-0.464-0.446-0.464s-0.466,0.241-0.466,0.5v7.407h-2.895
        c-0.964,0-1.791-0.81-1.791-1.997v-5.445c0-0.223-0.189-0.464-0.448-0.464c-0.259,0-0.466,0.241-0.466,0.464v5.445
        c0,1.808,1.259,2.858,2.706,2.858h3.084C210.171,122.151,210.464,121.807,210.464,121.428z" />
            <path fill="#FFFFFF" d="M216.08,113.384h-0.534c-1.104,0-1.895,0.257-2.446,0.809v-0.345c0-0.258-0.205-0.464-0.466-0.464
        c-0.275,0-0.446,0.205-0.446,0.464v7.856c0,0.259,0.173,0.448,0.446,0.448c0.259,0,0.466-0.189,0.466-0.448v-4.928
        c0-1.567,0.775-2.531,2.446-2.531h0.568c0.241,0,0.433-0.172,0.433-0.432C216.546,113.573,216.355,113.384,216.08,113.384z" />
            <path fill="#FFFFFF" d="M38.625,128.247c0.275,0,0.465-0.189,0.465-0.465c0-0.257-0.189-0.464-0.5-0.464h-5.91
        c-0.431,0-0.775,0.327-0.775,0.776v10.507c0,0.448,0.344,0.775,0.775,0.775h5.944c0.275,0,0.465-0.206,0.465-0.464
        c0-0.276-0.189-0.465-0.5-0.465h-5.738v-4.859h4.773c0.258,0,0.465-0.206,0.465-0.482c0-0.258-0.207-0.465-0.5-0.465h-4.738v-4.394
        H38.625z" />
            <path fill="#FFFFFF" d="M46.083,127.455c-0.259,0-0.466,0.189-0.466,0.465v2.687h-2.859c-1.448,0-2.705,1.051-2.705,2.877v2.653
        c0,1.258,0.723,3.24,2.739,3.24h3.015c0.378,0,0.724-0.345,0.724-0.723V127.92C46.531,127.644,46.307,127.455,46.083,127.455z
         M45.618,138.466h-2.826c-1.051,0-1.826-0.965-1.826-2.378v-2.602c0-1.205,0.828-2.015,1.792-2.015h2.859V138.466z" />
            <path fill="#FFFFFF" d="M54.317,130.607c-0.258,0-0.465,0.241-0.465,0.5v7.409h-2.895c-0.965,0-1.792-0.81-1.792-1.998v-5.446
        c0-0.224-0.189-0.465-0.447-0.465c-0.258,0-0.465,0.241-0.465,0.465v5.445c0,1.809,1.258,2.858,2.705,2.858h3.084
        c0.43,0,0.723-0.345,0.723-0.723v-7.58C54.765,130.849,54.575,130.607,54.317,130.607z" />
            <path fill="#FFFFFF" d="M59.847,131.47h1.947c0.258,0,0.43-0.172,0.43-0.431c0-0.241-0.172-0.43-0.43-0.43v0.001h-1.947
        c-2.275,0-3.36,1.206-3.36,3.514v1.62c0,2.48,1.103,3.636,3.36,3.636h1.947c0.258,0,0.43-0.189,0.43-0.43
        c0-0.242-0.172-0.431-0.43-0.431h-1.947c-1.637,0-2.464-0.983-2.464-2.757v-1.638C57.383,132.435,58.123,131.47,59.847,131.47z" />
            <path fill="#FFFFFF" d="M67.994,130.609h-3.119c-0.258,0-0.431,0.189-0.43,0.43c0,0.259,0.172,0.431,0.464,0.431h3.084
        c0.896,0,1.43,0.759,1.43,1.706v1.259h-2.997c-1.379,0-2.481,1.118-2.481,2.48c0,1.378,1.103,2.464,2.481,2.464h3.221
        c0.396,0,0.689-0.294,0.689-0.69v-5.565C70.337,131.676,69.372,130.609,67.994,130.609z M69.422,138.483h-2.997
        c-0.879,0-1.584-0.708-1.584-1.568c0-0.88,0.706-1.603,1.584-1.603h2.997V138.483z" />
            <path fill="#FFFFFF" d="M76.159,131.66c0.274,0,0.464-0.189,0.464-0.448c0-0.258-0.189-0.465-0.482-0.465h-2.292v-1.414
        c0-0.258-0.206-0.464-0.465-0.464c-0.258,0-0.447,0.205-0.447,0.464h-0.002v1.415h-0.914c-0.258,0-0.447,0.207-0.447,0.465
        c0,0.259,0.189,0.448,0.447,0.448h0.914v4.859c0,1.861,0.708,2.86,2.585,2.86h0.638c0.274,0,0.464-0.189,0.464-0.449
        c0-0.257-0.189-0.464-0.464-0.464h-0.638c-1.258,0-1.671-0.672-1.671-1.947v-4.859H76.159z" />
            <path fill="#FFFFFF" d="M78.792,130.764c-0.275,0-0.447,0.206-0.447,0.465v7.701c0,0.26,0.172,0.449,0.447,0.449
        c0.258,0,0.465-0.189,0.465-0.449v-7.701C79.258,130.971,79.051,130.764,78.792,130.764z" />
            <path fill="#FFFFFF" d="M78.792,127.456c-0.275,0-0.447,0.189-0.447,0.465v0.327c0,0.259,0.172,0.448,0.447,0.448
        c0.258,0,0.465-0.189,0.465-0.448v-0.327C79.258,127.646,79.051,127.456,78.792,127.456z" />
            <path fill="#FFFFFF" d="M84.908,130.625h-1.051c-1.672,0-2.877,1.379-2.877,3.205v2.62c0,1.826,1.241,3.032,2.877,3.032h1.051
        c1.619,0,2.86-1.206,2.86-3.032v-2.62C87.768,132.004,86.562,130.625,84.908,130.625z M86.874,136.45
        c0,1.188-0.862,2.17-1.964,2.17h-1.051c-1.12,0-1.964-0.983-1.964-2.17v-2.62c0-1.205,0.844-2.343,1.964-2.343h1.051
        c1.103,0,1.964,1.138,1.964,2.343V136.45z" />
            <path fill="#FFFFFF" d="M93.297,130.609h-3.084c-0.43,0-0.724,0.362-0.724,0.741v7.564c0,0.241,0.189,0.465,0.448,0.465
        c0.259,0,0.465-0.208,0.465-0.501v-7.408h2.895c0.965,0,1.792,0.81,1.792,2.015v5.428c0,0.241,0.189,0.464,0.448,0.464
        s0.465-0.223,0.465-0.464v-5.428C96.002,131.66,94.745,130.609,93.297,130.609z" />
            <path fill="#FFFFFF" d="M106.301,127.456c-0.275,0-0.464,0.189-0.464,0.465v10.994c0,0.257,0.189,0.465,0.464,0.465
        c0.259,0,0.465-0.208,0.465-0.501v-10.923C106.766,127.646,106.56,127.456,106.301,127.456z" />
            <path fill="#FFFFFF" d="M117.585,132.692c-1.843-0.31-3.033-0.551-3.033-2.343c0-1.584,1.103-2.119,2.878-2.119h2.946
        c0.241,0,0.465-0.224,0.465-0.465c0-0.225-0.206-0.448-0.5-0.448h-2.911c-2.325,0-3.772,0.793-3.772,3.032
        c0,2.568,1.688,2.843,3.755,3.239c1.948,0.38,2.809,0.672,2.809,2.206c0,1.931-0.981,2.688-2.773,2.688h-3.342
        c-0.241,0-0.449,0.206-0.449,0.445c0,0.226,0.207,0.448,0.448,0.448h3.343c2.396,0,3.67-1.016,3.67-3.583
        C121.117,133.657,119.825,133.09,117.585,132.692z" />
            <path fill="#FFFFFF" d="M126.766,130.625h-1.051c-1.672,0-2.877,1.379-2.877,3.205v2.62c0,1.826,1.241,3.032,2.877,3.032h1.051
        c1.619,0,2.86-1.206,2.86-3.032v-2.62C129.626,132.004,128.42,130.625,126.766,130.625z M128.731,136.45
        c0,1.188-0.862,2.17-1.964,2.17h-1.052c-1.12,0-1.964-0.983-1.964-2.17v-2.62c0-1.205,0.844-2.343,1.964-2.343h1.052
        c1.103,0,1.964,1.138,1.964,2.343V136.45z" />
            <path fill="#FFFFFF" d="M135.655,130.763h-2.206c0.224-1.396,0.93-2.206,2.275-2.429c0.188-0.035,0.343-0.19,0.343-0.413
        c0-0.259-0.189-0.432-0.517-0.432c-1.843,0.328-2.842,1.328-3.032,3.274h-0.741c-0.242,0-0.431,0.187-0.431,0.428
        c0,0.241,0.19,0.43,0.431,0.43h0.723v7.324c0,0.241,0.19,0.429,0.432,0.429c0.241,0,0.482-0.188,0.482-0.464v-7.289h2.24
        c0.241,0,0.432-0.189,0.432-0.43S135.896,130.763,135.655,130.763z" />
            <path fill="#FFFFFF" d="M142.389,131.66c0.274,0,0.464-0.189,0.464-0.448c0-0.258-0.189-0.465-0.482-0.465h-2.292v-1.414
        c0-0.258-0.207-0.464-0.465-0.464s-0.447,0.205-0.447,0.464h-0.001v1.415h-0.913c-0.259,0-0.448,0.207-0.448,0.465
        c0,0.259,0.189,0.448,0.448,0.448h0.913v4.859c0,1.861,0.707,2.86,2.584,2.86h0.638c0.274,0,0.464-0.189,0.464-0.449
        c0-0.257-0.189-0.464-0.464-0.464h-0.638c-1.258,0-1.671-0.672-1.671-1.947v-4.859H142.389z" />
            <path fill="#FFFFFF" d="M155.811,130.782c-0.208,0-0.363,0.136-0.431,0.327l-1.741,7.098c-0.052,0.154-0.207,0.276-0.413,0.276
        c-0.19,0-0.329-0.123-0.379-0.293l-1.913-6.84c-0.069-0.241-0.276-0.378-0.551-0.378c-0.259,0-0.465,0.138-0.535,0.378
        l-1.895,6.842c-0.052,0.171-0.188,0.292-0.413,0.292c-0.173,0-0.327-0.123-0.38-0.292l-1.705-7.083
        c-0.052-0.172-0.225-0.345-0.432-0.345c-0.258,0-0.447,0.224-0.447,0.448c0,0.052,0,0.104,0.017,0.155l1.688,7.045
        c0.139,0.553,0.655,0.966,1.258,0.966c0.638,0,1.137-0.396,1.292-0.947l1.552-5.791l1.585,5.791
        c0.155,0.55,0.637,0.947,1.258,0.947c0.62,0,1.155-0.397,1.292-0.966l1.723-7.063c0-0.05,0.018-0.102,0.018-0.119
        C156.258,130.988,156.035,130.782,155.811,130.782z" />
            <path fill="#FFFFFF" d="M161.58,130.609h-3.119c-0.26,0-0.432,0.189-0.43,0.43c0,0.259,0.171,0.431,0.464,0.431h3.084
        c0.896,0,1.43,0.759,1.43,1.706v1.259h-2.998c-1.378,0-2.48,1.118-2.48,2.48c0,1.378,1.103,2.464,2.48,2.464h3.221
        c0.397,0,0.69-0.294,0.69-0.69v-5.565C163.923,131.676,162.958,130.609,161.58,130.609z M163.009,138.483h-2.998
        c-0.878,0-1.585-0.708-1.585-1.568c0-0.88,0.707-1.603,1.585-1.603h2.998V138.483z" />
            <path fill="#FFFFFF" d="M169.536,130.609h-0.534c-1.103,0-1.895,0.257-2.446,0.81v-0.345c0-0.259-0.207-0.465-0.465-0.465
        c-0.275,0-0.447,0.205-0.447,0.465h-0.001v7.855c0,0.26,0.172,0.449,0.447,0.449c0.259,0,0.465-0.188,0.465-0.449v-4.926
        c0-1.568,0.775-2.532,2.446-2.532h0.569c0.241,0,0.431-0.172,0.431-0.431C170,130.798,169.812,130.609,169.536,130.609z" />
            <path fill="#FFFFFF" d="M174.032,130.609c-1.826,0-3.239,1.205-3.239,3.342v1.345c0,2.739,0.672,4.082,3.17,4.082h2.67
        c0.259,0,0.431-0.188,0.431-0.429c0-0.242-0.173-0.432-0.449-0.432h-2.635c-1.723,0-2.24-1.069-2.274-3.067h4.927
        c0.413,0,0.706-0.293,0.706-0.69v-0.809C177.339,131.763,176.169,130.609,174.032,130.609z M176.429,134.588h-4.722v-0.637
        c0-1.498,0.861-2.48,2.326-2.48c1.604,0,2.396,0.862,2.396,2.48V134.588z" />
            <path fill="#FFFFFF" d="M188.348,127.317h-3.343c-0.447,0-0.775,0.327-0.775,0.776v10.507c0,0.448,0.328,0.775,0.775,0.775h3.343
        c2.602,0,4.048-1.636,4.048-4.065v-3.825C192.396,128.472,190.861,127.317,188.348,127.317z M191.449,135.312
        c0,1.826-1.085,3.17-3.102,3.17h-3.188v-10.252h3.188c1.928,0,3.102,0.929,3.102,3.255V135.312z" />
            <path fill="#FFFFFF" d="M197.358,130.609c-1.827,0-3.239,1.205-3.239,3.342v1.345c0,2.739,0.671,4.082,3.169,4.082h2.672
        c0.257,0,0.43-0.188,0.43-0.429c0-0.242-0.173-0.432-0.451-0.432h-2.635c-1.721,0-2.239-1.069-2.275-3.067h4.931
        c0.412,0,0.705-0.293,0.705-0.69v-0.809C200.665,131.763,199.494,130.609,197.358,130.609z M199.75,134.588h-4.722v-0.637
        c0-1.498,0.863-2.48,2.327-2.48c1.602,0,2.395,0.862,2.395,2.48V134.588z" />
            <path fill="#FFFFFF" d="M208.157,130.763c-0.207,0-0.38,0.154-0.433,0.311l-2.099,7.149c-0.036,0.157-0.191,0.26-0.381,0.26
        c-0.153,0-0.309-0.122-0.36-0.276l-2.086-7.116c-0.052-0.189-0.223-0.327-0.448-0.327c-0.259,0-0.448,0.206-0.448,0.465
        c0,0.05,0.052,0.189,0.07,0.241l2.034,7.013c0.153,0.516,0.671,0.895,1.239,0.895c0.604,0,1.104-0.379,1.259-0.895l2.102-7.101
        c0.016-0.052,0.016-0.104,0.016-0.154C208.622,130.97,208.417,130.763,208.157,130.763z" />
            <path fill="#FFFFFF" d="M213.102,130.609c-1.827,0-3.239,1.205-3.239,3.342v1.345c0,2.739,0.671,4.082,3.169,4.082h2.669
        c0.261,0,0.43-0.188,0.43-0.429c0-0.242-0.171-0.432-0.448-0.432h-2.636c-1.723,0-2.239-1.069-2.273-3.067h4.929
        c0.413,0,0.705-0.293,0.705-0.69v-0.809C216.409,131.763,215.24,130.609,213.102,130.609z M215.494,134.588h-4.719v-0.637
        c0-1.498,0.86-2.48,2.325-2.48c1.602,0,2.395,0.862,2.395,2.48V134.588z" />
            <path fill="#FFFFFF" d="M218.594,127.456c-0.274,0-0.464,0.189-0.464,0.465v10.994c0,0.257,0.189,0.465,0.464,0.465
        c0.259,0,0.464-0.208,0.464-0.501v-10.923C219.058,127.646,218.853,127.456,218.594,127.456z" />
            <path fill="#FFFFFF" d="M224.71,130.625h-1.052c-1.671,0-2.876,1.379-2.876,3.205v2.62c0,1.826,1.241,3.032,2.876,3.032h1.052
        c1.62,0,2.858-1.206,2.858-3.032v-2.62C227.568,132.004,226.363,130.625,224.71,130.625z M226.674,136.45
        c0,1.188-0.863,2.17-1.964,2.17h-1.052c-1.119,0-1.964-0.983-1.964-2.17v-2.62c0-1.205,0.845-2.343,1.964-2.343h1.052
        c1.102,0,1.964,1.138,1.964,2.343V136.45z" />
            <path fill="#FFFFFF" d="M233.029,130.607h-3.014c-0.378,0-0.723,0.363-0.723,0.741v10.734c0,0.257,0.205,0.464,0.446,0.464
        c0.259,0,0.466-0.206,0.466-0.464v-2.707h2.861c1.446,0,2.703-1.05,2.703-2.858v-2.654
        C235.768,132.605,235.045,130.607,233.029,130.607z M234.856,136.519c0,1.188-0.827,1.998-1.791,1.998h-2.861v-6.995h2.825
        c1.052,0,1.827,0.964,1.827,2.395V136.519z" />
            <path fill="#FFFFFF" d="M246.07,130.609h-7.855c-0.431,0-0.723,0.362-0.723,0.741v7.564c0,0.241,0.171,0.465,0.446,0.465
        c0.259,0,0.466-0.208,0.466-0.501v-7.407v-0.001v0.001h4.273v7.442c0,0.241,0.173,0.465,0.448,0.465
        c0.257,0,0.466-0.208,0.466-0.501v-7.408h2.478c0.966,0,1.795,0.81,1.795,2.015v5.428c0,0.241,0.171,0.464,0.448,0.464
        c0.254,0,0.464-0.223,0.464-0.464v-5.428C248.777,131.66,247.5,130.609,246.07,130.609z" />
            <path fill="#FFFFFF" d="M253.735,130.609c-1.825,0-3.239,1.205-3.239,3.342v1.345c0,2.739,0.671,4.082,3.169,4.082h2.672
        c0.257,0,0.43-0.188,0.43-0.429c0-0.242-0.173-0.432-0.448-0.432h-2.636c-1.723,0-2.241-1.069-2.275-3.067h4.929
        c0.412,0,0.707-0.293,0.707-0.69v-0.809C257.044,131.763,255.873,130.609,253.735,130.609z M256.13,134.588h-4.721v-0.637
        c0-1.498,0.86-2.48,2.327-2.48c1.602,0,2.395,0.862,2.395,2.48V134.588z" />
            <path fill="#FFFFFF" d="M262.57,130.609h-3.084c-0.43,0-0.723,0.362-0.723,0.741v7.564c0,0.241,0.189,0.465,0.448,0.465
        c0.257,0,0.464-0.208,0.464-0.501v-7.408h2.895c0.966,0,1.793,0.81,1.793,2.015v5.428c0,0.241,0.191,0.464,0.448,0.464
        s0.464-0.223,0.464-0.464v-5.428C265.276,131.66,264.019,130.609,262.57,130.609z" />
            <path fill="#FFFFFF" d="M271.581,131.66c0.275,0,0.464-0.189,0.464-0.448c0-0.258-0.189-0.465-0.482-0.465h-2.291v-1.414
        c0-0.258-0.205-0.464-0.466-0.464c-0.257,0-0.446,0.205-0.446,0.464v1.415h-0.915c-0.259,0-0.448,0.207-0.448,0.465
        c0,0.259,0.189,0.448,0.448,0.448h0.915v4.859c0,1.861,0.705,2.86,2.583,2.86h0.638c0.275,0,0.464-0.189,0.464-0.449
        c0-0.257-0.189-0.464-0.464-0.464h-0.638c-1.259,0-1.671-0.672-1.671-1.947v-4.859H271.581z" />
            <path fill="#FFFFFF" d="M285.086,138.448h-5.204v-10.666c0-0.257-0.208-0.464-0.482-0.464c-0.259,0-0.466,0.206-0.466,0.464h0.002
        v10.82c0,0.448,0.345,0.775,0.775,0.775h5.412c0.257,0,0.464-0.207,0.464-0.464C285.586,138.637,285.379,138.448,285.086,138.448z" />
            <path fill="#FFFFFF" d="M287.753,127.456c-0.275,0-0.448,0.189-0.448,0.465v0.327c0,0.259,0.173,0.448,0.448,0.448
        c0.259,0,0.466-0.189,0.466-0.448v-0.327C288.22,127.646,288.013,127.456,287.753,127.456z" />
            <path fill="#FFFFFF" d="M287.753,130.764c-0.275,0-0.448,0.206-0.448,0.465v7.701c0,0.26,0.173,0.449,0.448,0.449
        c0.259,0,0.466-0.189,0.466-0.449v-7.701C288.22,130.971,288.013,130.764,287.753,130.764z" />
            <path fill="#FFFFFF" d="M294.25,130.763h-2.205c0.225-1.396,0.93-2.206,2.273-2.429c0.189-0.035,0.345-0.19,0.345-0.413
        c0-0.259-0.189-0.432-0.514-0.432c-1.847,0.328-2.845,1.328-3.035,3.274h-0.741c-0.241,0-0.431,0.187-0.431,0.428
        c0,0.241,0.189,0.43,0.431,0.43h0.723v7.324c0,0.241,0.189,0.429,0.43,0.429c0.241,0,0.482-0.188,0.482-0.464v-7.289h2.241
        c0.241,0,0.431-0.189,0.431-0.43S294.491,130.763,294.25,130.763z" />
            <path fill="#FFFFFF" d="M298.713,130.609c-1.827,0-3.239,1.205-3.239,3.342v1.345c0,2.739,0.671,4.082,3.169,4.082h2.671
        c0.259,0,0.43-0.188,0.43-0.429c0-0.242-0.173-0.432-0.45-0.432h-2.633c-1.724,0-2.242-1.069-2.275-3.067h4.929
        c0.412,0,0.705-0.293,0.705-0.69v-0.809C302.02,131.763,300.851,130.609,298.713,130.609z M301.105,134.588h-4.722v-0.637
        c0-1.498,0.863-2.48,2.327-2.48c1.602,0,2.395,0.862,2.395,2.48V134.588z" />
            <path fill="#FFFFFF" d="M312.956,128.231h2.965c0.241,0,0.448-0.224,0.448-0.465c0-0.225-0.207-0.448-0.448-0.448h-2.965
        c-2.514,0-4.048,1.155-4.048,4.169v3.826c0,2.428,1.446,4.065,4.048,4.065h2.965c0.241,0,0.448-0.224,0.448-0.449
        c0-0.241-0.207-0.447-0.484-0.447h-2.929c-2.016,0-3.102-1.345-3.102-3.171v-3.825
        C309.854,129.162,311.027,128.231,312.956,128.231z" />
            <path fill="#FFFFFF" d="M322.931,130.763c-0.188,0-0.345,0.154-0.414,0.311l-2.343,7.336c0,0.036-0.052,0.071-0.138,0.071
        c-0.033,0-0.085-0.035-0.104-0.086c-0.738-2.395-1.55-4.911-2.291-7.339c-0.069-0.155-0.223-0.293-0.43-0.293
        c-0.241,0-0.431,0.189-0.431,0.448c0,0.018,0.018,0.086,0.018,0.104l2.291,7.374c0.104,0.345,0.449,0.621,0.81,0.672l-1.019,3.256
        c-0.016,0.034-0.016,0.085-0.016,0.137c0,0.259,0.189,0.432,0.43,0.432c0.224,0,0.36-0.139,0.413-0.293l3.653-11.562
        c0.018-0.051,0.018-0.085,0.018-0.119C323.379,130.952,323.19,130.763,322.931,130.763z" />
            <path fill="#FFFFFF" d="M327.907,131.47h1.948c0.257,0,0.431-0.172,0.431-0.431c0-0.241-0.174-0.43-0.431-0.43v0.001h-1.948
        c-2.272,0-3.358,1.206-3.358,3.514v1.62c0,2.48,1.102,3.636,3.358,3.636h1.948c0.257,0,0.431-0.189,0.431-0.43
        c0-0.242-0.174-0.431-0.431-0.431h-1.948c-1.636,0-2.462-0.983-2.462-2.757v-1.638C325.445,132.435,326.184,131.47,327.907,131.47z
        " />
            <path fill="#FFFFFF" d="M332.471,127.456c-0.274,0-0.464,0.189-0.464,0.465v10.994c0,0.257,0.189,0.465,0.464,0.465
        c0.257,0,0.467-0.208,0.467-0.501v-10.923C332.938,127.646,332.73,127.456,332.471,127.456z" />
            <path fill="#FFFFFF" d="M337.9,130.609c-1.827,0-3.239,1.205-3.239,3.342v1.345c0,2.739,0.673,4.082,3.171,4.082h2.668
        c0.261,0,0.432-0.188,0.432-0.429c0-0.242-0.173-0.432-0.448-0.432h-2.635c-1.724,0-2.242-1.069-2.275-3.067h4.929
        c0.414,0,0.707-0.293,0.707-0.69v-0.809C341.209,131.763,340.038,130.609,337.9,130.609z M340.295,134.588h-4.722v-0.637
        c0-1.498,0.86-2.48,2.324-2.48c1.604,0,2.397,0.862,2.397,2.48V134.588z" />
            <path fill="#FFFFFF" d="M234.189,150.59c-15.827,13.318-31.654,26.636-47.48,39.952c1.062,0.857,0.149-0.124-0.851,0.716
        c0.284-0.239,0.567-0.478,0.851-0.716c-0.079-0.063-0.142-0.113-0.244-0.198c-0.837-0.705-1.674-1.41-2.512-2.114
        c-2.875-2.421-5.751-4.843-8.626-7.264c-4.029-3.391-8.057-6.783-12.085-10.175c-8.059-6.785-16.123-13.564-24.184-20.347
        c-0.706-0.595-2.688,0.433-1.731,1.236c16.121,13.563,32.238,27.128,48.354,40.696c0.392,0.33,1.241,0.145,1.592-0.152
        c16.125-13.567,32.249-27.133,48.372-40.702C236.802,150.547,234.998,149.91,234.189,150.59z" />
        </g>
    </g>
</svg>
