<svg version="1.1" xmlns="http://www.w3.org/2000/svg" x="0px" y="0px" xml:space="preserve">
    <path fill="none" stroke="#838680" stroke-miterlimit="10" d="M15.963,0.505c-9.484,0-15.41,10.469-15.41,10.469
        s5.871,10.467,15.41,10.467c8.922,0,15.693-10.467,15.693-10.467S24.942,0.505,15.963,0.505z M16.047,15.689
        c-2.598,0-4.703-2.105-4.703-4.705c0-2.598,2.105-4.703,4.703-4.703s4.703,2.105,4.703,4.703
        C20.75,13.584,18.645,15.689,16.047,15.689z"/>
    <path fill="#838680" d="M16.047,6.281c-2.598,0-4.703,2.105-4.703,4.703c0,2.6,2.105,4.705,4.703,4.705s4.703-2.105,4.703-4.705
        C20.75,8.387,18.645,6.281,16.047,6.281z M16.075,13.316c-1.293,0-2.34-1.047-2.34-2.342c0-1.293,1.047-2.34,2.34-2.34
        c1.295,0,2.342,1.047,2.342,2.34C18.417,12.27,17.37,13.316,16.075,13.316z"/>
    <circle opacity="0" fill="#838680" cx="16.075" cy="10.976" r="2.341"/>
</svg>