<svg version="1.1" id="Layer_1" xmlns="http://www.w3.org/2000/svg" xmlns:xlink="http://www.w3.org/1999/xlink" x="0px" y="0px"
	 width="268px" height="71.477px" viewBox="0 0 268 71.477" enable-background="new 0 0 268 71.477" xml:space="preserve">
    <g>
        <g class="letters">
            <path fill="#ffffff" d="M109.867,10.006c0.06,0.074,0.09,0.179,0.09,0.269c0,0.224-0.165,0.403-0.403,0.403
                c-0.135,0-0.254-0.074-0.314-0.164c-1.165-1.449-2.465-3.107-3.63-4.557c-0.015-0.029-0.06-0.06-0.09-0.06h-1.195v4.347
                c0,0.254-0.179,0.434-0.403,0.434c-0.239,0-0.403-0.18-0.403-0.403v-9.65c0-0.224,0.164-0.403,0.403-0.403
                c0.224,0,0.403,0.18,0.403,0.403v4.497h1.165c0.045,0,0.06,0,0.075-0.016l3.496-4.721c0.075-0.089,0.194-0.164,0.313-0.164
                c0.239,0,0.418,0.18,0.418,0.403c0,0.09-0.015,0.164-0.075,0.239l-3.48,4.631L109.867,10.006z"/>
            <path fill="#ffffff" d="M116.303,5.568c0-1.045-0.717-1.747-1.554-1.747h-2.51v6.423c0,0.254-0.179,0.434-0.403,0.434
                s-0.388-0.194-0.388-0.403V3.717c0-0.329,0.254-0.643,0.627-0.643h2.674c1.255,0,2.345,0.911,2.345,2.494v4.706
                c0,0.209-0.179,0.403-0.403,0.403s-0.388-0.194-0.388-0.403V5.568z"/>
            <path fill="#ffffff" d="M121.082,10.768c-1.419,0-2.495-1.046-2.495-2.629V5.867c0-1.583,1.045-2.778,2.495-2.778h0.911
                c1.434,0,2.48,1.195,2.48,2.778v2.271c0,1.583-1.076,2.629-2.48,2.629H121.082z M121.993,10.021c0.956,0,1.703-0.852,1.703-1.882
                V5.867c0-1.045-0.747-2.031-1.703-2.031h-0.911c-0.971,0-1.703,0.986-1.703,2.031v2.271c0,1.03,0.732,1.882,1.703,1.882H121.993z"
                />
            <path fill="#ffffff" d="M132.777,9.647c0.044,0.148,0.164,0.254,0.329,0.254c0.179,0,0.313-0.105,0.358-0.239l1.509-6.154
                c0.06-0.165,0.195-0.284,0.374-0.284c0.194,0,0.388,0.179,0.388,0.389c0,0.015-0.014,0.06-0.014,0.104l-1.495,6.124
                c-0.119,0.493-0.583,0.837-1.12,0.837c-0.538,0-0.956-0.344-1.091-0.821l-1.374-5.02l-1.345,5.02
                c-0.134,0.478-0.567,0.821-1.12,0.821c-0.523,0-0.971-0.358-1.091-0.837l-1.464-6.109c-0.015-0.045-0.015-0.09-0.015-0.135
                c0-0.194,0.164-0.388,0.388-0.388c0.179,0,0.329,0.149,0.374,0.299l1.479,6.14c0.045,0.148,0.179,0.254,0.329,0.254
                c0.194,0,0.313-0.105,0.358-0.254l1.643-5.931c0.06-0.209,0.239-0.329,0.463-0.329c0.239,0,0.418,0.12,0.478,0.329L132.777,9.647z"
                />
            <path fill="#ffffff" d="M144.201,10.768c-1.419,0-2.494-1.046-2.494-2.629V5.867c0-1.583,1.045-2.778,2.494-2.778h0.912
                c1.434,0,2.479,1.195,2.479,2.778v2.271c0,1.583-1.075,2.629-2.479,2.629H144.201z M145.113,10.021
                c0.955,0,1.703-0.852,1.703-1.882V5.867c0-1.045-0.748-2.031-1.703-2.031h-0.912c-0.971,0-1.703,0.986-1.703,2.031v2.271
                c0,1.03,0.732,1.882,1.703,1.882H145.113z"/>
            <path fill="#ffffff" d="M149.876,8.198c0,1.03,0.718,1.732,1.554,1.732h2.51V3.508c0-0.225,0.18-0.434,0.403-0.434
                s0.388,0.209,0.388,0.403v6.573c0,0.328-0.254,0.627-0.627,0.627h-2.674c-1.255,0-2.346-0.911-2.346-2.479V3.478
                c0-0.194,0.18-0.403,0.404-0.403c0.224,0,0.388,0.209,0.388,0.403V8.198z"/>
            <path fill="#ffffff" d="M156.224,3.478c0-0.225,0.149-0.403,0.388-0.403c0.225,0,0.404,0.179,0.404,0.403v0.299
                c0.478-0.479,1.164-0.702,2.121-0.702h0.463c0.238,0,0.403,0.164,0.403,0.373c0,0.225-0.165,0.374-0.374,0.374h-0.492
                c-1.449,0-2.121,0.836-2.121,2.195v4.272c0,0.225-0.18,0.389-0.404,0.389c-0.238,0-0.388-0.164-0.388-0.389V3.478z"/>
            <path fill="#ffffff" d="M-0.086,15.829c0-0.389,0.299-0.673,0.672-0.673H5.71c0.269,0,0.433,0.18,0.433,0.403
                c0,0.239-0.164,0.403-0.403,0.403H0.735v3.81h4.108c0.254,0,0.433,0.179,0.433,0.403c0,0.239-0.179,0.418-0.403,0.418H0.735v4.213
                H5.71c0.269,0,0.433,0.164,0.433,0.403c0,0.224-0.164,0.403-0.403,0.403H0.586c-0.373,0-0.672-0.284-0.672-0.672V15.829z"/>
            <path fill="#ffffff" d="M12.595,24.986c0,0.328-0.299,0.627-0.627,0.627H9.354c-1.748,0-2.375-1.718-2.375-2.809v-2.301
                c0-1.583,1.09-2.494,2.345-2.494h2.479v-2.33c0-0.239,0.18-0.403,0.404-0.403c0.194,0,0.388,0.164,0.388,0.403V24.986z
                 M11.803,18.757H9.324c-0.836,0-1.554,0.702-1.554,1.747v2.256c0,1.226,0.672,2.062,1.583,2.062h2.45V18.757z"/>
            <path fill="#ffffff" d="M14.879,23.134c0,1.03,0.717,1.732,1.554,1.732h2.51v-6.423c0-0.225,0.179-0.434,0.403-0.434
                s0.388,0.209,0.388,0.403v6.573c0,0.328-0.254,0.627-0.627,0.627h-2.674c-1.255,0-2.345-0.911-2.345-2.479v-4.721
                c0-0.194,0.179-0.403,0.403-0.403s0.388,0.209,0.388,0.403V23.134z"/>
            <path fill="#ffffff" d="M25.828,18.01c0.224,0,0.373,0.164,0.373,0.373c0,0.225-0.149,0.374-0.373,0.374h-1.688
                c-1.494,0-2.136,0.836-2.136,2.3v1.42c0,1.538,0.717,2.39,2.136,2.39h1.688c0.224,0,0.373,0.164,0.373,0.374
                c0,0.209-0.149,0.373-0.373,0.373h-1.688c-1.957,0-2.913-1.001-2.913-3.152v-1.404c0-2.001,0.941-3.047,2.913-3.047H25.828z"/>
            <path fill="#ffffff" d="M28.5,18.01h2.704c1.195,0,2.032,0.926,2.032,2.181v4.825c0,0.344-0.254,0.598-0.598,0.598h-2.793
                c-1.195,0-2.151-0.941-2.151-2.136c0-1.181,0.956-2.151,2.151-2.151h2.599v-1.091c0-0.821-0.463-1.479-1.24-1.479H28.53
                c-0.254,0-0.403-0.149-0.403-0.374C28.126,18.174,28.276,18.01,28.5,18.01z M32.443,24.837v-2.749h-2.599
                c-0.762,0-1.374,0.627-1.374,1.39c0,0.746,0.612,1.359,1.374,1.359H32.443z"/>
            <path fill="#ffffff" d="M35.49,16.904c0-0.225,0.164-0.403,0.388-0.403s0.403,0.179,0.403,0.403v1.225h1.987
                c0.254,0,0.418,0.18,0.418,0.403c0,0.225-0.165,0.389-0.403,0.389h-2.002v4.213c0,1.105,0.358,1.688,1.449,1.688h0.553
                c0.239,0,0.403,0.18,0.403,0.403c0,0.225-0.165,0.389-0.403,0.389H37.73c-1.628,0-2.241-0.866-2.241-2.479v-4.213h-0.792
                c-0.224,0-0.388-0.164-0.388-0.389c0-0.224,0.164-0.403,0.388-0.403h0.792V16.904z"/>
            <path fill="#ffffff" d="M40.179,15.68c0-0.239,0.149-0.403,0.388-0.403c0.224,0,0.403,0.164,0.403,0.403v0.283
                c0,0.225-0.179,0.389-0.403,0.389c-0.239,0-0.388-0.164-0.388-0.389V15.68z M40.179,18.548c0-0.225,0.149-0.403,0.388-0.403
                c0.224,0,0.403,0.179,0.403,0.403v6.677c0,0.225-0.179,0.389-0.403,0.389c-0.239,0-0.388-0.164-0.388-0.389V18.548z"/>
            <path fill="#ffffff" d="M44.958,25.703c-1.419,0-2.495-1.046-2.495-2.629v-2.271c0-1.583,1.045-2.778,2.495-2.778h0.911
                c1.434,0,2.48,1.195,2.48,2.778v2.271c0,1.583-1.076,2.629-2.48,2.629H44.958z M45.87,24.956c0.956,0,1.703-0.852,1.703-1.882
                v-2.271c0-1.045-0.747-2.031-1.703-2.031h-0.911c-0.971,0-1.703,0.986-1.703,2.031v2.271c0,1.03,0.732,1.882,1.703,1.882H45.87z"/>
            <path fill="#ffffff" d="M54.697,20.504c0-1.045-0.717-1.747-1.554-1.747h-2.51v6.423c0,0.254-0.179,0.434-0.403,0.434
                s-0.388-0.194-0.388-0.403v-6.558c0-0.329,0.254-0.643,0.627-0.643h2.674c1.255,0,2.345,0.911,2.345,2.494v4.706
                c0,0.209-0.179,0.403-0.403,0.403s-0.388-0.194-0.388-0.403V20.504z"/>
            <path fill="#ffffff" d="M57.788,18.01h2.704c1.195,0,2.032,0.926,2.032,2.181v4.825c0,0.344-0.254,0.598-0.598,0.598h-2.793
                c-1.195,0-2.151-0.941-2.151-2.136c0-1.181,0.956-2.151,2.151-2.151h2.6v-1.091c0-0.821-0.463-1.479-1.24-1.479h-2.674
                c-0.254,0-0.403-0.149-0.403-0.374C57.414,18.174,57.563,18.01,57.788,18.01z M61.731,24.837v-2.749h-2.6
                c-0.762,0-1.374,0.627-1.374,1.39c0,0.746,0.612,1.359,1.374,1.359H61.731z"/>
            <path fill="#ffffff" d="M64.015,15.68c0-0.239,0.164-0.403,0.403-0.403c0.224,0,0.403,0.164,0.403,0.433v9.471
                c0,0.254-0.179,0.434-0.403,0.434c-0.239,0-0.403-0.18-0.403-0.403V15.68z"/>
            <path fill="#ffffff" d="M71.184,24.837h2.898c1.554,0,2.405-0.657,2.405-2.331c0-1.329-0.747-1.583-2.435-1.912
                c-1.792-0.344-3.256-0.582-3.256-2.809c0-1.941,1.255-2.629,3.271-2.629h2.524c0.254,0,0.433,0.194,0.433,0.389
                c0,0.209-0.194,0.403-0.403,0.403h-2.554c-1.539,0-2.495,0.463-2.495,1.837c0,1.554,1.031,1.763,2.629,2.032
                c1.942,0.344,3.062,0.836,3.062,2.688c0,2.226-1.105,3.107-3.182,3.107h-2.898c-0.209,0-0.388-0.194-0.388-0.389
                C70.795,25.016,70.975,24.837,71.184,24.837z"/>
            <path fill="#ffffff" d="M81.25,25.703c-1.419,0-2.495-1.046-2.495-2.629v-2.271c0-1.583,1.045-2.778,2.495-2.778h0.911
                c1.434,0,2.48,1.195,2.48,2.778v2.271c0,1.583-1.076,2.629-2.48,2.629H81.25z M82.162,24.956c0.956,0,1.703-0.852,1.703-1.882
                v-2.271c0-1.045-0.747-2.031-1.703-2.031H81.25c-0.971,0-1.703,0.986-1.703,2.031v2.271c0,1.03,0.732,1.882,1.703,1.882H82.162z"/>
            <path fill="#ffffff" d="M86.507,18.145h0.642c0.165-1.688,1.031-2.555,2.629-2.839c0.284,0,0.448,0.149,0.448,0.374
                c0,0.193-0.134,0.328-0.298,0.358c-1.166,0.194-1.778,0.896-1.972,2.106h1.912c0.209,0,0.374,0.164,0.374,0.373
                s-0.165,0.373-0.374,0.373h-1.942v6.319c0,0.239-0.209,0.403-0.418,0.403c-0.209,0-0.374-0.164-0.374-0.373v-6.35h-0.627
                c-0.209,0-0.374-0.164-0.374-0.373S86.297,18.145,86.507,18.145z"/>
            <path fill="#ffffff" d="M92.914,16.904c0-0.225,0.164-0.403,0.388-0.403s0.403,0.179,0.403,0.403v1.225h1.987
                c0.254,0,0.418,0.18,0.418,0.403c0,0.225-0.165,0.389-0.403,0.389h-2.002v4.213c0,1.105,0.358,1.688,1.449,1.688h0.553
                c0.239,0,0.403,0.18,0.403,0.403c0,0.225-0.165,0.389-0.403,0.389h-0.553c-1.628,0-2.241-0.866-2.241-2.479v-4.213h-0.792
                c-0.224,0-0.388-0.164-0.388-0.389c0-0.224,0.164-0.403,0.388-0.403h0.792V16.904z"/>
            <path fill="#ffffff" d="M104.774,24.583c0.044,0.148,0.164,0.254,0.329,0.254c0.179,0,0.313-0.105,0.358-0.239l1.509-6.154
                c0.06-0.165,0.194-0.284,0.374-0.284c0.194,0,0.388,0.179,0.388,0.389c0,0.015-0.015,0.06-0.015,0.104l-1.494,6.124
                c-0.119,0.493-0.583,0.837-1.12,0.837c-0.538,0-0.956-0.344-1.091-0.821l-1.374-5.02l-1.345,5.02
                c-0.134,0.478-0.567,0.821-1.12,0.821c-0.523,0-0.971-0.358-1.091-0.837l-1.464-6.109c-0.015-0.045-0.015-0.09-0.015-0.135
                c0-0.194,0.164-0.388,0.388-0.388c0.179,0,0.329,0.149,0.374,0.299l1.479,6.14c0.045,0.148,0.179,0.254,0.329,0.254
                c0.194,0,0.313-0.105,0.358-0.254l1.643-5.931c0.06-0.209,0.239-0.329,0.463-0.329c0.239,0,0.418,0.12,0.478,0.329L104.774,24.583z
                "/>
            <path fill="#ffffff" d="M109.642,18.01h2.704c1.195,0,2.032,0.926,2.032,2.181v4.825c0,0.344-0.254,0.598-0.598,0.598h-2.793
                c-1.195,0-2.151-0.941-2.151-2.136c0-1.181,0.956-2.151,2.151-2.151h2.599v-1.091c0-0.821-0.463-1.479-1.24-1.479h-2.674
                c-0.254,0-0.403-0.149-0.403-0.374C109.268,18.174,109.417,18.01,109.642,18.01z M113.585,24.837v-2.749h-2.599
                c-0.762,0-1.374,0.627-1.374,1.39c0,0.746,0.612,1.359,1.374,1.359H113.585z"/>
            <path fill="#ffffff" d="M115.869,18.413c0-0.225,0.149-0.403,0.388-0.403c0.224,0,0.403,0.179,0.403,0.403v0.299
                c0.478-0.479,1.165-0.702,2.121-0.702h0.463c0.239,0,0.403,0.164,0.403,0.373c0,0.225-0.165,0.374-0.374,0.374h-0.493
                c-1.449,0-2.121,0.836-2.121,2.195v4.272c0,0.225-0.179,0.389-0.403,0.389c-0.239,0-0.388-0.164-0.388-0.389V18.413z"/>
            <path fill="#ffffff" d="M121.126,22.207c0.03,1.733,0.478,2.659,1.972,2.659h2.285c0.239,0,0.389,0.164,0.389,0.374
                c0,0.209-0.149,0.373-0.374,0.373h-2.315c-2.166,0-2.749-1.165-2.749-3.54v-1.166c0-1.852,1.225-2.897,2.808-2.897
                c1.853,0,2.868,1.001,2.868,2.897v0.702c0,0.344-0.254,0.598-0.612,0.598H121.126z M125.22,21.46v-0.553
                c0-1.403-0.687-2.15-2.077-2.15c-1.27,0-2.017,0.852-2.017,2.15v0.553H125.22z"/>
            <path fill="#ffffff" d="M131.984,15.829c0-0.389,0.284-0.673,0.672-0.673h2.898c2.181,0,3.51,1.001,3.51,3.615v3.316
                c0,2.106-1.254,3.525-3.51,3.525h-2.898c-0.388,0-0.672-0.284-0.672-0.672V15.829z M138.243,18.771
                c0-2.017-1.016-2.823-2.688-2.823h-2.764v8.889h2.764c1.748,0,2.688-1.166,2.688-2.749V18.771z"/>
            <path fill="#ffffff" d="M141.348,22.207c0.03,1.733,0.479,2.659,1.973,2.659h2.285c0.239,0,0.389,0.164,0.389,0.374
                c0,0.209-0.149,0.373-0.373,0.373h-2.316c-2.166,0-2.748-1.165-2.748-3.54v-1.166c0-1.852,1.225-2.897,2.809-2.897
                c1.852,0,2.867,1.001,2.867,2.897v0.702c0,0.344-0.254,0.598-0.611,0.598H141.348z M145.441,21.46v-0.553
                c0-1.403-0.688-2.15-2.076-2.15c-1.27,0-2.018,0.852-2.018,2.15v0.553H145.441z"/>
            <path fill="#ffffff" d="M151.296,24.837c-0.134,0.447-0.567,0.776-1.091,0.776c-0.492,0-0.941-0.329-1.075-0.776l-1.763-6.08
                c-0.016-0.045-0.06-0.165-0.06-0.209c0-0.225,0.164-0.403,0.388-0.403c0.195,0,0.344,0.119,0.389,0.283l1.808,6.17
                c0.045,0.134,0.18,0.239,0.313,0.239c0.164,0,0.299-0.09,0.329-0.225l1.822-6.199c0.045-0.135,0.194-0.269,0.374-0.269
                c0.224,0,0.402,0.179,0.402,0.403c0,0.044,0,0.089-0.014,0.134L151.296,24.837z"/>
            <path fill="#ffffff" d="M154.999,22.207c0.03,1.733,0.478,2.659,1.972,2.659h2.285c0.24,0,0.389,0.164,0.389,0.374
                c0,0.209-0.148,0.373-0.373,0.373h-2.315c-2.166,0-2.749-1.165-2.749-3.54v-1.166c0-1.852,1.225-2.897,2.809-2.897
                c1.853,0,2.868,1.001,2.868,2.897v0.702c0,0.344-0.254,0.598-0.612,0.598H154.999z M159.092,21.46v-0.553
                c0-1.403-0.687-2.15-2.076-2.15c-1.27,0-2.017,0.852-2.017,2.15v0.553H159.092z"/>
            <path fill="#ffffff" d="M161.376,15.68c0-0.239,0.164-0.403,0.403-0.403c0.225,0,0.403,0.164,0.403,0.433v9.471
                c0,0.254-0.179,0.434-0.403,0.434c-0.239,0-0.403-0.18-0.403-0.403V15.68z"/>
            <path fill="#ffffff" d="M166.17,25.703c-1.419,0-2.494-1.046-2.494-2.629v-2.271c0-1.583,1.045-2.778,2.494-2.778h0.912
                c1.434,0,2.479,1.195,2.479,2.778v2.271c0,1.583-1.075,2.629-2.479,2.629H166.17z M167.082,24.956c0.955,0,1.703-0.852,1.703-1.882
                v-2.271c0-1.045-0.748-2.031-1.703-2.031h-0.912c-0.971,0-1.703,0.986-1.703,2.031v2.271c0,1.03,0.732,1.882,1.703,1.882H167.082z"
                />
            <path fill="#ffffff" d="M171.054,18.652c0-0.329,0.299-0.643,0.628-0.643h2.613c1.748,0,2.375,1.732,2.375,2.823v2.301
                c0,1.568-1.09,2.479-2.345,2.479h-2.479v2.346c0,0.224-0.18,0.403-0.404,0.403c-0.209,0-0.388-0.18-0.388-0.403V18.652z
                 M171.846,24.866h2.479c0.837,0,1.554-0.702,1.554-1.732v-2.256c0-1.24-0.672-2.076-1.584-2.076h-2.449V24.866z"/>
            <path fill="#ffffff" d="M178.955,18.757v6.423c0,0.254-0.18,0.434-0.404,0.434c-0.238,0-0.388-0.194-0.388-0.403v-6.558
                c0-0.329,0.254-0.643,0.628-0.643h6.811c1.24,0,2.346,0.911,2.346,2.494v4.706c0,0.209-0.18,0.403-0.402,0.403
                c-0.24,0-0.389-0.194-0.389-0.403v-4.706c0-1.045-0.717-1.747-1.555-1.747h-2.15v6.423c0,0.254-0.18,0.434-0.403,0.434
                c-0.239,0-0.389-0.194-0.389-0.403v-6.453H178.955z"/>
            <path fill="#ffffff" d="M190.23,22.207c0.029,1.733,0.479,2.659,1.973,2.659h2.285c0.238,0,0.389,0.164,0.389,0.374
                c0,0.209-0.15,0.373-0.374,0.373h-2.315c-2.166,0-2.748-1.165-2.748-3.54v-1.166c0-1.852,1.225-2.897,2.808-2.897
                c1.853,0,2.868,1.001,2.868,2.897v0.702c0,0.344-0.254,0.598-0.612,0.598H190.23z M194.324,21.46v-0.553
                c0-1.403-0.688-2.15-2.077-2.15c-1.27,0-2.017,0.852-2.017,2.15v0.553H194.324z"/>
            <path fill="#ffffff" d="M201.463,20.504c0-1.045-0.718-1.747-1.555-1.747h-2.51v6.423c0,0.254-0.179,0.434-0.402,0.434
                c-0.225,0-0.389-0.194-0.389-0.403v-6.558c0-0.329,0.254-0.643,0.627-0.643h2.674c1.256,0,2.346,0.911,2.346,2.494v4.706
                c0,0.209-0.18,0.403-0.403,0.403s-0.388-0.194-0.388-0.403V20.504z"/>
            <path fill="#ffffff" d="M204.927,16.904c0-0.225,0.164-0.403,0.388-0.403c0.225,0,0.404,0.179,0.404,0.403v1.225h1.986
                c0.254,0,0.418,0.18,0.418,0.403c0,0.225-0.164,0.389-0.402,0.389h-2.002v4.213c0,1.105,0.357,1.688,1.449,1.688h0.553
                c0.238,0,0.402,0.18,0.402,0.403c0,0.225-0.164,0.389-0.402,0.389h-0.553c-1.629,0-2.241-0.866-2.241-2.479v-4.213h-0.792
                c-0.225,0-0.389-0.164-0.389-0.389c0-0.224,0.164-0.403,0.389-0.403h0.792V16.904z"/>
            <path fill="#ffffff" d="M214.096,15.56c0-0.224,0.18-0.403,0.404-0.403c0.238,0,0.418,0.18,0.418,0.403v9.247h4.512
                c0.254,0,0.433,0.164,0.433,0.403c0,0.224-0.179,0.403-0.403,0.403h-4.691c-0.373,0-0.672-0.284-0.672-0.672V15.56z"/>
            <path fill="#ffffff" d="M221.354,15.68c0-0.239,0.149-0.403,0.388-0.403c0.225,0,0.404,0.164,0.404,0.403v0.283
                c0,0.225-0.18,0.389-0.404,0.389c-0.238,0-0.388-0.164-0.388-0.389V15.68z M221.354,18.548c0-0.225,0.149-0.403,0.388-0.403
                c0.225,0,0.404,0.179,0.404,0.403v6.677c0,0.225-0.18,0.389-0.404,0.389c-0.238,0-0.388-0.164-0.388-0.389V18.548z"/>
            <path fill="#ffffff" d="M224.014,18.145h0.642c0.165-1.688,1.03-2.555,2.63-2.839c0.283,0,0.447,0.149,0.447,0.374
                c0,0.193-0.135,0.328-0.299,0.358c-1.165,0.194-1.777,0.896-1.972,2.106h1.912c0.209,0,0.374,0.164,0.374,0.373
                s-0.165,0.373-0.374,0.373h-1.942v6.319c0,0.239-0.209,0.403-0.418,0.403s-0.373-0.164-0.373-0.373v-6.35h-0.627
                c-0.21,0-0.374-0.164-0.374-0.373S223.804,18.145,224.014,18.145z"/>
            <path fill="#ffffff" d="M229.226,22.207c0.03,1.733,0.478,2.659,1.972,2.659h2.285c0.24,0,0.389,0.164,0.389,0.374
                c0,0.209-0.148,0.373-0.373,0.373h-2.315c-2.166,0-2.749-1.165-2.749-3.54v-1.166c0-1.852,1.225-2.897,2.809-2.897
                c1.853,0,2.868,1.001,2.868,2.897v0.702c0,0.344-0.254,0.598-0.612,0.598H229.226z M233.318,21.46v-0.553
                c0-1.403-0.687-2.15-2.076-2.15c-1.27,0-2.017,0.852-2.017,2.15v0.553H233.318z"/>
            <path fill="#ffffff" d="M240.084,18.771c0-2.614,1.329-3.615,3.51-3.615h2.569c0.21,0,0.389,0.194,0.389,0.389
                c0,0.209-0.179,0.403-0.389,0.403h-2.569c-1.673,0-2.689,0.807-2.689,2.823v3.316c0,1.583,0.941,2.749,2.689,2.749h2.539
                c0.24,0,0.419,0.179,0.419,0.388c0,0.194-0.179,0.389-0.389,0.389h-2.569c-2.256,0-3.51-1.419-3.51-3.525V18.771z"/>
            <path fill="#ffffff" d="M251.883,18.413c0.061-0.135,0.194-0.269,0.359-0.269c0.224,0,0.388,0.164,0.388,0.388
                c0,0.03,0,0.06-0.015,0.104l-3.167,10.024c-0.045,0.134-0.165,0.254-0.358,0.254c-0.209,0-0.373-0.149-0.373-0.374
                c0-0.045,0-0.09,0.014-0.119l0.882-2.823c-0.313-0.045-0.612-0.284-0.702-0.583l-1.986-6.394c0-0.015-0.016-0.074-0.016-0.09
                c0-0.224,0.164-0.388,0.374-0.388c0.179,0,0.313,0.119,0.373,0.254c0.643,2.105,1.345,4.287,1.987,6.363
                c0.015,0.045,0.06,0.075,0.09,0.075c0.074,0,0.119-0.03,0.119-0.061L251.883,18.413z"/>
            <path fill="#ffffff" d="M258.245,18.01c0.224,0,0.373,0.164,0.373,0.373c0,0.225-0.149,0.374-0.373,0.374h-1.688
                c-1.494,0-2.136,0.836-2.136,2.3v1.42c0,1.538,0.717,2.39,2.136,2.39h1.688c0.224,0,0.373,0.164,0.373,0.374
                c0,0.209-0.149,0.373-0.373,0.373h-1.688c-1.957,0-2.912-1.001-2.912-3.152v-1.404c0-2.001,0.94-3.047,2.912-3.047H258.245z"/>
            <path fill="#ffffff" d="M260.111,15.68c0-0.239,0.164-0.403,0.403-0.403c0.224,0,0.403,0.164,0.403,0.433v9.471
                c0,0.254-0.18,0.434-0.403,0.434c-0.239,0-0.403-0.18-0.403-0.403V15.68z"/>
            <path fill="#ffffff" d="M263.203,22.207c0.029,1.733,0.478,2.659,1.972,2.659h2.285c0.239,0,0.389,0.164,0.389,0.374
                c0,0.209-0.149,0.373-0.374,0.373h-2.314c-2.166,0-2.749-1.165-2.749-3.54v-1.166c0-1.852,1.225-2.897,2.808-2.897
                c1.854,0,2.869,1.001,2.869,2.897v0.702c0,0.344-0.254,0.598-0.613,0.598H263.203z M267.296,21.46v-0.553
                c0-1.403-0.687-2.15-2.077-2.15c-1.27,0-2.016,0.852-2.016,2.15v0.553H267.296z"/>
        </g>
        <g>
            <path class="shape" fill="#ffffff" d="M91.318,36.279c13.977,11.759,27.951,23.521,41.924,35.285c0.34,0.286,1.076,0.125,1.381-0.132
                c13.98-11.763,27.96-23.526,41.939-35.29c1.004-0.845-0.561-1.398-1.262-0.808c-13.968,11.754-27.936,23.508-41.904,35.261
                c0.931-0.783,1.803,0.282,0.526-0.793c-0.726-0.611-1.452-1.223-2.178-1.833c-2.493-2.1-4.986-4.199-7.479-6.298
                c-3.493-2.94-6.985-5.881-10.478-8.822c-6.987-5.883-13.979-11.761-20.968-17.642C92.207,34.692,90.489,35.582,91.318,36.279
                L91.318,36.279z"/>
        </g>
    </g>
</svg>