<svg version="1.1" id="Layer_1" xmlns="http://www.w3.org/2000/svg" xmlns:xlink="http://www.w3.org/1999/xlink" x="0px" y="0px"
	 width="176.79px" height="90.08px" viewBox="0 0 176.79 90.08"  xml:space="preserve">
	 <g>
	     <g>
             <polygon class="shape" fill="#ACADA3" points="4.331,90.078 12.646,78.703 21.027,67.376 37.892,44.802 54.904,22.336 63.461,11.144 72.085,0
                 63.771,11.376 55.39,22.703 38.524,45.276 21.511,67.741 12.954,78.934 	"/>
             <circle class="shape" fill="#ACADA3" cx="38.21" cy="45.039" r="38.21"/>
         </g>
         <g class="letters" opacity="0.8">
             <g>
                 <path fill="#ffffff" d="M85.795,39.953c0.419,0.708,1.104,1.067,1.942,1.067c1.067,0,1.907-0.647,1.907-1.667
                     c0-2.375-4.378-0.983-4.378-4.21c0-1.511,1.296-2.326,2.723-2.326c0.924,0,1.739,0.312,2.314,1.067l-0.684,0.491
                     c-0.396-0.552-0.923-0.839-1.654-0.839c-1.02,0-1.907,0.527-1.907,1.606c0,2.555,4.377,1.02,4.377,4.21
                     c0,1.535-1.259,2.387-2.638,2.387c-1.116,0-2.1-0.359-2.759-1.283L85.795,39.953z"/>
                 <path fill="#ffffff" d="M92.239,33.033h5.193v0.72h-4.401v3.022h4.126v0.719h-4.126v3.311h4.594v0.72h-5.386V33.033z"/>
                 <path fill="#ffffff" d="M99.355,33.033h0.792v7.771h3.958v0.72h-4.75V33.033z"/>
                 <path fill="#ffffff" d="M105.355,33.033h5.193v0.72h-4.401v3.022h4.126v0.719h-4.126v3.311h4.594v0.72h-5.386V33.033z"/>
                 <path fill="#ffffff" d="M119.462,40.193c-0.804,1.104-1.906,1.547-3.154,1.547c-2.59,0-4.39-1.871-4.39-4.462
                     c0-2.59,1.8-4.461,4.39-4.461c1.151,0,2.183,0.384,2.927,1.331l-0.647,0.54c-0.528-0.792-1.428-1.151-2.279-1.151
                     c-2.219,0-3.598,1.631-3.598,3.741c0,2.111,1.379,3.742,3.598,3.742c0.852,0,1.907-0.407,2.507-1.319L119.462,40.193z"/>
                 <path fill="#ffffff" d="M122.801,33.752h-2.902v-0.72h6.597v0.72h-2.902v7.771h-0.792V33.752z"/>
                 <path fill="#ffffff" d="M127.806,33.033H133v0.72h-4.401v3.022h4.126v0.719h-4.126v3.311h4.594v0.72h-5.386V33.033z"/>
                 <path fill="#ffffff" d="M134.815,33.033h2.626c4.414,0,4.594,3.622,4.594,4.245c0,0.624-0.18,4.246-4.594,4.246h-2.626V33.033z
                      M135.606,40.804h1.632c2.254,0,4.005-1.091,4.005-3.526c0-2.435-1.751-3.525-4.005-3.525h-1.632V40.804z"/>
                 <path fill="#ffffff" d="M85.567,47.433h2.447c1.199,0,2.734,0.468,2.734,2.242c0,1.535-1.224,2.219-2.555,2.219h-1.835v4.03
                     h-0.792V47.433z M86.359,51.175h1.799c0.899,0,1.799-0.384,1.799-1.5c0-1.091-0.936-1.522-1.847-1.522h-1.751V51.175z"/>
                 <path fill="#ffffff" d="M92.455,47.433h2.231c0.671,0,3.021,0,3.021,2.23c0,1.619-1.234,2.063-2.17,2.183l2.471,4.078h-0.9
                     l-2.387-4.03h-1.475v4.03h-0.792V47.433z M93.247,51.175h1.679c1.667,0,1.991-0.924,1.991-1.512s-0.324-1.511-1.991-1.511h-1.679
                     V51.175z"/>
                 <path fill="#ffffff" d="M103.409,47.217c2.591,0,4.39,1.871,4.39,4.461c0,2.591-1.799,4.462-4.39,4.462
                     c-2.59,0-4.39-1.871-4.39-4.462C99.019,49.088,100.819,47.217,103.409,47.217z M103.409,55.42c2.219,0,3.599-1.631,3.599-3.742
                     c0-2.11-1.38-3.741-3.599-3.741s-3.598,1.631-3.598,3.741C99.811,53.79,101.19,55.42,103.409,55.42z"/>
                 <path fill="#ffffff" d="M113.033,53.429c0,1.02-0.132,2.711-2.326,2.711c-1.235,0-1.967-0.695-2.207-1.739l0.792-0.144
                     c0.191,0.791,0.671,1.163,1.415,1.163c1.127,0,1.535-0.768,1.535-1.799v-6.188h0.791V53.429z"/>
                 <path fill="#ffffff" d="M115.363,47.433h5.193v0.72h-4.401v3.022h4.126v0.719h-4.126v3.311h4.594v0.72h-5.386V47.433z"/>
                 <path fill="#ffffff" d="M129.47,54.593c-0.804,1.104-1.906,1.547-3.154,1.547c-2.59,0-4.39-1.871-4.39-4.462
                     c0-2.59,1.8-4.461,4.39-4.461c1.151,0,2.183,0.384,2.927,1.331l-0.647,0.54c-0.528-0.792-1.428-1.151-2.279-1.151
                     c-2.219,0-3.598,1.631-3.598,3.741c0,2.111,1.379,3.742,3.598,3.742c0.852,0,1.907-0.407,2.507-1.319L129.47,54.593z"/>
                 <path fill="#ffffff" d="M132.809,48.153h-2.902v-0.72h6.597v0.72h-2.902v7.771h-0.792V48.153z"/>
                 <path fill="#ffffff" d="M138.042,54.353c0.419,0.708,1.103,1.067,1.942,1.067c1.067,0,1.907-0.647,1.907-1.667
                     c0-2.375-4.378-0.983-4.378-4.21c0-1.511,1.296-2.326,2.723-2.326c0.924,0,1.739,0.312,2.314,1.067l-0.684,0.491
                     c-0.396-0.552-0.923-0.839-1.654-0.839c-1.02,0-1.907,0.527-1.907,1.606c0,2.555,4.377,1.02,4.377,4.21
                     c0,1.535-1.259,2.387-2.638,2.387c-1.116,0-2.1-0.359-2.759-1.283L138.042,54.353z"/>
             </g>
         </g>
        <linearGradient id="SVGID_1_" gradientUnits="userSpaceOnUse" x1="4.2681" y1="44.6943" x2="23.8225" y2="35.689" gradientTransform="matrix(0.7071 -0.7071 0.7352 0.7352 -17.7776 48.6144)">
            <stop  offset="0" style="stop-color:#000000;stop-opacity:0"/>
            <stop  offset="1" style="stop-color:#000000;stop-opacity:0.22"/>
        </linearGradient>
        <path fill="url(#SVGID_1_)" d="M46.867,53.748H29.442V36.323L3.889,61.876c3.747,7.597,9.94,13.771,17.555,17.485L46.867,53.748z"/>
        <path fill-rule="evenodd" clip-rule="evenodd" fill="#FFFFFF" d="M29.771,53.479V36.601h16.879v10.802v0.675v5.401H29.771z
              M45.3,37.951H31.121v4.051h1.361c0.101-0.756,0.504-1.322,0.988-1.322c0.482,0,0.887,0.566,0.986,1.322h0.723
             c0.098-0.764,0.504-1.336,0.991-1.336c0.486,0,0.893,0.572,0.989,1.336h4.771c0.098-0.764,0.504-1.336,0.99-1.336
             s0.894,0.572,0.99,1.336H45.3V37.951z M45.3,42.677h-1.384c-0.092,0.777-0.502,1.364-0.994,1.364c-0.493,0-0.902-0.587-0.993-1.364
             h-4.765c-0.092,0.777-0.501,1.364-0.993,1.364c-0.493,0-0.903-0.587-0.994-1.364h-0.713c-0.087,0.783-0.498,1.378-0.993,1.378
             c-0.497,0-0.907-0.595-0.994-1.378h-1.355v4.726h5.396c0.097-0.763,0.504-1.336,0.99-1.336c0.487,0,0.893,0.573,0.99,1.336h0.674
             c0.087-0.784,0.499-1.378,0.994-1.378c0.496,0,0.906,0.594,0.994,1.378h0.756c0.095-0.771,0.503-1.35,0.993-1.35
             s0.898,0.579,0.992,1.35H45.3V42.677z M45.3,48.078H43.9c-0.094,0.771-0.502,1.352-0.992,1.352s-0.898-0.581-0.993-1.352h-0.763
             c-0.101,0.756-0.504,1.322-0.987,1.322s-0.888-0.566-0.987-1.322H38.5c-0.091,0.778-0.5,1.365-0.993,1.365s-0.902-0.587-0.993-1.365
             h-5.393v4.052H45.3V48.078z"/>
	 </g>
</svg>