<svg version="1.1" id="Layer_1" xmlns="http://www.w3.org/2000/svg" xmlns:xlink="http://www.w3.org/1999/xlink" x="0px" y="0px" width="76.42px" height="115.925px" viewBox="0 0 76.42 115.925" enable-background="new 0 0 76.42 115.925" xml:space="preserve">
    <g>
        <g class="letters" opacity="0.8">
            <path fill="#FFFFFF" d="M9.394,93.033h5.086v0.72h-4.295v3.021h3.994v0.72h-3.994v4.03H9.394V93.033z" />
            <path fill="#FFFFFF" d="M16.065,93.033h5.193v0.72h-4.402v3.021h4.127v0.72h-4.127v3.312h4.594v0.719h-5.385V93.033z" />
            <path fill="#FFFFFF" d="M25.784,93.033h0.814l3.574,8.491h-0.887l-0.924-2.256h-4.498l-0.959,2.256h-0.828L25.784,93.033z
             M26.155,93.896l-1.979,4.653h3.898L26.155,93.896z" />
            <path fill="#FFFFFF" d="M32.47,93.753h-2.902v-0.72h6.596v0.72h-2.901v7.771h-0.791L32.47,93.753L32.47,93.753z" />
            <path fill="#FFFFFF" d="M43.507,98.274c0,1.811-0.779,3.466-3.094,3.466c-2.315,0-3.094-1.655-3.094-3.466v-5.241h0.791v5.036
            c0,1.212,0.323,2.951,2.303,2.951c1.979,0,2.303-1.739,2.303-2.951v-5.036h0.791V98.274z" />
            <path fill="#FFFFFF" d="M45.683,93.033h2.23c0.672,0,3.021,0,3.021,2.229c0,1.619-1.233,2.063-2.17,2.184l2.472,4.078h-0.9
            l-2.387-4.03h-1.476v4.03h-0.791L45.683,93.033L45.683,93.033z M46.474,96.774h1.68c1.666,0,1.99-0.924,1.99-1.512
            s-0.324-1.511-1.99-1.511h-1.68V96.774z" />
            <path fill="#FFFFFF" d="M52.798,93.033h5.193v0.72h-4.4v3.021h4.125v0.72h-4.125v3.312h4.594v0.719h-5.387V93.033z" />
            <path fill="#FFFFFF" d="M59.806,93.033h2.627c4.414,0,4.594,3.622,4.594,4.245s-0.18,4.246-4.594,4.246h-2.627V93.033z
             M60.597,100.806h1.633c2.254,0,4.006-1.092,4.006-3.527c0-2.435-1.752-3.524-4.006-3.524h-1.633V100.806z" />
            <path fill="#FFFFFF" d="M12.881,114.354c0.418,0.707,1.104,1.066,1.941,1.066c1.068,0,1.908-0.646,1.908-1.667
            c0-2.375-4.379-0.983-4.379-4.21c0-1.511,1.297-2.326,2.723-2.326c0.925,0,1.74,0.312,2.313,1.067l-0.684,0.491
            c-0.395-0.553-0.922-0.84-1.654-0.84c-1.02,0-1.906,0.527-1.906,1.606c0,2.556,4.377,1.021,4.377,4.21
            c0,1.535-1.261,2.387-2.639,2.387c-1.115,0-2.1-0.358-2.758-1.283L12.881,114.354z" />
            <path fill="#FFFFFF" d="M19.325,107.435h5.193v0.719h-4.402v3.022h4.127v0.72h-4.127v3.311h4.594v0.72h-5.385V107.435z" />
            <path fill="#FFFFFF" d="M26.44,107.435h2.232c0.67,0,3.021,0,3.021,2.229c0,1.619-1.233,2.063-2.17,2.183l2.472,4.078h-0.9
            l-2.387-4.029h-1.476v4.029h-0.793L26.44,107.435L26.44,107.435z M27.233,111.176h1.678c1.668,0,1.992-0.924,1.992-1.512
            s-0.324-1.511-1.992-1.511h-1.678V111.176z" />
            <path fill="#FFFFFF" d="M32.426,107.435h0.852l2.734,7.447l2.76-7.447h0.84l-3.227,8.49h-0.793L32.426,107.435z" />
            <path fill="#FFFFFF" d="M40.743,107.435h0.791v8.49h-0.791V107.435z" />
            <path fill="#FFFFFF" d="M50.854,114.594c-0.803,1.104-1.906,1.548-3.154,1.548c-2.59,0-4.389-1.871-4.389-4.463
            c0-2.59,1.799-4.461,4.389-4.461c1.152,0,2.184,0.385,2.928,1.331l-0.648,0.54c-0.525-0.792-1.428-1.15-2.277-1.15
            c-2.221,0-3.6,1.631-3.6,3.74c0,2.111,1.379,3.742,3.6,3.742c0.852,0,1.906-0.406,2.508-1.318L50.854,114.594z" />
            <path fill="#FFFFFF" d="M52.31,107.435h5.193v0.719h-4.4v3.022h4.125v0.72h-4.125v3.311h4.594v0.72H52.31V107.435L52.31,107.435z" />
            <path fill="#FFFFFF" d="M59.655,114.354c0.418,0.707,1.104,1.066,1.941,1.066c1.068,0,1.908-0.646,1.908-1.667
            c0-2.375-4.379-0.983-4.379-4.21c0-1.511,1.297-2.326,2.723-2.326c0.924,0,1.74,0.312,2.314,1.067l-0.686,0.491
            c-0.395-0.553-0.922-0.84-1.654-0.84c-1.02,0-1.904,0.527-1.904,1.606c0,2.556,4.377,1.021,4.377,4.21
            c0,1.535-1.26,2.387-2.641,2.387c-1.113,0-2.1-0.358-2.758-1.283L59.655,114.354z" />
        </g>
        <g>
            <g>
                <polygon class="shape" fill="#ACADA3" points="4.331,90.078 12.646,78.703 21.026,67.376 37.892,44.802 54.903,22.336 63.461,11.144 72.085,0 
                63.771,11.376 55.39,22.703 38.523,45.276 21.511,67.741 12.954,78.935            " />
                <circle class="shape" fill="#ACADA3" cx="38.21" cy="45.039" r="38.21" />
            </g>
            <linearGradient id="SVGID_1_" gradientUnits="userSpaceOnUse" x1="-307.1333" y1="10.8496" x2="-287.5789" y2="19.8549" gradientTransform="matrix(0.7071 -0.7071 -0.7352 -0.7352 243.2528 -130.7394)">
                <stop offset="0" style="stop-color:#000000;stop-opacity:0" />
                <stop offset="1" style="stop-color:#000000;stop-opacity:0.22" />
            </linearGradient>
            <path fill="url(#SVGID_1_)" d="M46.867,53.748H29.441V36.323L3.889,61.876c3.747,7.598,9.94,13.771,17.555,17.484L46.867,53.748z" />
            <g>
                <g>
                    <path fill="#FFFFFF" d="M29.479,40.675h4.366v-4.367h-4.366V40.675z M36.025,40.675h4.367v-4.367h-4.367V40.675z M42.577,36.308
                    v4.367h4.364v-4.367H42.577z M29.479,47.224h4.366v-4.367h-4.366V47.224z M36.025,47.224h4.367v-4.367h-4.367V47.224z
                     M42.577,47.224h4.364v-4.367h-4.364V47.224z M29.479,53.772h4.366v-4.367h-4.366V53.772z M36.025,53.772h4.367v-4.367h-4.367
                    V53.772z M42.577,53.772h4.364v-4.367h-4.364V53.772z" />
                </g>
            </g>
        </g>
    </g>
</svg>
