<svg version="1.1" id="Layer_1" xmlns="http://www.w3.org/2000/svg" xmlns:xlink="http://www.w3.org/1999/xlink" x="0px" y="0px" width="76.42px" height="115.925px" viewBox="0 0 76.42 115.925" enable-background="new 0 0 76.42 115.925" xml:space="preserve">
    <g>
        <g class="letters" opacity="0.8">
            <path fill="#FFFFFF" d="M21.154,100.192c-0.804,1.104-1.906,1.548-3.154,1.548c-2.59,0-4.389-1.871-4.389-4.462
            c0-2.59,1.799-4.461,4.389-4.461c1.152,0,2.185,0.384,2.929,1.33l-0.648,0.541c-0.527-0.793-1.428-1.151-2.279-1.151
            c-2.219,0-3.598,1.631-3.598,3.741c0,2.111,1.379,3.742,3.598,3.742c0.852,0,1.908-0.408,2.508-1.319L21.154,100.192z" />
            <path fill="#FFFFFF" d="M28.644,98.274c0,1.811-0.78,3.466-3.096,3.466c-2.314,0-3.094-1.655-3.094-3.466v-5.241h0.791v5.036
            c0,1.212,0.324,2.951,2.303,2.951c1.98,0,2.303-1.739,2.303-2.951v-5.036h0.793V98.274z" />
            <path fill="#FFFFFF" d="M31.048,99.953c0.42,0.708,1.104,1.067,1.942,1.067c1.065,0,1.905-0.647,1.905-1.668
            c0-2.375-4.377-0.982-4.377-4.209c0-1.512,1.295-2.326,2.724-2.326c0.924,0,1.737,0.312,2.313,1.066l-0.684,0.491
            c-0.396-0.552-0.924-0.839-1.654-0.839c-1.02,0-1.908,0.527-1.908,1.605c0,2.556,4.377,1.021,4.377,4.211
            c0,1.535-1.258,2.387-2.637,2.387c-1.117,0-2.1-0.359-2.76-1.283L31.048,99.953z" />
            <path fill="#FFFFFF" d="M39.373,93.753h-2.901v-0.72h6.598v0.72h-2.902v7.771h-0.793L39.373,93.753L39.373,93.753z" />
            <path fill="#FFFFFF" d="M48.218,92.817c2.59,0,4.389,1.871,4.389,4.461c0,2.591-1.799,4.462-4.389,4.462s-4.392-1.871-4.392-4.462
            C43.826,94.688,45.627,92.817,48.218,92.817z M48.218,101.021c2.219,0,3.598-1.631,3.598-3.742c0-2.109-1.379-3.74-3.598-3.74
            c-2.22,0-3.599,1.631-3.599,3.74C44.619,99.39,45.998,101.021,48.218,101.021z" />
            <path fill="#FFFFFF" d="M54.304,93.033h1.188l3.094,7.124l3.094-7.124h1.129v8.491h-0.793v-7.483h-0.022l-3.237,7.483h-0.349
            l-3.287-7.483h-0.022v7.483h-0.791v-8.491H54.304z" />
            <path fill="#FFFFFF" d="M7.664,114.354c0.42,0.707,1.104,1.066,1.943,1.066c1.066,0,1.906-0.646,1.906-1.667
            c0-2.375-4.377-0.983-4.377-4.21c0-1.511,1.295-2.326,2.723-2.326c0.924,0,1.738,0.312,2.314,1.067l-0.684,0.491
            c-0.396-0.553-0.925-0.84-1.655-0.84c-1.02,0-1.908,0.527-1.908,1.606c0,2.556,4.377,1.021,4.377,4.21
            c0,1.535-1.258,2.387-2.637,2.387c-1.117,0-2.1-0.358-2.76-1.283L7.664,114.354z" />
            <path fill="#FFFFFF" d="M17.947,107.218c2.592,0,4.391,1.871,4.391,4.461c0,2.592-1.799,4.463-4.391,4.463
            c-2.591,0-4.39-1.871-4.39-4.463C13.557,109.089,15.356,107.218,17.947,107.218z M17.947,115.421c2.219,0,3.6-1.631,3.6-3.742
            c0-2.109-1.381-3.74-3.6-3.74c-2.22,0-3.599,1.631-3.599,3.74C14.348,113.79,15.727,115.421,17.947,115.421z" />
            <path fill="#FFFFFF" d="M24.117,107.435h5.086v0.719H24.91v3.022h3.991v0.72H24.91v4.029h-0.793V107.435z" />
            <path fill="#FFFFFF" d="M32.669,108.153h-2.901v-0.721h6.599v0.721h-2.902v7.771h-0.795V108.153z" />
            <path fill="#FFFFFF" d="M36.574,107.435h0.815l2.11,7.52h0.023l2.146-7.52h1.008l2.146,7.52h0.023l2.109-7.52h0.816l-2.471,8.49
            h-0.973l-2.146-7.556h-0.023l-2.145,7.556H39.04L36.574,107.435z" />
            <path fill="#FFFFFF" d="M51.394,107.435h0.812l3.574,8.49h-0.887l-0.924-2.255h-4.498l-0.959,2.255h-0.828L51.394,107.435z
             M51.765,108.297l-1.98,4.653h3.898L51.765,108.297z" />
            <path fill="#FFFFFF" d="M57.011,107.435h2.23c0.67,0,3.021,0,3.021,2.229c0,1.619-1.236,2.063-2.17,2.183l2.469,4.078h-0.898
            l-2.387-4.029h-1.475v4.029h-0.793v-8.49H57.011z M57.804,111.176h1.678c1.668,0,1.992-0.924,1.992-1.512
            s-0.324-1.511-1.992-1.511h-1.678V111.176z" />
            <path fill="#FFFFFF" d="M64.124,107.435h5.193v0.719h-4.4v3.022h4.125v0.72h-4.125v3.311h4.596v0.72h-5.389V107.435z" />
        </g>
        <g>
            <g>
                <polygon class="shape" fill="#ACADA3" points="4.331,90.078 12.646,78.703 21.026,67.376 37.892,44.802 54.903,22.336 63.461,11.144 72.085,0 
                63.771,11.376 55.39,22.703 38.523,45.276 21.511,67.741 12.954,78.935            " />
                <circle class="shape" fill="#ACADA3" cx="38.21" cy="45.039" r="38.21" />
            </g>

            <linearGradient id="SVGID_1_" gradientUnits="userSpaceOnUse" x1="-307.1333" y1="10.8496" x2="-287.5789" y2="19.8549" gradientTransform="matrix(0.7071 -0.7071 -0.7352 -0.7352 243.2528 -130.7394)">
                <stop offset="0" style="stop-color:#000000;stop-opacity:0" />
                <stop offset="1" style="stop-color:#000000;stop-opacity:0.22" />
            </linearGradient>
            <path fill="url(#SVGID_1_)" d="M46.867,53.748H29.441V36.323L3.889,61.876c3.747,7.598,9.94,13.771,17.555,17.484L46.867,53.748z" />
            <path fill="#FFFFFF" d="M48.226,47.491h-1.264c-0.204,0.74-0.501,1.445-0.876,2.103l1.167,1.167c0.748,0.743,0.748,1.957,0,2.704
            l-0.676,0.679c-0.75,0.744-1.961,0.744-2.707,0l-1.177-1.176c-0.649,0.368-1.353,0.66-2.091,0.859v1.227
            c0,1.059-0.856,1.913-1.914,1.913H37.73c-1.056,0-1.915-0.854-1.915-1.913v-1.227c-0.735-0.199-1.438-0.491-2.091-0.859
            l-1.175,1.176c-0.745,0.744-1.957,0.744-2.705,0l-0.679-0.679c-0.747-0.748-0.747-1.961,0-2.704l1.168-1.167
            c-0.374-0.657-0.671-1.36-0.877-2.103h-1.262c-1.058,0-1.912-0.859-1.912-1.912V44.62c0-1.056,0.854-1.915,1.912-1.915h1.246
            c0.2-0.734,0.484-1.436,0.852-2.084l-1.127-1.123c-0.747-0.746-0.747-1.958,0-2.704l0.679-0.676c0.748-0.75,1.96-0.75,2.705,0
            l1.098,1.098c0.679-0.387,1.404-0.695,2.168-0.903v-1.287c0-1.056,0.859-1.91,1.915-1.91h0.958c1.058,0,1.914,0.854,1.914,1.91
            v1.287c0.768,0.208,1.493,0.517,2.165,0.903l1.103-1.098c0.746-0.75,1.957-0.75,2.707,0l0.676,0.676
            c0.748,0.746,0.748,1.958,0,2.704l-1.125,1.123c0.368,0.648,0.653,1.35,0.85,2.084h1.248c1.057,0,1.91,0.859,1.91,1.915v0.959
            C50.136,46.632,49.28,47.491,48.226,47.491z M38.21,39.866c-2.902,0-5.261,2.355-5.261,5.265c0,2.901,2.357,5.259,5.261,5.259
            c2.905,0,5.263-2.357,5.263-5.259C43.473,42.221,41.115,39.866,38.21,39.866z M38.21,47.461c-1.318,0-2.395-1.069-2.395-2.392
            c0-1.32,1.075-2.392,2.395-2.392c1.32,0,2.394,1.072,2.394,2.392C40.604,46.392,39.53,47.461,38.21,47.461z" />
        </g>
    </g>
</svg>
