<svg version="1.1" id="Layer_1" xmlns="http://www.w3.org/2000/svg" xmlns:xlink="http://www.w3.org/1999/xlink" x="0px" y="0px"
	 width="176.79px" height="90.08px" viewBox="0 0 176.79 90.08" xml:space="preserve">
     <g>
	     <g>
             <polygon class="shape" fill="#ACADA3" points="4.331,90.078 12.646,78.703 21.027,67.376 37.892,44.802 54.904,22.336 63.461,11.144 72.085,0
                 63.771,11.376 55.39,22.703 38.524,45.276 21.511,67.741 12.954,78.934 	"/>
             <circle class="shape" fill="#ACADA3" cx="38.21" cy="45.039" r="38.21"/>
         </g>
         <g class="letters" opacity="0.8">
             <g>
                 <path fill="#ffffff" d="M85.567,33.033h5.193v0.72h-4.402v3.022h4.127v0.719h-4.127v3.311h4.594v0.72h-5.385V33.033z"/>
                 <path fill="#ffffff" d="M92.575,33.033h2.627c4.414,0,4.594,3.622,4.594,4.245c0,0.624-0.18,4.246-4.594,4.246h-2.627V33.033z
                      M93.366,40.805h1.633c2.254,0,4.006-1.091,4.006-3.526c0-2.435-1.752-3.525-4.006-3.525h-1.633V40.805z"/>
                 <path fill="#ffffff" d="M107.608,38.274c0,1.811-0.781,3.466-3.096,3.466s-3.094-1.655-3.094-3.466v-5.241h0.791v5.037
                     c0,1.211,0.324,2.95,2.303,2.95c1.98,0,2.303-1.739,2.303-2.95v-5.037h0.793V38.274z"/>
                 <path fill="#ffffff" d="M116.774,40.193c-0.803,1.104-1.906,1.547-3.154,1.547c-2.59,0-4.389-1.871-4.389-4.462
                     c0-2.59,1.799-4.461,4.389-4.461c1.152,0,2.184,0.384,2.928,1.331l-0.648,0.54c-0.527-0.792-1.428-1.151-2.279-1.151
                     c-2.219,0-3.598,1.631-3.598,3.741c0,2.111,1.379,3.742,3.598,3.742c0.852,0,1.908-0.407,2.508-1.319L116.774,40.193z"/>
                 <path fill="#ffffff" d="M120.833,33.033h0.816l3.574,8.491h-0.889l-0.922-2.255h-4.498l-0.959,2.255h-0.828L120.833,33.033z
                      M121.206,33.896l-1.979,4.653h3.896L121.206,33.896z"/>
                 <path fill="#ffffff" d="M127.518,33.753h-2.902v-0.72h6.598v0.72h-2.902v7.771h-0.793V33.753z"/>
                 <path fill="#ffffff" d="M132.524,33.033h0.791v8.491h-0.791V33.033z"/>
                 <path fill="#ffffff" d="M139.481,32.817c2.592,0,4.391,1.871,4.391,4.461c0,2.591-1.799,4.462-4.391,4.462
                     c-2.59,0-4.389-1.871-4.389-4.462C135.092,34.688,136.891,32.817,139.481,32.817z M139.481,41.021c2.219,0,3.6-1.631,3.6-3.742
                     c0-2.11-1.381-3.741-3.6-3.741s-3.598,1.631-3.598,3.741C135.883,39.39,137.262,41.021,139.481,41.021z"/>
                 <path fill="#ffffff" d="M145.651,33.033h1.02l5.17,7.436h0.023v-7.436h0.793v8.491h-1.02l-5.17-7.436h-0.023v7.436h-0.793V33.033z
                     "/>
                 <path fill="#ffffff" d="M157.59,33.033h0.814l3.574,8.491h-0.887l-0.924-2.255h-4.498l-0.959,2.255h-0.828L157.59,33.033z
                      M157.961,33.896l-1.979,4.653h3.898L157.961,33.896z"/>
                 <path fill="#ffffff" d="M163.208,33.033h0.791v7.771h3.959v0.72h-4.75V33.033z"/>
                 <path fill="#ffffff" d="M85.567,47.434h2.447c1.199,0,2.734,0.468,2.734,2.242c0,1.535-1.225,2.219-2.555,2.219h-1.836v4.03
                     h-0.791V47.434z M86.358,51.176h1.799c0.9,0,1.799-0.384,1.799-1.5c0-1.091-0.936-1.522-1.846-1.522h-1.752V51.176z"/>
                 <path fill="#ffffff" d="M98.487,52.675c0,1.811-0.779,3.466-3.094,3.466s-3.094-1.655-3.094-3.466v-5.241h0.791v5.037
                     c0,1.211,0.324,2.95,2.303,2.95s2.303-1.739,2.303-2.95v-5.037h0.791V52.675z"/>
                 <path fill="#ffffff" d="M100.663,47.434h2.447c1.295,0,2.734,0.323,2.734,2.242c0,0.864-0.516,1.56-1.523,1.764v0.023
                     c1.115,0.084,1.895,0.899,1.895,2.087c0,1.955-1.691,2.375-2.842,2.375h-2.711V47.434z M101.454,51.104h1.643
                     c1.645,0,1.955-0.899,1.955-1.428c0-1.187-0.838-1.522-1.846-1.522h-1.752V51.104z M101.454,55.205h1.811
                     c1.859,0,2.16-1.031,2.16-1.631c0-1.26-1.031-1.751-2.039-1.751h-1.932V55.205z"/>
                 <path fill="#ffffff" d="M108.221,47.434h0.793v7.771h3.957v0.72h-4.75V47.434z"/>
                 <path fill="#ffffff" d="M114.221,47.434h0.793v8.491h-0.793V47.434z"/>
                 <path fill="#ffffff" d="M117.571,54.354c0.418,0.708,1.104,1.067,1.941,1.067c1.068,0,1.908-0.647,1.908-1.667
                     c0-2.375-4.379-0.983-4.379-4.21c0-1.511,1.297-2.326,2.723-2.326c0.924,0,1.74,0.312,2.314,1.067l-0.684,0.491
                     c-0.395-0.552-0.922-0.839-1.654-0.839c-1.02,0-1.906,0.527-1.906,1.606c0,2.555,4.377,1.02,4.377,4.21
                     c0,1.535-1.26,2.387-2.639,2.387c-1.115,0-2.1-0.359-2.758-1.283L117.571,54.354z"/>
                 <path fill="#ffffff" d="M124.014,47.434h0.791v3.742h4.75v-3.742h0.791v8.491h-0.791v-4.03h-4.75v4.03h-0.791V47.434z"/>
                 <path fill="#ffffff" d="M132.678,47.434h0.791v8.491h-0.791V47.434z"/>
                 <path fill="#ffffff" d="M135.797,47.434h1.02l5.17,7.436h0.023v-7.436h0.793v8.491h-1.02l-5.17-7.436h-0.023v7.436h-0.793V47.434z
                     "/>
                 <path fill="#ffffff" d="M152.139,55.373c-0.984,0.563-2.064,0.768-3.168,0.768c-2.59,0-4.389-1.871-4.389-4.462
                     c0-2.59,1.799-4.461,4.389-4.461c1.26,0,2.279,0.384,3.059,1.175l-0.574,0.6c-0.518-0.623-1.561-1.055-2.484-1.055
                     c-2.219,0-3.598,1.631-3.598,3.741c0,2.111,1.379,3.742,3.598,3.742c0.912,0,1.729-0.12,2.375-0.504v-2.854h-2.039v-0.719h2.832
                     V55.373z"/>
             </g>
         </g>
        <linearGradient id="SVGID_1_" gradientUnits="userSpaceOnUse" x1="4.2681" y1="44.6943" x2="23.8225" y2="35.689" gradientTransform="matrix(0.7071 -0.7071 0.7352 0.7352 -17.7776 48.6144)">
            <stop  offset="0" style="stop-color:#000000;stop-opacity:0"/>
            <stop  offset="1" style="stop-color:#000000;stop-opacity:0.22"/>
        </linearGradient>
        <path fill="url(#SVGID_1_)" d="M46.867,53.748H29.442V36.323L3.889,61.876c3.747,7.597,9.94,13.771,17.555,17.485L46.867,53.748z"/>
         <g>
             <g>
                 <path fill-rule="evenodd" clip-rule="evenodd" fill="#FFFFFF" d="M35.766,47l-0.596,1.527l1.502-0.621L35.766,47z M49.713,34.462
                     l-0.559-0.56c-0.617-0.617-1.619-0.617-2.236,0l-3.173,3.174l2.724,2.726l-0.561,0.561l-2.725-2.725l-6.175,6.176l-0.928,2.38
                     l1.385,1.385l2.34-0.968l9.908-9.909C50.333,36.082,50.333,35.08,49.713,34.462z M44.542,52.192l-13.471,0.006l0.004-13.47
                     l9.429-0.003l1.477-1.565H30.27c-0.438,0-0.791,0.354-0.791,0.791v15.03c0,0.436,0.354,0.791,0.791,0.791h15.029
                     c0.438,0,0.793-0.355,0.793-0.791V41.86l-1.596,1.563L44.542,52.192z"/>
             </g>
         </g>
     </g>
</svg>