<svg version="1.1" id="Layer_1" xmlns="http://www.w3.org/2000/svg" xmlns:xlink="http://www.w3.org/1999/xlink" x="0px" y="0px"
	 width="90.417px" height="98.188px" viewBox="0 0 90.417 98.188" enable-background="new 0 0 90.417 98.188" xml:space="preserve">
    <g>
        <circle fill="none" stroke="#FFFFFF" stroke-width="1.36" stroke-miterlimit="10" cx="45.237" cy="45.124" r="44.483"/>
    </g>
<g class="letters">
	<path fill="#FFFFFF" d="M45.238,0.639c-24.567,0-44.483,19.917-44.483,44.485c0,24.566,19.916,44.481,44.483,44.481
		c24.568,0,44.482-19.915,44.482-44.481C89.72,20.556,69.806,0.639,45.238,0.639z M30.908,48.893h-5.515v-8.697h5.319v0.737h-4.508
		v3.095h4.226v0.737h-4.226v3.391h4.705V48.893z M35.043,46.313H32.01V45.65h3.034V46.313z M39.046,49.114
		c-1.142,0-2.149-0.369-2.825-1.314l0.774-0.516c0.43,0.725,1.13,1.093,1.99,1.093c1.093,0,1.953-0.663,1.953-1.707
		c0-2.432-4.483-1.007-4.483-4.312c0-1.548,1.327-2.383,2.789-2.383c0.946,0,1.781,0.319,2.371,1.093l-0.7,0.504
		c-0.405-0.565-0.946-0.86-1.695-0.86c-1.044,0-1.953,0.541-1.953,1.646c0,2.616,4.483,1.044,4.483,4.312
		C41.749,48.242,40.458,49.114,39.046,49.114z M46.167,48.893h-2.69v-8.697h2.69c4.52,0,4.705,3.71,4.705,4.349
		S50.687,48.893,46.167,48.893z M57.549,48.893h-4.864v-8.697h0.811v7.96h4.054V48.893z M62.754,49.114
		c-2.653,0-4.495-1.917-4.495-4.569c0-2.653,1.842-4.569,4.495-4.569c1.179,0,2.235,0.393,2.997,1.363l-0.663,0.553
		c-0.54-0.811-1.462-1.179-2.334-1.179c-2.272,0-3.685,1.67-3.685,3.833c0,2.162,1.412,3.832,3.685,3.832
		c0.872,0,1.953-0.417,2.567-1.351l0.663,0.504C65.162,48.659,64.032,49.114,62.754,49.114z"/>
	<path fill="#FFFFFF" d="M45.958,40.933h-1.67v7.223h1.67c2.31,0,4.103-1.118,4.103-3.611
		C50.061,42.051,48.268,40.933,45.958,40.933z"/>
</g>
<g class="shape" opacity="0">
	<polygon fill="none" points="26.203,44.765 30.429,44.765 30.429,44.028 26.203,44.028 26.203,40.933 30.711,40.933 30.711,40.196 
		25.393,40.196 25.393,48.893 30.908,48.893 30.908,48.156 26.203,48.156 	"/>
	<rect x="32.01" y="45.65" fill="none" width="3.034" height="0.663"/>
	<path fill="none" d="M37.265,42.358c0-1.105,0.909-1.646,1.953-1.646c0.75,0,1.29,0.295,1.695,0.86l0.7-0.504
		c-0.59-0.773-1.425-1.093-2.371-1.093c-1.462,0-2.789,0.835-2.789,2.383c0,3.304,4.483,1.879,4.483,4.312
		c0,1.044-0.86,1.707-1.953,1.707c-0.86,0-1.56-0.368-1.99-1.093l-0.774,0.516c0.676,0.946,1.683,1.314,2.825,1.314
		c1.413,0,2.703-0.872,2.703-2.444C41.749,43.402,37.265,44.974,37.265,42.358z"/>
	<path fill="none" d="M46.167,40.196h-2.69v8.697h2.69c4.52,0,4.705-3.709,4.705-4.348S50.687,40.196,46.167,40.196z M45.958,48.156
		h-1.67v-7.223h1.67c2.31,0,4.103,1.118,4.103,3.611C50.061,47.038,48.268,48.156,45.958,48.156z"/>
	<polygon fill="none" points="53.496,40.196 52.685,40.196 52.685,48.893 57.549,48.893 57.549,48.156 53.496,48.156 	"/>
	<path fill="none" d="M62.754,48.376c-2.272,0-3.685-1.67-3.685-3.832c0-2.162,1.412-3.833,3.685-3.833
		c0.872,0,1.794,0.369,2.334,1.179l0.663-0.553c-0.762-0.97-1.818-1.363-2.997-1.363c-2.653,0-4.495,1.916-4.495,4.569
		c0,2.653,1.842,4.569,4.495,4.569c1.277,0,2.407-0.455,3.23-1.584l-0.663-0.504C64.708,47.959,63.626,48.376,62.754,48.376z"/>
</g>
</svg>