<svg version="1.1" xmlns="http://www.w3.org/2000/svg" x="0px" y="0px" xml:space="preserve" width="98.082" height="90.062" viewBox="0 0 90.062 98.082">
    <g>
        <g class="circle">
            <circle stroke="#ffffff" fill-opacity="0" stroke-miterlimit="10" cx="45.062" cy="45.018" r="44.483"/>
            <polygon fill="#FFFFFF" opacity="0.65" points="18.135,80.479 15.006,84.707 5.229,98.082 15.367,84.979 18.581,80.775 	"/>
        </g>
        <g class="shape" opacity="0.15">
            <path fill="#FFFFFF" d="M45.062,0.534c-24.567,0-44.482,19.917-44.482,44.485c0,24.566,19.915,44.481,44.482,44.481
                c24.568,0,44.484-19.915,44.484-44.481C89.546,20.45,69.63,0.534,45.062,0.534z M9.582,49.008c-2.653,0-4.496-1.917-4.496-4.569
                c0-2.653,1.843-4.569,4.496-4.569c1.18,0,2.235,0.393,2.997,1.363l-0.663,0.553c-0.541-0.811-1.462-1.179-2.334-1.179
                c-2.272,0-3.685,1.67-3.685,3.833c0,2.162,1.412,3.832,3.685,3.832c0.872,0,1.953-0.417,2.567-1.351l0.663,0.504
                C11.989,48.554,10.859,49.008,9.582,49.008z M18.226,49.008c-2.653,0-4.496-1.917-4.496-4.569c0-2.653,1.843-4.569,4.496-4.569
                s4.496,1.916,4.496,4.569C22.722,47.092,20.879,49.008,18.226,49.008z M31.708,48.787h-1.044l-5.295-7.616h-0.024v7.616h-0.811
                V40.09h1.044l5.294,7.616h0.025V40.09h0.811V48.787z M36.371,49.008c-1.143,0-2.15-0.369-2.825-1.314l0.773-0.516
                c0.43,0.725,1.13,1.093,1.99,1.093c1.093,0,1.953-0.663,1.953-1.707c0-2.432-4.483-1.007-4.483-4.312
                c0-1.548,1.326-2.383,2.788-2.383c0.945,0,1.781,0.319,2.37,1.093l-0.7,0.504c-0.405-0.565-0.945-0.86-1.694-0.86
                c-1.044,0-1.953,0.541-1.953,1.646c0,2.616,4.483,1.044,4.483,4.312C39.073,48.136,37.783,49.008,36.371,49.008z M47.091,45.458
                c0,1.854-0.799,3.55-3.169,3.55c-2.371,0-3.169-1.695-3.169-3.55V40.09h0.811v5.159c0,1.241,0.331,3.021,2.358,3.021
                c2.026,0,2.358-1.781,2.358-3.021V40.09h0.811V45.458z M54.174,48.787H49.31V40.09h0.811v7.96h4.054V48.787z M60.033,40.828h-2.973
                v7.959H56.25v-7.959h-2.973V40.09h6.756V40.828z M62.18,48.787h-0.811V40.09h0.811V48.787z M71.734,48.787H70.69l-5.295-7.616
                h-0.024v7.616h-0.811V40.09h1.044l5.294,7.616h0.025V40.09h0.811V48.787z M78.043,49.008c-2.653,0-4.496-1.917-4.496-4.569
                c0-2.653,1.843-4.569,4.496-4.569c1.29,0,2.334,0.393,3.132,1.204l-0.589,0.614c-0.528-0.639-1.597-1.081-2.543-1.081
                c-2.272,0-3.685,1.67-3.685,3.833c0,2.162,1.412,3.832,3.685,3.832c0.934,0,1.769-0.123,2.433-0.516v-2.923h-2.089v-0.737h2.899
                v4.127C80.278,48.799,79.173,49.008,78.043,49.008z"/>
            <path fill="#FFFFFF" d="M18.226,40.606c-2.272,0-3.685,1.67-3.685,3.833c0,2.162,1.412,3.832,3.685,3.832s3.686-1.67,3.686-3.832
                C21.911,42.277,20.498,40.606,18.226,40.606z"/>
        </g>
        <g class="letters" opacity="1">
            <path fill="#FFFFFF" d="M9.582,48.271c-2.272,0-3.685-1.67-3.685-3.832c0-2.162,1.412-3.833,3.685-3.833
                c0.872,0,1.793,0.369,2.334,1.179l0.663-0.553c-0.762-0.97-1.817-1.363-2.997-1.363c-2.653,0-4.496,1.916-4.496,4.569
                c0,2.653,1.843,4.569,4.496,4.569c1.277,0,2.407-0.455,3.23-1.584l-0.663-0.504C11.535,47.854,10.454,48.271,9.582,48.271z"/>
            <path fill="#FFFFFF" d="M18.226,39.87c-2.653,0-4.496,1.916-4.496,4.569c0,2.653,1.843,4.569,4.496,4.569s4.496-1.917,4.496-4.569
                C22.722,41.786,20.879,39.87,18.226,39.87z M18.226,48.271c-2.272,0-3.685-1.67-3.685-3.832c0-2.162,1.412-3.833,3.685-3.833
                s3.686,1.67,3.686,3.833C21.911,46.601,20.498,48.271,18.226,48.271z"/>
            <polygon fill="#FFFFFF" points="30.897,47.706 30.872,47.706 25.578,40.09 24.534,40.09 24.534,48.787 25.345,48.787
                25.345,41.171 25.369,41.171 30.664,48.787 31.708,48.787 31.708,40.09 30.897,40.09 	"/>
            <path fill="#FFFFFF" d="M34.59,42.252c0-1.105,0.909-1.646,1.953-1.646c0.749,0,1.289,0.295,1.694,0.86l0.7-0.504
                c-0.589-0.773-1.425-1.093-2.37-1.093c-1.462,0-2.788,0.835-2.788,2.383c0,3.304,4.483,1.879,4.483,4.312
                c0,1.044-0.86,1.707-1.953,1.707c-0.86,0-1.561-0.368-1.99-1.093l-0.773,0.516c0.675,0.946,1.683,1.314,2.825,1.314
                c1.412,0,2.702-0.872,2.702-2.444C39.073,43.296,34.59,44.869,34.59,42.252z"/>
            <path fill="#FFFFFF" d="M46.28,45.25c0,1.241-0.332,3.021-2.358,3.021c-2.027,0-2.358-1.781-2.358-3.021V40.09h-0.811v5.368
                c0,1.854,0.798,3.55,3.169,3.55c2.37,0,3.169-1.695,3.169-3.55V40.09H46.28V45.25z"/>
            <polygon fill="#FFFFFF" points="50.12,40.09 49.31,40.09 49.31,48.787 54.174,48.787 54.174,48.05 50.12,48.05 	"/>
            <polygon fill="#FFFFFF" points="53.277,40.828 56.25,40.828 56.25,48.787 57.061,48.787 57.061,40.828 60.033,40.828 60.033,40.09
                53.277,40.09 	"/>
            <rect x="61.369" y="40.09" fill="#FFFFFF" width="0.811" height="8.697"/>
            <polygon fill="#FFFFFF" points="70.924,47.706 70.898,47.706 65.604,40.09 64.561,40.09 64.561,48.787 65.371,48.787
                65.371,41.171 65.396,41.171 70.69,48.787 71.734,48.787 71.734,40.09 70.924,40.09 	"/>
            <path fill="#FFFFFF" d="M78.387,44.095v0.737h2.089v2.923c-0.664,0.393-1.499,0.516-2.433,0.516c-2.272,0-3.685-1.67-3.685-3.832
                c0-2.162,1.412-3.833,3.685-3.833c0.946,0,2.015,0.442,2.543,1.081l0.589-0.614c-0.798-0.811-1.842-1.204-3.132-1.204
                c-2.653,0-4.496,1.916-4.496,4.569c0,2.653,1.843,4.569,4.496,4.569c1.13,0,2.235-0.209,3.243-0.786v-4.127H78.387z"/>
        </g>
    </g>
</svg>