<svg version="1.1" id="Layer_1" xmlns="http://www.w3.org/2000/svg" xmlns:xlink="http://www.w3.org/1999/xlink" x="0px" y="0px"
	 width="176.79px" height="90.08px" viewBox="0 0 176.79 90.08" xml:space="preserve">
     <g>
	     <g>
             <polygon class="shape" fill="#ACADA3" points="4.331,90.078 12.646,78.703 21.027,67.376 37.892,44.802 54.904,22.336 63.461,11.144 72.085,0
                 63.771,11.376 55.39,22.703 38.524,45.276 21.511,67.741 12.954,78.934 	"/>
             <circle class="shape" fill="#ACADA3" cx="38.21" cy="45.039" r="38.21"/>
         </g>
         <g class="letters" opacity="0.8">
            <g>
                <path fill="#ffffff" d="M85.567,33.033h5.086v0.72h-4.295v3.022h3.994v0.719h-3.994v4.03h-0.791V33.033z"/>
                <path fill="#ffffff" d="M92.239,33.033h5.193v0.72H93.03v3.022h4.127v0.719H93.03v3.311h4.594v0.72h-5.385V33.033z"/>
                <path fill="#ffffff" d="M101.958,33.033h0.814l3.574,8.491h-0.887l-0.924-2.255h-4.498l-0.959,2.255H98.25L101.958,33.033z
                     M102.329,33.896l-1.979,4.653h3.898L102.329,33.896z"/>
                <path fill="#ffffff" d="M108.643,33.753h-2.902v-0.72h6.596v0.72h-2.902v7.771h-0.791V33.753z"/>
                <path fill="#ffffff" d="M119.68,38.274c0,1.811-0.779,3.466-3.094,3.466s-3.094-1.655-3.094-3.466v-5.241h0.791v5.037
                    c0,1.211,0.324,2.95,2.303,2.95s2.303-1.739,2.303-2.95v-5.037h0.791V38.274z"/>
                <path fill="#ffffff" d="M121.856,33.033h2.23c0.672,0,3.021,0,3.021,2.23c0,1.619-1.234,2.063-2.17,2.183l2.471,4.078h-0.9
                    l-2.387-4.03h-1.475v4.03h-0.791V33.033z M122.647,36.775h1.68c1.666,0,1.99-0.924,1.99-1.512s-0.324-1.511-1.99-1.511h-1.68
                    V36.775z"/>
                <path fill="#ffffff" d="M128.971,33.033h5.193v0.72h-4.4v3.022h4.125v0.719h-4.125v3.311h4.594v0.72h-5.387V33.033z"/>
                <path fill="#ffffff" d="M135.979,33.033h2.627c4.414,0,4.594,3.622,4.594,4.245c0,0.624-0.18,4.246-4.594,4.246h-2.627V33.033z
                     M136.77,40.805h1.633c2.254,0,4.006-1.091,4.006-3.526c0-2.435-1.752-3.525-4.006-3.525h-1.633V40.805z"/>
                <path fill="#ffffff" d="M85.795,54.354c0.418,0.708,1.104,1.067,1.941,1.067c1.068,0,1.908-0.647,1.908-1.667
                    c0-2.375-4.379-0.983-4.379-4.21c0-1.511,1.297-2.326,2.723-2.326c0.924,0,1.74,0.312,2.314,1.067l-0.684,0.491
                    c-0.395-0.552-0.922-0.839-1.654-0.839c-1.02,0-1.906,0.527-1.906,1.606c0,2.555,4.377,1.02,4.377,4.21
                    c0,1.535-1.26,2.387-2.639,2.387c-1.115,0-2.1-0.359-2.758-1.283L85.795,54.354z"/>
                <path fill="#ffffff" d="M92.239,47.434h5.193v0.72H93.03v3.022h4.127v0.719H93.03v3.311h4.594v0.72h-5.385V47.434z"/>
                <path fill="#ffffff" d="M99.354,47.434h2.232c0.67,0,3.021,0,3.021,2.23c0,1.619-1.234,2.063-2.17,2.183l2.471,4.078h-0.9
                    l-2.387-4.03h-1.475v4.03h-0.793V47.434z M100.147,51.176h1.678c1.668,0,1.992-0.924,1.992-1.512s-0.324-1.511-1.992-1.511h-1.678
                    V51.176z"/>
                <path fill="#ffffff" d="M105.34,47.434h0.852l2.734,7.448l2.76-7.448h0.84l-3.227,8.491h-0.793L105.34,47.434z"/>
                <path fill="#ffffff" d="M113.657,47.434h0.791v8.491h-0.791V47.434z"/>
                <path fill="#ffffff" d="M123.768,54.594c-0.803,1.104-1.906,1.547-3.154,1.547c-2.59,0-4.389-1.871-4.389-4.462
                    c0-2.59,1.799-4.461,4.389-4.461c1.152,0,2.184,0.384,2.928,1.331l-0.648,0.54c-0.527-0.792-1.428-1.151-2.279-1.151
                    c-2.219,0-3.598,1.631-3.598,3.741c0,2.111,1.379,3.742,3.598,3.742c0.852,0,1.908-0.407,2.508-1.319L123.768,54.594z"/>
                <path fill="#ffffff" d="M125.223,47.434h5.193v0.72h-4.4v3.022h4.125v0.719h-4.125v3.311h4.594v0.72h-5.387V47.434z"/>
                <path fill="#ffffff" d="M132.569,54.354c0.418,0.708,1.104,1.067,1.941,1.067c1.068,0,1.908-0.647,1.908-1.667
                    c0-2.375-4.379-0.983-4.379-4.21c0-1.511,1.297-2.326,2.723-2.326c0.924,0,1.74,0.312,2.314,1.067l-0.684,0.491
                    c-0.395-0.552-0.922-0.839-1.654-0.839c-1.02,0-1.906,0.527-1.906,1.606c0,2.555,4.377,1.02,4.377,4.21
                    c0,1.535-1.26,2.387-2.639,2.387c-1.115,0-2.1-0.359-2.758-1.283L132.569,54.354z"/>
            </g>
         </g>
    <linearGradient id="SVGID_1_" gradientUnits="userSpaceOnUse" x1="4.2681" y1="44.6943" x2="23.8225" y2="35.689" gradientTransform="matrix(0.7071 -0.7071 0.7352 0.7352 -17.7776 48.6144)">
        <stop  offset="0" style="stop-color:#000000;stop-opacity:0"/>
        <stop  offset="1" style="stop-color:#000000;stop-opacity:0.22"/>
    </linearGradient>
    <path fill="url(#SVGID_1_)" d="M46.867,53.748H29.442V36.323L3.889,61.876c3.747,7.597,9.94,13.771,17.555,17.485L46.867,53.748z"/>
         <g>
             <g>
                 <path fill-rule="evenodd" clip-rule="evenodd" fill="#FFFFFF" d="M29.479,40.675h4.366v-4.367h-4.366V40.675z M36.026,40.675
                     h4.367v-4.367h-4.367V40.675z M42.577,36.308v4.367h4.365v-4.367H42.577z M29.479,47.224h4.366v-4.367h-4.366V47.224z
                      M36.026,47.224h4.367v-4.367h-4.367V47.224z M42.577,47.224h4.365v-4.367h-4.365V47.224z M29.479,53.772h4.366v-4.367h-4.366
                     V53.772z M36.026,53.772h4.367v-4.367h-4.367V53.772z M42.577,53.772h4.365v-4.367h-4.365V53.772z"/>
             </g>
         </g>
     </g>
</svg>