<svg version="1.1" id="Layer_1" xmlns="http://www.w3.org/2000/svg" xmlns:xlink="http://www.w3.org/1999/xlink" x="0px" y="0px" width="82.391px" height="115.925px" viewBox="0 0 82.391 115.925" enable-background="new 0 0 82.391 115.925" xml:space="preserve">
    <g>
        <g class="letters" opacity="0.8">
            <path fill="#FFFFFF" d="M0,93.033h5.193v0.72H0.791v3.021h4.127v0.72H0.791v3.312h4.594v0.719H0V93.033z" />
            <path fill="#FFFFFF" d="M7.008,93.033h2.627c4.414,0,4.594,3.622,4.594,4.245s-0.18,4.246-4.594,4.246H7.008V93.033z
                 M7.799,100.806h1.633c2.254,0,4.006-1.092,4.006-3.527c0-2.435-1.752-3.524-4.006-3.524H7.799V100.806z" />
            <path fill="#FFFFFF" d="M22.041,98.274c0,1.811-0.781,3.466-3.096,3.466c-2.315,0-3.094-1.655-3.094-3.466v-5.241h0.791v5.036
                c0,1.212,0.324,2.951,2.303,2.951c1.98,0,2.303-1.739,2.303-2.951v-5.036h0.793V98.274z" />
            <path fill="#FFFFFF" d="M31.207,100.192c-0.803,1.104-1.906,1.548-3.154,1.548c-2.59,0-4.389-1.871-4.389-4.462
                c0-2.59,1.799-4.461,4.389-4.461c1.152,0,2.185,0.384,2.928,1.33l-0.647,0.541c-0.526-0.793-1.428-1.151-2.278-1.151
                c-2.22,0-3.599,1.631-3.599,3.741c0,2.111,1.379,3.742,3.599,3.742c0.852,0,1.907-0.408,2.508-1.319L31.207,100.192z" />
            <path fill="#FFFFFF" d="M35.266,93.033h0.816l3.574,8.491h-0.889l-0.922-2.256h-4.498l-0.959,2.256h-0.828L35.266,93.033z
                 M35.639,93.896l-1.979,4.653h3.896L35.639,93.896z" />
            <path fill="#FFFFFF" d="M41.951,93.753h-2.902v-0.72h6.598v0.72h-2.901v7.771h-0.793L41.951,93.753L41.951,93.753z" />
            <path fill="#FFFFFF" d="M46.957,93.033h0.791v8.491h-0.791V93.033z" />
            <path fill="#FFFFFF" d="M53.914,92.817c2.592,0,4.391,1.871,4.391,4.461c0,2.591-1.799,4.462-4.391,4.462
                c-2.59,0-4.389-1.871-4.389-4.462C49.525,94.688,51.324,92.817,53.914,92.817z M53.914,101.021c2.219,0,3.6-1.631,3.6-3.742
                c0-2.109-1.381-3.74-3.6-3.74s-3.598,1.631-3.598,3.74C50.316,99.39,51.695,101.021,53.914,101.021z" />
            <path fill="#FFFFFF" d="M60.084,93.033h1.02l5.17,7.436h0.023v-7.436h0.793v8.491h-1.02l-5.17-7.437h-0.023v7.437h-0.793V93.033z" />
            <path fill="#FFFFFF" d="M72.023,93.033h0.813l3.574,8.491h-0.888L74.6,99.269h-4.498l-0.959,2.256h-0.828L72.023,93.033z
                 M72.395,93.896l-1.979,4.653h3.897L72.395,93.896z" />
            <path fill="#FFFFFF" d="M77.641,93.033h0.791v7.771h3.959v0.721h-4.75V93.033z" />
            <path fill="#FFFFFF" d="M7.909,107.435h2.447c1.199,0,2.734,0.467,2.734,2.241c0,1.535-1.226,2.22-2.556,2.22H8.699v4.029H7.908
                L7.909,107.435L7.909,107.435z M8.7,111.176h1.799c0.9,0,1.799-0.384,1.799-1.5c0-1.091-0.936-1.522-1.846-1.522H8.7V111.176z" />
            <path fill="#FFFFFF" d="M20.829,112.675c0,1.811-0.779,3.467-3.094,3.467s-3.094-1.656-3.094-3.467v-5.24h0.791v5.037
                c0,1.211,0.324,2.949,2.303,2.949s2.303-1.738,2.303-2.949v-5.037h0.791V112.675z" />
            <path fill="#FFFFFF" d="M23.005,107.435h2.447c1.295,0,2.734,0.322,2.734,2.241c0,0.864-0.516,1.56-1.523,1.765v0.022
                c1.115,0.084,1.895,0.899,1.895,2.087c0,1.955-1.69,2.375-2.842,2.375h-2.711V107.435z M23.796,111.104h1.644
                c1.646,0,1.954-0.899,1.954-1.429c0-1.187-0.838-1.522-1.846-1.522h-1.752V111.104z M23.796,115.205h1.812
                c1.858,0,2.159-1.031,2.159-1.631c0-1.261-1.03-1.751-2.038-1.751h-1.933V115.205z" />
            <path fill="#FFFFFF" d="M30.563,107.435h0.793v7.771h3.957v0.72h-4.75V107.435z" />
            <path fill="#FFFFFF" d="M36.563,107.435h0.793v8.49h-0.793V107.435z" />
            <path fill="#FFFFFF" d="M39.913,114.354c0.418,0.707,1.104,1.066,1.941,1.066c1.068,0,1.908-0.646,1.908-1.667
                c0-2.375-4.379-0.983-4.379-4.21c0-1.511,1.297-2.326,2.723-2.326c0.924,0,1.74,0.312,2.314,1.067l-0.685,0.491
                c-0.396-0.553-0.922-0.84-1.653-0.84c-1.021,0-1.906,0.527-1.906,1.606c0,2.556,4.377,1.021,4.377,4.21
                c0,1.535-1.26,2.387-2.64,2.387c-1.114,0-2.1-0.358-2.758-1.283L39.913,114.354z" />
            <path fill="#FFFFFF" d="M46.356,107.435h0.791v3.741h4.75v-3.741h0.791v8.49h-0.791v-4.029h-4.75v4.029h-0.791V107.435z" />
            <path fill="#FFFFFF" d="M55.021,107.435h0.791v8.49h-0.791V107.435z" />
            <path fill="#FFFFFF" d="M58.14,107.435h1.02l5.17,7.436h0.023v-7.436h0.793v8.49h-1.02l-5.171-7.436h-0.022v7.436H58.14V107.435z" />
            <path fill="#FFFFFF" d="M74.481,115.373c-0.984,0.563-2.064,0.769-3.168,0.769c-2.59,0-4.389-1.871-4.389-4.463
                c0-2.59,1.799-4.461,4.389-4.461c1.26,0,2.279,0.385,3.059,1.176l-0.574,0.6c-0.518-0.623-1.561-1.055-2.483-1.055
                c-2.22,0-3.599,1.631-3.599,3.74c0,2.111,1.379,3.742,3.599,3.742c0.911,0,1.729-0.12,2.375-0.504v-2.854H71.65v-0.72h2.832
                L74.481,115.373L74.481,115.373z" />
        </g>
        <g>
            <g>
                <polygon class="shape" fill="#ACADA3" points="7.316,90.078 15.631,78.703 24.012,67.376 40.877,44.802 57.889,22.336 66.446,11.144 75.07,0 
                66.756,11.376 58.375,22.703 41.509,45.276 24.496,67.741 15.939,78.935           " />
                <circle class="shape" fill="#ACADA3" cx="41.195" cy="45.039" r="38.21" />
            </g>

            <linearGradient id="SVGID_1_" gradientUnits="userSpaceOnUse" x1="-305.0225" y1="8.8193" x2="-285.468" y2="17.8246" gradientTransform="matrix(0.7071 -0.7071 -0.7352 -0.7352 243.2528 -130.7394)">
                <stop offset="0" style="stop-color:#000000;stop-opacity:0" />
                <stop offset="1" style="stop-color:#000000;stop-opacity:0.22" />
            </linearGradient>
            <path fill="url(#SVGID_1_)" d="M49.853,53.748H32.427V36.323L6.874,61.876c3.747,7.598,9.94,13.771,17.555,17.484L49.853,53.748z" />
            <g>
                <g>
                    <path fill="#FFFFFF" d="M38.751,47l-0.596,1.526l1.502-0.62L38.751,47z M52.698,34.462l-0.56-0.56
                    c-0.616-0.617-1.618-0.617-2.235,0l-3.173,3.174l2.724,2.726l-0.561,0.561l-2.726-2.725l-6.175,6.176l-0.928,2.38l1.385,1.385
                    l2.34-0.969l9.908-9.908C53.318,36.082,53.318,35.08,52.698,34.462z M47.527,52.192l-13.472,0.006l0.005-13.47l9.429-0.003
                    l1.477-1.565H33.255c-0.438,0-0.791,0.354-0.791,0.791v15.03c0,0.436,0.354,0.791,0.791,0.791h15.029
                    c0.438,0,0.793-0.355,0.793-0.791V41.86l-1.596,1.563L47.527,52.192z" />
                </g>
            </g>
        </g>
    </g>
</svg>
