<svg version="1.1" xmlns="http://www.w3.org/2000/svg" x="0px" y="0px" xml:space="preserve" width="98.082" height="90.062" viewBox="0 0 90.062 98.082">
    <g>
        <g class="circle">
            <circle stroke="#ffffff" fill-opacity="0" stroke-miterlimit="10" cx="45.062" cy="45.018" r="44.483"/>
            <polygon fill="#FFFFFF" opacity="0.65" points="18.135,80.479 15.006,84.707 5.229,98.082 15.367,84.979 18.581,80.775 	"/>
        </g>
        <g class="shape" opacity="0.15">
            <polygon fill="#FFFFFF" points="8.379,45.741 12.371,45.741 10.406,40.975 	"/>
            <path fill="#FFFFFF" d="M45.062,0.533c-24.567,0-44.482,19.917-44.482,44.485c0,24.568,19.915,44.482,44.482,44.482
                c24.568,0,44.484-19.914,44.484-44.482C89.546,20.45,69.63,0.533,45.062,0.533z M13.612,48.787l-0.946-2.309H8.06l-0.982,2.309
                H6.229l3.795-8.697h0.835l3.66,8.697H13.612z M18.054,49.008c-1.142,0-2.149-0.369-2.825-1.314l0.774-0.516
                c0.43,0.725,1.13,1.093,1.99,1.093c1.093,0,1.953-0.663,1.953-1.707c0-2.432-4.483-1.007-4.483-4.312
                c0-1.548,1.327-2.383,2.789-2.383c0.946,0,1.781,0.319,2.371,1.093l-0.7,0.504c-0.405-0.565-0.946-0.86-1.695-0.86
                c-1.044,0-1.953,0.541-1.953,1.646c0,2.616,4.483,1.044,4.483,4.312C20.757,48.136,19.467,49.008,18.054,49.008z M24.88,49.008
                c-1.142,0-2.149-0.369-2.825-1.314l0.774-0.516c0.43,0.725,1.13,1.093,1.99,1.093c1.093,0,1.953-0.663,1.953-1.707
                c0-2.432-4.483-1.007-4.483-4.312c0-1.548,1.327-2.383,2.789-2.383c0.946,0,1.781,0.319,2.371,1.093l-0.7,0.504
                c-0.405-0.565-0.946-0.86-1.695-0.86c-1.044,0-1.953,0.541-1.953,1.646c0,2.616,4.483,1.044,4.483,4.312
                C27.583,48.136,26.293,49.008,24.88,49.008z M34.937,48.787h-5.515V40.09h5.319v0.737h-4.508v3.095h4.226v0.737h-4.226v3.391h4.705
                V48.787z M38.987,49.008c-1.142,0-2.149-0.369-2.825-1.314l0.774-0.516c0.43,0.725,1.13,1.093,1.99,1.093
                c1.093,0,1.953-0.663,1.953-1.707c0-2.432-4.483-1.007-4.483-4.312c0-1.548,1.327-2.383,2.789-2.383
                c0.946,0,1.781,0.319,2.371,1.093l-0.7,0.504c-0.405-0.565-0.946-0.86-1.695-0.86c-1.044,0-1.953,0.541-1.953,1.646
                c0,2.616,4.483,1.044,4.483,4.312C41.69,48.136,40.4,49.008,38.987,49.008z M45.813,49.008c-1.142,0-2.149-0.369-2.825-1.314
                l0.774-0.516c0.43,0.725,1.13,1.093,1.99,1.093c1.094,0,1.953-0.663,1.953-1.707c0-2.432-4.483-1.007-4.483-4.312
                c0-1.548,1.327-2.383,2.789-2.383c0.946,0,1.781,0.319,2.371,1.093l-0.7,0.504c-0.405-0.565-0.946-0.86-1.695-0.86
                c-1.044,0-1.953,0.541-1.953,1.646c0,2.616,4.483,1.044,4.483,4.312C48.516,48.136,47.227,49.008,45.813,49.008z M58.979,48.787
                h-0.811v-7.665h-0.025l-3.316,7.665h-0.355l-3.366-7.665H51.08v7.665H50.27V40.09h1.216l3.169,7.296l3.169-7.296h1.155V48.787z
                 M66.785,48.787H61.27V40.09h5.318v0.737H62.08v3.095h4.226v0.737H62.08v3.391h4.705V48.787z M75.723,48.787H74.68l-5.295-7.616
                H69.36v7.616H68.55V40.09h1.044l5.295,7.616h0.023V40.09h0.811V48.787z M80.842,40.828v7.959h-0.811v-7.959h-2.973V40.09h6.756
                v0.737H80.842z"/>
        </g>
        <g class="letters" opacity="1">
            <path fill="#FFFFFF" d="M10.025,40.09l-3.795,8.697h0.848l0.982-2.309h4.606l0.946,2.309h0.909l-3.66-8.697H10.025z M8.379,45.741
                l2.027-4.766l1.965,4.766H8.379z"/>
            <path fill="#FFFFFF" d="M16.273,42.252c0-1.105,0.909-1.646,1.953-1.646c0.75,0,1.29,0.295,1.695,0.86l0.7-0.504
                c-0.59-0.773-1.425-1.093-2.371-1.093c-1.462,0-2.789,0.835-2.789,2.383c0,3.304,4.483,1.879,4.483,4.312
                c0,1.044-0.86,1.707-1.953,1.707c-0.859,0-1.56-0.368-1.99-1.093l-0.774,0.516c0.676,0.946,1.683,1.314,2.825,1.314
                c1.413,0,2.703-0.872,2.703-2.444C20.757,43.296,16.273,44.869,16.273,42.252z"/>
            <path fill="#FFFFFF" d="M23.1,42.252c0-1.105,0.909-1.646,1.953-1.646c0.75,0,1.29,0.295,1.695,0.86l0.7-0.504
                c-0.59-0.773-1.425-1.093-2.371-1.093c-1.462,0-2.789,0.835-2.789,2.383c0,3.304,4.483,1.879,4.483,4.312
                c0,1.044-0.86,1.707-1.953,1.707c-0.859,0-1.56-0.368-1.99-1.093l-0.774,0.516c0.676,0.946,1.683,1.314,2.825,1.314
                c1.413,0,2.703-0.872,2.703-2.444C27.583,43.296,23.1,44.869,23.1,42.252z"/>
            <polygon fill="#FFFFFF" points="30.232,44.66 34.458,44.66 34.458,43.923 30.232,43.923 30.232,40.828 34.741,40.828 34.741,40.09
                29.422,40.09 29.422,48.787 34.937,48.787 34.937,48.05 30.232,48.05 	"/>
            <path fill="#FFFFFF" d="M37.207,42.252c0-1.105,0.909-1.646,1.953-1.646c0.75,0,1.29,0.295,1.695,0.86l0.7-0.504
                c-0.59-0.773-1.425-1.093-2.371-1.093c-1.462,0-2.789,0.835-2.789,2.383c0,3.304,4.483,1.879,4.483,4.312
                c0,1.044-0.86,1.707-1.953,1.707c-0.86,0-1.56-0.368-1.99-1.093l-0.774,0.516c0.676,0.946,1.683,1.314,2.825,1.314
                c1.413,0,2.703-0.872,2.703-2.444C41.69,43.296,37.207,44.869,37.207,42.252z"/>
            <path fill="#FFFFFF" d="M44.033,42.252c0-1.105,0.909-1.646,1.953-1.646c0.749,0,1.29,0.295,1.695,0.86l0.7-0.504
                c-0.59-0.773-1.425-1.093-2.371-1.093c-1.462,0-2.789,0.835-2.789,2.383c0,3.304,4.483,1.879,4.483,4.312
                c0,1.044-0.859,1.707-1.953,1.707c-0.86,0-1.56-0.368-1.99-1.093l-0.774,0.516c0.676,0.946,1.683,1.314,2.825,1.314
                c1.413,0,2.702-0.872,2.702-2.444C48.516,43.296,44.033,44.869,44.033,42.252z"/>
            <polygon fill="#FFFFFF" points="54.654,47.387 51.485,40.09 50.27,40.09 50.27,48.787 51.08,48.787 51.08,41.123 51.104,41.123
                54.471,48.787 54.826,48.787 58.143,41.123 58.168,41.123 58.168,48.787 58.979,48.787 58.979,40.09 57.823,40.09 	"/>
            <polygon fill="#FFFFFF" points="62.08,44.66 66.306,44.66 66.306,43.923 62.08,43.923 62.08,40.828 66.588,40.828 66.588,40.09
                61.27,40.09 61.27,48.787 66.785,48.787 66.785,48.05 62.08,48.05 	"/>
            <polygon fill="#FFFFFF" points="74.912,47.706 74.889,47.706 69.594,40.09 68.55,40.09 68.55,48.787 69.36,48.787 69.36,41.171
                69.385,41.171 74.68,48.787 75.723,48.787 75.723,40.09 74.912,40.09 	"/>
            <polygon fill="#FFFFFF" points="77.059,40.09 77.059,40.828 80.031,40.828 80.031,48.787 80.842,48.787 80.842,40.828
                83.814,40.828 83.814,40.09 	"/>
        </g>
    </g>
</svg>