<svg version="1.1" id="Layer_1" xmlns="http://www.w3.org/2000/svg" xmlns:xlink="http://www.w3.org/1999/xlink" x="0px" y="0px"
	 width="90.417px" height="98.188px" viewBox="0 0 90.417 98.188" enable-background="new 0 0 90.417 98.188" xml:space="preserve">
	     <g>
             <circle fill="none" stroke="#FFFFFF" stroke-width="1.36" stroke-miterlimit="10" cx="45.237" cy="45.124" r="44.483"/>
         </g>
<g class="letters">
	<polygon fill="#FFFFFF" points="40.402,45.846 44.394,45.846 42.429,41.081 	"/>
	<path fill="#FFFFFF" d="M61.275,40.712c-2.272,0-3.686,1.67-3.686,3.833c0,2.162,1.413,3.832,3.686,3.832s3.686-1.67,3.686-3.832
		C64.96,42.382,63.547,40.712,61.275,40.712z"/>
	<path fill="#FFFFFF" d="M35.847,40.933h-1.793v3.095h1.843c0.921,0,1.842-0.393,1.842-1.535
		C37.739,41.375,36.781,40.933,35.847,40.933z"/>
	<path fill="#FFFFFF" d="M45.238,0.639c-24.567,0-44.483,19.917-44.483,44.485c0,24.566,19.916,44.481,44.483,44.481
		c24.568,0,44.482-19.915,44.482-44.481C89.72,20.556,69.806,0.639,45.238,0.639z M49.795,38.611
		c0.184-0.246,0.442-0.417,0.773-0.417c0.332,0,0.64,0.16,0.922,0.307c0.271,0.135,0.541,0.282,0.773,0.282
		c0.357,0,0.529-0.294,0.59-0.589h0.442c-0.073,0.602-0.381,1.253-1.032,1.253c-0.318,0-0.626-0.16-0.921-0.295
		c-0.294-0.135-0.565-0.295-0.811-0.295c-0.381,0-0.553,0.295-0.626,0.59h-0.442C49.5,39.164,49.61,38.845,49.795,38.611z
		 M24.652,48.893h-5.515v-8.697h5.319v0.737h-4.508v3.095h4.226v0.737h-4.226v3.391h4.705V48.893z M28.702,49.114
		c-1.142,0-2.149-0.369-2.825-1.314l0.774-0.516c0.43,0.725,1.13,1.093,1.99,1.093c1.093,0,1.953-0.663,1.953-1.707
		c0-2.432-4.483-1.007-4.483-4.312c0-1.548,1.327-2.383,2.789-2.383c0.946,0,1.781,0.319,2.371,1.093l-0.7,0.504
		c-0.405-0.565-0.946-0.86-1.695-0.86c-1.044,0-1.953,0.541-1.953,1.646c0,2.616,4.483,1.044,4.483,4.312
		C31.404,48.242,30.114,49.114,28.702,49.114z M35.933,44.765h-1.879v4.127h-0.811v-8.697h2.506c1.229,0,2.801,0.479,2.801,2.297
		C38.55,44.065,37.297,44.765,35.933,44.765z M45.635,48.893l-0.946-2.309h-4.606L39.1,48.893h-0.848l3.795-8.697h0.835l3.66,8.697
		H45.635z M54.966,48.893h-1.045l-5.293-7.616h-0.025v7.616h-0.811v-8.697h1.044l5.294,7.616h0.025v-7.616h0.811V48.893z
		 M61.275,49.114c-2.653,0-4.496-1.917-4.496-4.569c0-2.653,1.843-4.569,4.496-4.569s4.496,1.916,4.496,4.569
		C65.771,47.197,63.928,49.114,61.275,49.114z M72.448,48.893h-4.864v-8.697h0.811v7.96h4.054V48.893z"/>
</g>
<g class="shape" opacity="0">
	<polygon fill="#FFFFFF" points="19.947,44.765 24.173,44.765 24.173,44.028 19.947,44.028 19.947,40.933 24.456,40.933 
		24.456,40.196 19.137,40.196 19.137,48.893 24.652,48.893 24.652,48.156 19.947,48.156 	"/>
	<path fill="#FFFFFF" d="M26.921,42.358c0-1.105,0.909-1.646,1.953-1.646c0.75,0,1.29,0.295,1.695,0.86l0.7-0.504
		c-0.59-0.773-1.425-1.093-2.371-1.093c-1.462,0-2.789,0.835-2.789,2.383c0,3.304,4.483,1.879,4.483,4.312
		c0,1.044-0.86,1.707-1.953,1.707c-0.859,0-1.56-0.368-1.99-1.093l-0.774,0.516c0.676,0.946,1.683,1.314,2.825,1.314
		c1.413,0,2.703-0.872,2.703-2.444C31.404,43.402,26.921,44.974,26.921,42.358z"/>
	<path fill="#FFFFFF" d="M35.749,40.196h-2.506v8.697h0.811v-4.127h1.879c1.364,0,2.617-0.7,2.617-2.272
		C38.55,40.675,36.978,40.196,35.749,40.196z M35.896,44.028h-1.843v-3.095h1.793c0.934,0,1.892,0.442,1.892,1.56
		C37.739,43.635,36.818,44.028,35.896,44.028z"/>
	<path fill="#FFFFFF" d="M42.048,40.196l-3.795,8.697H39.1l0.982-2.309h4.606l0.946,2.309h0.909l-3.66-8.697H42.048z M40.402,45.846
		l2.027-4.766l1.965,4.766H40.402z"/>
	<path fill="#FFFFFF" d="M50.532,38.857c0.245,0,0.517,0.16,0.811,0.295c0.295,0.135,0.603,0.295,0.921,0.295
		c0.651,0,0.959-0.651,1.032-1.253h-0.442c-0.061,0.295-0.232,0.589-0.59,0.589c-0.232,0-0.503-0.147-0.773-0.282
		c-0.282-0.147-0.59-0.307-0.922-0.307c-0.331,0-0.589,0.172-0.773,0.417c-0.185,0.233-0.295,0.553-0.332,0.835h0.442
		C49.979,39.152,50.151,38.857,50.532,38.857z"/>
	<polygon fill="#FFFFFF" points="54.156,47.812 54.13,47.812 48.836,40.196 47.792,40.196 47.792,48.893 48.603,48.893 
		48.603,41.277 48.628,41.277 53.921,48.893 54.966,48.893 54.966,40.196 54.156,40.196 	"/>
	<path fill="#FFFFFF" d="M61.275,39.975c-2.653,0-4.496,1.916-4.496,4.569c0,2.653,1.843,4.569,4.496,4.569s4.496-1.917,4.496-4.569
		C65.771,41.891,63.928,39.975,61.275,39.975z M61.275,48.376c-2.272,0-3.686-1.67-3.686-3.832c0-2.162,1.413-3.833,3.686-3.833
		s3.686,1.67,3.686,3.833C64.96,46.706,63.547,48.376,61.275,48.376z"/>
	<polygon fill="#FFFFFF" points="68.394,40.196 67.583,40.196 67.583,48.893 72.448,48.893 72.448,48.156 68.394,48.156 	"/>
</g>
</svg>
