<svg version="1.1" id="Layer_1" xmlns="http://www.w3.org/2000/svg" xmlns:xlink="http://www.w3.org/1999/xlink" x="0px" y="0px"
	 width="176.79px" height="90.08px" viewBox="0 0 176.79 90.08" xml:space="preserve">
     <g>
	     <g>
             <polygon class="shape" fill="#ACADA3" points="4.331,90.078 12.646,78.703 21.027,67.376 37.892,44.802 54.904,22.336 63.461,11.144 72.085,0
                 63.771,11.376 55.39,22.703 38.524,45.276 21.511,67.741 12.954,78.934 	"/>
             <circle class="shape" fill="#ACADA3" cx="38.21" cy="45.039" r="38.21"/>
         </g>
         <g class="letters" opacity="0.8">
             <g>
                 <path fill="#ffffff" d="M92.558,40.193c-0.803,1.104-1.906,1.547-3.154,1.547c-2.59,0-4.389-1.871-4.389-4.462
                     c0-2.59,1.799-4.461,4.389-4.461c1.152,0,2.184,0.384,2.928,1.331l-0.648,0.54c-0.527-0.792-1.428-1.151-2.279-1.151
                     c-2.219,0-3.598,1.631-3.598,3.741c0,2.111,1.379,3.742,3.598,3.742c0.852,0,1.908-0.407,2.508-1.319L92.558,40.193z"/>
                 <path fill="#ffffff" d="M100.048,38.274c0,1.811-0.781,3.466-3.096,3.466s-3.094-1.655-3.094-3.466v-5.241h0.791v5.037
                     c0,1.211,0.324,2.95,2.303,2.95c1.98,0,2.303-1.739,2.303-2.95v-5.037h0.793V38.274z"/>
                 <path fill="#ffffff" d="M102.451,39.953c0.42,0.708,1.104,1.067,1.943,1.067c1.066,0,1.906-0.647,1.906-1.667
                     c0-2.375-4.377-0.983-4.377-4.21c0-1.511,1.295-2.326,2.723-2.326c0.924,0,1.738,0.312,2.314,1.067l-0.684,0.491
                     c-0.396-0.552-0.924-0.839-1.654-0.839c-1.02,0-1.908,0.527-1.908,1.606c0,2.555,4.377,1.02,4.377,4.21
                     c0,1.535-1.258,2.387-2.637,2.387c-1.117,0-2.1-0.359-2.76-1.283L102.451,39.953z"/>
                 <path fill="#ffffff" d="M110.777,33.753h-2.902v-0.72h6.598v0.72h-2.902v7.771h-0.793V33.753z"/>
                 <path fill="#ffffff" d="M119.621,32.817c2.59,0,4.389,1.871,4.389,4.461c0,2.591-1.799,4.462-4.389,4.462
                     s-4.391-1.871-4.391-4.462C115.23,34.688,117.031,32.817,119.621,32.817z M119.621,41.021c2.219,0,3.598-1.631,3.598-3.742
                     c0-2.11-1.379-3.741-3.598-3.741s-3.598,1.631-3.598,3.741C116.023,39.39,117.402,41.021,119.621,41.021z"/>
                 <path fill="#ffffff" d="M125.707,33.033h1.188l3.094,7.124l3.094-7.124h1.129v8.491h-0.793v-7.483h-0.023l-3.238,7.483h-0.348
                     l-3.287-7.483h-0.023v7.483h-0.791V33.033z"/>
                 <path fill="#ffffff" d="M85.794,54.354c0.42,0.708,1.104,1.067,1.943,1.067c1.066,0,1.906-0.647,1.906-1.667
                     c0-2.375-4.377-0.983-4.377-4.21c0-1.511,1.295-2.326,2.723-2.326c0.924,0,1.738,0.312,2.314,1.067l-0.684,0.491
                     c-0.396-0.552-0.924-0.839-1.654-0.839c-1.02,0-1.908,0.527-1.908,1.606c0,2.555,4.377,1.02,4.377,4.21
                     c0,1.535-1.258,2.387-2.637,2.387c-1.117,0-2.1-0.359-2.76-1.283L85.794,54.354z"/>
                 <path fill="#ffffff" d="M96.076,47.218c2.592,0,4.391,1.871,4.391,4.461c0,2.591-1.799,4.462-4.391,4.462
                     c-2.59,0-4.389-1.871-4.389-4.462C91.687,49.089,93.486,47.218,96.076,47.218z M96.076,55.421c2.219,0,3.6-1.631,3.6-3.742
                     c0-2.11-1.381-3.741-3.6-3.741s-3.598,1.631-3.598,3.741C92.478,53.79,93.857,55.421,96.076,55.421z"/>
                 <path fill="#ffffff" d="M102.246,47.434h5.086v0.72h-4.293v3.022h3.992v0.719h-3.992v4.03h-0.793V47.434z"/>
                 <path fill="#ffffff" d="M110.8,48.153h-2.902v-0.72h6.598v0.72h-2.902v7.771H110.8V48.153z"/>
                 <path fill="#ffffff" d="M114.703,47.434h0.816l2.111,7.52h0.023l2.146-7.52h1.008l2.146,7.52h0.023l2.111-7.52h0.816l-2.471,8.491
                     h-0.973l-2.146-7.556h-0.023l-2.146,7.556h-0.973L114.703,47.434z"/>
                 <path fill="#ffffff" d="M129.523,47.434h0.814l3.574,8.491h-0.887l-0.924-2.255h-4.498l-0.959,2.255h-0.828L129.523,47.434z
                      M129.894,48.297l-1.979,4.653h3.898L129.894,48.297z"/>
                 <path fill="#ffffff" d="M135.14,47.434h2.232c0.67,0,3.021,0,3.021,2.23c0,1.619-1.236,2.063-2.17,2.183l2.469,4.078h-0.898
                     l-2.387-4.03h-1.475v4.03h-0.793V47.434z M135.933,51.176h1.678c1.668,0,1.992-0.924,1.992-1.512s-0.324-1.511-1.992-1.511h-1.678
                     V51.176z"/>
                 <path fill="#ffffff" d="M142.255,47.434h5.193v0.72h-4.4v3.022h4.125v0.719h-4.125v3.311h4.594v0.72h-5.387V47.434z"/>
             </g>
         </g>
        <linearGradient id="SVGID_1_" gradientUnits="userSpaceOnUse" x1="4.2681" y1="44.6943" x2="23.8225" y2="35.689" gradientTransform="matrix(0.7071 -0.7071 0.7352 0.7352 -17.7776 48.6144)">
            <stop  offset="0" style="stop-color:#000000;stop-opacity:0"/>
            <stop  offset="1" style="stop-color:#000000;stop-opacity:0.22"/>
        </linearGradient>
        <path fill="url(#SVGID_1_)" d="M46.867,53.748H29.442V36.323L3.889,61.876c3.747,7.597,9.94,13.771,17.555,17.485L46.867,53.748z"/>
         <path fill-rule="evenodd" clip-rule="evenodd" fill="#FFFFFF" d="M48.226,47.491h-1.264c-0.204,0.741-0.501,1.445-0.876,2.103
             l1.167,1.167c0.748,0.743,0.748,1.957,0,2.704l-0.676,0.679c-0.75,0.743-1.961,0.743-2.707,0l-1.176-1.176
             c-0.65,0.368-1.353,0.66-2.091,0.859v1.227c0,1.058-0.857,1.913-1.914,1.913h-0.958c-1.056,0-1.915-0.854-1.915-1.913v-1.227
             c-0.736-0.199-1.438-0.491-2.091-0.859l-1.175,1.176c-0.745,0.743-1.957,0.743-2.705,0l-0.679-0.679
             c-0.747-0.748-0.747-1.961,0-2.704l1.168-1.167c-0.374-0.658-0.671-1.361-0.877-2.103h-1.261c-1.058,0-1.913-0.859-1.913-1.912
             V44.62c0-1.056,0.855-1.915,1.913-1.915h1.246c0.2-0.734,0.484-1.436,0.851-2.084l-1.127-1.123c-0.747-0.746-0.747-1.958,0-2.704
             l0.679-0.676c0.748-0.75,1.96-0.75,2.705,0l1.098,1.098c0.678-0.387,1.404-0.695,2.168-0.903v-1.287c0-1.056,0.859-1.91,1.915-1.91
             h0.958c1.057,0,1.914,0.854,1.914,1.91v1.287c0.767,0.208,1.493,0.517,2.165,0.903l1.102-1.098c0.746-0.75,1.957-0.75,2.707,0
             l0.676,0.676c0.748,0.746,0.748,1.958,0,2.704l-1.125,1.123c0.368,0.648,0.653,1.35,0.85,2.084h1.248c1.056,0,1.91,0.859,1.91,1.915
             v0.959C50.136,46.632,49.281,47.491,48.226,47.491z M38.21,39.866c-2.902,0-5.261,2.355-5.261,5.265
             c0,2.901,2.358,5.258,5.261,5.258c2.905,0,5.263-2.357,5.263-5.258C43.473,42.221,41.115,39.866,38.21,39.866z M38.21,47.461
             c-1.318,0-2.394-1.07-2.394-2.392c0-1.32,1.075-2.392,2.394-2.392c1.321,0,2.394,1.072,2.394,2.392
             C40.604,46.391,39.531,47.461,38.21,47.461z"/>
     </g>
</svg>
