<svg version="1.1" xmlns="http://www.w3.org/2000/svg" x="0px" y="0px" xml:space="preserve" width="100%" height="100%" viewBox="0 0 90.062 98.082">
    <g>
        <g class="circle">
            <circle stroke="#ffffff" fill-opacity="0" stroke-miterlimit="10" cx="45.059" cy="44.896" r="44.483"/>
            <polygon fill="#FFFFFF" opacity="0.65" points="18.132,80.248 15.003,84.476 5.225,97.852 15.364,84.749 18.577,80.545 	"/>
        </g>
        <g class="shape" opacity="0.15">
            <polygon fill="#FFFFFF" points="55.345,52.985 59.337,52.985 57.371,48.219 	"/>
            <path fill="#FFFFFF" d="M22.772,47.851c-2.272,0-3.685,1.67-3.685,3.833c0,2.161,1.413,3.832,3.685,3.832s3.685-1.671,3.685-3.832
                C26.457,49.521,25.044,47.851,22.772,47.851z"/>
            <path fill="#FFFFFF" d="M55.062,40.782c2.272,0,3.686-1.67,3.686-3.832c0-2.162-1.413-3.833-3.686-3.833s-3.686,1.67-3.686,3.833
                C51.377,39.112,52.79,40.782,55.062,40.782z"/>
            <path fill="#FFFFFF" d="M67.305,49.619c0-0.602-0.332-1.547-2.039-1.547h-1.72v3.095h1.72C66.973,51.167,67.305,50.221,67.305,49.619z"/>
            <path fill="#FFFFFF" d="M45.058,0.411c-24.566,0-44.481,19.917-44.481,44.485c0,24.567,19.915,44.481,44.481,44.481
                c24.569,0,44.484-19.914,44.484-44.481C89.542,20.328,69.627,0.411,45.058,0.411z M55.062,32.381c2.653,0,4.496,1.916,4.496,4.569
                c0,2.653-1.843,4.569-4.496,4.569s-4.496-1.917-4.496-4.569C50.566,34.297,52.409,32.381,55.062,32.381z M43.041,32.602h6.756
                v0.737h-2.973v7.959h-0.811v-7.959h-2.973V32.602z M36.951,34.764c0-1.548,1.327-2.383,2.789-2.383
                c0.946,0,1.781,0.319,2.371,1.093l-0.7,0.504c-0.405-0.565-0.946-0.86-1.695-0.86c-1.044,0-1.953,0.541-1.953,1.646
                c0,2.616,4.483,1.044,4.483,4.312c0,1.572-1.29,2.444-2.703,2.444c-1.142,0-2.149-0.369-2.825-1.314l0.774-0.516
                c0.43,0.725,1.13,1.093,1.99,1.093c1.093,0,1.953-0.663,1.953-1.707C41.435,36.643,36.951,38.068,36.951,34.764z M14.3,56.252
                c-1.142,0-2.149-0.369-2.825-1.314l0.774-0.516c0.43,0.725,1.13,1.093,1.99,1.093c1.093,0,1.953-0.663,1.953-1.707
                c0-2.433-4.483-1.007-4.483-4.312c0-1.548,1.327-2.383,2.789-2.383c0.946,0,1.781,0.319,2.371,1.093l-0.7,0.504
                c-0.405-0.565-0.946-0.86-1.695-0.86c-1.044,0-1.953,0.541-1.953,1.646c0,2.616,4.483,1.044,4.483,4.312
                C17.002,55.38,15.712,56.252,14.3,56.252z M22.772,56.252c-2.653,0-4.496-1.916-4.496-4.569s1.842-4.569,4.496-4.569
                s4.496,1.916,4.496,4.569S25.425,56.252,22.772,56.252z M24.148,41.52c-2.653,0-4.496-1.917-4.496-4.569
                c0-2.653,1.842-4.569,4.496-4.569c1.179,0,2.236,0.393,2.997,1.363l-0.663,0.553c-0.541-0.811-1.462-1.179-2.334-1.179
                c-2.272,0-3.685,1.67-3.685,3.833c0,2.162,1.413,3.832,3.685,3.832c0.872,0,1.953-0.417,2.567-1.351l0.663,0.504
                C26.556,41.065,25.425,41.52,24.148,41.52z M28.701,32.602h0.811v5.159c0,1.241,0.332,3.021,2.358,3.021
                c2.027,0,2.358-1.781,2.358-3.021v-5.159h0.811v5.368c0,1.854-0.798,3.55-3.169,3.55c-2.371,0-3.169-1.695-3.169-3.55V32.602z
                 M34.289,48.072h-4.397v3.095h4.09v0.738h-4.09v4.127h-0.811v-8.697h5.208V48.072z M41.619,48.072h-2.973v7.96h-0.811v-7.96h-2.973
                v-0.737h6.756V48.072z M49.771,56.032l-2.199-7.739h-0.023l-2.199,7.739h-0.995l-2.53-8.697h0.835l2.162,7.701h0.024l2.199-7.701
                h1.031l2.199,7.701H50.3l2.161-7.701h0.836l-2.53,8.697H49.771z M60.578,56.032l-0.946-2.31h-4.606l-0.982,2.31h-0.848l3.795-8.697
                h0.836l3.66,8.697H60.578z M67.502,56.032l-2.445-4.127h-1.511v4.127h-0.811v-8.697h2.284c0.688,0,3.096,0,3.096,2.285
                c0,1.659-1.266,2.113-2.223,2.236l2.529,4.177H67.502z M69.994,41.298h-0.811v-7.665h-0.025l-3.316,7.665h-0.355l-3.365-7.665
                h-0.025v7.665h-0.811v-8.697h1.217l3.168,7.296l3.17-7.296h1.154V41.298z M75.531,56.032h-5.516v-8.697h5.318v0.737h-4.508v3.095
                h4.226v0.738h-4.226v3.39h4.705V56.032z"/>
        </g>
        <g class="letters" opacity="1">
            <path fill="#FFFFFF" d="M24.148,40.782c-2.272,0-3.685-1.67-3.685-3.832c0-2.162,1.413-3.833,3.685-3.833
                c0.872,0,1.793,0.369,2.334,1.179l0.663-0.553c-0.761-0.97-1.818-1.363-2.997-1.363c-2.653,0-4.496,1.916-4.496,4.569
                c0,2.653,1.842,4.57,4.496,4.57c1.277,0,2.408-0.455,3.23-1.585l-0.663-0.504C26.101,40.365,25.02,40.782,24.148,40.782z"/>
            <path fill="#FFFFFF" d="M31.87,41.52c2.371,0,3.169-1.695,3.169-3.55v-5.368h-0.811v5.159c0,1.241-0.332,3.021-2.358,3.021
                c-2.026,0-2.358-1.78-2.358-3.021v-5.159h-0.811v5.368C28.701,39.825,29.499,41.52,31.87,41.52z"/>
            <path fill="#FFFFFF" d="M39.481,40.782c-0.86,0-1.56-0.367-1.99-1.092l-0.774,0.516c0.676,0.945,1.683,1.314,2.825,1.314
                c1.413,0,2.703-0.873,2.703-2.445c0-3.268-4.483-1.695-4.483-4.312c0-1.105,0.909-1.646,1.953-1.646c0.75,0,1.29,0.295,1.695,0.86
                l0.7-0.504c-0.59-0.773-1.425-1.093-2.371-1.093c-1.462,0-2.789,0.835-2.789,2.383c0,3.304,4.483,1.879,4.483,4.312
                C41.435,40.12,40.575,40.782,39.481,40.782z"/>
            <polygon fill="#FFFFFF" points="46.014,41.298 46.824,41.298 46.824,33.339 49.797,33.339 49.797,32.602 43.041,32.602
                43.041,33.339 46.014,33.339 	"/>
            <polygon fill="#FFFFFF" points="65.67,39.898 62.502,32.602 61.285,32.602 61.285,41.298 62.096,41.298 62.096,33.634
                62.121,33.634 65.486,41.298 65.842,41.298 69.158,33.634 69.184,33.634 69.184,41.298 69.994,41.298 69.994,32.602 68.84,32.602
                "/>
            <path fill="#FFFFFF" d="M12.519,49.497c0-1.105,0.909-1.646,1.953-1.646c0.75,0,1.29,0.295,1.695,0.86l0.7-0.504
                c-0.59-0.773-1.425-1.093-2.371-1.093c-1.462,0-2.789,0.835-2.789,2.383c0,3.305,4.483,1.879,4.483,4.312
                c0,1.044-0.86,1.707-1.953,1.707c-0.86,0-1.56-0.368-1.99-1.093l-0.774,0.516c0.676,0.945,1.683,1.314,2.825,1.314
                c1.413,0,2.703-0.872,2.703-2.444C17.002,50.541,12.519,52.113,12.519,49.497z"/>
            <polygon fill="#FFFFFF" points="29.081,56.032 29.892,56.032 29.892,51.905 33.982,51.905 33.982,51.167 29.892,51.167
                29.892,48.072 34.289,48.072 34.289,47.334 29.081,47.334 	"/>
            <polygon fill="#FFFFFF" points="34.863,48.072 37.836,48.072 37.836,56.032 38.646,56.032 38.646,48.072 41.619,48.072
                41.619,47.334 34.863,47.334 	"/>
            <polygon fill="#FFFFFF" points="52.461,47.334 50.3,55.036 50.275,55.036 48.076,47.334 47.045,47.334 44.846,55.036
                44.821,55.036 42.659,47.334 41.824,47.334 44.354,56.032 45.35,56.032 47.549,48.293 47.572,48.293 49.771,56.032 50.767,56.032
                53.297,47.334 	"/>
            <path fill="#FFFFFF" d="M55.062,41.52c2.653,0,4.496-1.917,4.496-4.57c0-2.653-1.843-4.569-4.496-4.569s-4.496,1.916-4.496,4.569
                C50.566,39.603,52.409,41.52,55.062,41.52z M55.062,33.118c2.272,0,3.686,1.67,3.686,3.833c0,2.162-1.413,3.832-3.686,3.832
                s-3.686-1.67-3.686-3.832C51.377,34.788,52.79,33.118,55.062,33.118z"/>
            <path fill="#FFFFFF" d="M22.772,47.114c-2.653,0-4.496,1.916-4.496,4.569s1.842,4.569,4.496,4.569s4.496-1.916,4.496-4.569
                S25.425,47.114,22.772,47.114z M22.772,55.515c-2.272,0-3.685-1.671-3.685-3.832c0-2.162,1.413-3.833,3.685-3.833
                s3.685,1.671,3.685,3.833C26.457,53.844,25.044,55.515,22.772,55.515z"/>
            <path fill="#FFFFFF" d="M56.99,47.334l-3.795,8.697h0.848l0.982-2.31h4.606l0.946,2.31h0.908l-3.66-8.697H56.99z M55.345,52.985
                l2.026-4.766l1.966,4.766H55.345z"/>
            <path fill="#FFFFFF" d="M68.115,49.62c0-2.285-2.407-2.285-3.096-2.285h-2.284v8.697h0.811v-4.127h1.511l2.445,4.127h0.92
                l-2.529-4.177C66.85,51.732,68.115,51.278,68.115,49.62z M63.546,51.167v-3.095h1.72c1.707,0,2.039,0.946,2.039,1.548
                s-0.332,1.547-2.039,1.547H63.546z"/>
            <polygon fill="#FFFFFF" points="70.826,51.905 75.052,51.905 75.052,51.167 70.826,51.167 70.826,48.072 75.334,48.072
                75.334,47.334 70.016,47.334 70.016,56.032 75.531,56.032 75.531,55.294 70.826,55.294 	"/>
        </g>
    </g>
</svg>