<svg version="1.1" id="Layer_1" xmlns="http://www.w3.org/2000/svg" xmlns:xlink="http://www.w3.org/1999/xlink" x="0px" y="0px"
	 width="90.417px" height="98.188px" viewBox="0 0 90.417 98.188" enable-background="new 0 0 90.417 98.188" xml:space="preserve">
	     <g>
             <circle fill="none" stroke="#FFFFFF" stroke-width="1.36" stroke-miterlimit="10" cx="45.237" cy="45.124" r="44.483"/>
         </g>
<g class="letters">
	<path fill="#FFFFFF" d="M22.786,42.48c0-0.602-0.332-1.547-2.039-1.547h-1.72v3.095h1.72C22.454,44.028,22.786,43.083,22.786,42.48
		z"/>
	<path fill="#FFFFFF" d="M58.783,40.712c-2.272,0-3.686,1.67-3.686,3.833c0,2.162,1.413,3.832,3.686,3.832s3.686-1.67,3.686-3.832
		C62.468,42.382,61.055,40.712,58.783,40.712z"/>
	<path fill="#FFFFFF" d="M45.238,0.639c-24.567,0-44.483,19.917-44.483,44.485c0,24.566,19.916,44.481,44.483,44.481
		c24.568,0,44.482-19.915,44.482-44.481C89.72,20.556,69.806,0.639,45.238,0.639z M22.982,48.893l-2.444-4.127h-1.511v4.127h-0.811
		v-8.697h2.285c0.688,0,3.096,0,3.096,2.285c0,1.659-1.265,2.113-2.224,2.236l2.531,4.176H22.982z M31.012,48.893h-5.515v-8.697
		h5.319v0.737h-4.508v3.095h4.226v0.737h-4.226v3.391h4.705V48.893z M37.641,48.893h-4.864v-8.697h0.811v7.96h4.054V48.893z
		 M39.727,48.893h-0.811v-8.697h0.811V48.893z M49.281,48.328c-1.007,0.577-2.112,0.786-3.243,0.786
		c-2.653,0-4.496-1.917-4.496-4.569c0-2.653,1.842-4.569,4.496-4.569c1.29,0,2.334,0.393,3.132,1.204l-0.589,0.614
		c-0.528-0.639-1.597-1.081-2.543-1.081c-2.272,0-3.685,1.67-3.685,3.833c0,2.162,1.413,3.832,3.685,3.832
		c0.934,0,1.769-0.123,2.432-0.516v-2.923h-2.088V44.2h2.898V48.328z M52.47,48.893H51.66v-8.697h0.811V48.893z M58.783,49.114
		c-2.653,0-4.496-1.917-4.496-4.569c0-2.653,1.843-4.569,4.496-4.569s4.496,1.916,4.496,4.569
		C63.279,47.197,61.436,49.114,58.783,49.114z M72.265,48.893H71.22l-5.293-7.616h-0.025v7.616h-0.811v-8.697h1.044l5.294,7.616
		h0.025v-7.616h0.811V48.893z"/>
</g>
<g class="shape" opacity="0">
	<path fill="#FFFFFF" d="M23.597,42.48c0-2.285-2.408-2.285-3.096-2.285h-2.285v8.697h0.811v-4.127h1.511l2.444,4.127h0.921
		l-2.531-4.176C22.332,44.593,23.597,44.139,23.597,42.48z M19.027,44.028v-3.095h1.72c1.708,0,2.039,0.946,2.039,1.547
		c0,0.602-0.332,1.548-2.039,1.548H19.027z"/>
	<polygon fill="#FFFFFF" points="26.307,44.765 30.533,44.765 30.533,44.028 26.307,44.028 26.307,40.933 30.815,40.933 
		30.815,40.196 25.497,40.196 25.497,48.893 31.012,48.893 31.012,48.156 26.307,48.156 	"/>
	<polygon fill="#FFFFFF" points="33.587,40.196 32.777,40.196 32.777,48.893 37.641,48.893 37.641,48.156 33.587,48.156 	"/>
	<rect x="38.916" y="40.196" fill="#FFFFFF" width="0.811" height="8.697"/>
	<path fill="#FFFFFF" d="M46.383,44.938h2.088v2.923c-0.663,0.393-1.499,0.516-2.432,0.516c-2.272,0-3.685-1.67-3.685-3.832
		c0-2.162,1.413-3.833,3.685-3.833c0.946,0,2.015,0.442,2.543,1.081l0.589-0.614c-0.798-0.811-1.842-1.204-3.132-1.204
		c-2.653,0-4.496,1.916-4.496,4.569c0,2.653,1.842,4.569,4.496,4.569c1.13,0,2.236-0.209,3.243-0.786V44.2h-2.898V44.938z"/>
	<rect x="51.66" y="40.196" fill="#FFFFFF" width="0.811" height="8.697"/>
	<path fill="#FFFFFF" d="M58.783,39.975c-2.653,0-4.496,1.916-4.496,4.569c0,2.653,1.843,4.569,4.496,4.569s4.496-1.917,4.496-4.569
		C63.279,41.891,61.436,39.975,58.783,39.975z M58.783,48.376c-2.272,0-3.686-1.67-3.686-3.832c0-2.162,1.413-3.833,3.686-3.833
		s3.686,1.67,3.686,3.833C62.468,46.706,61.055,48.376,58.783,48.376z"/>
	<polygon fill="#FFFFFF" points="71.455,47.812 71.429,47.812 66.135,40.196 65.091,40.196 65.091,48.893 65.902,48.893 
		65.902,41.277 65.927,41.277 71.22,48.893 72.265,48.893 72.265,40.196 71.455,40.196 	"/>
</g>
</svg>
