<svg version="1.1" id="Layer_1" xmlns="http://www.w3.org/2000/svg" xmlns:xlink="http://www.w3.org/1999/xlink" x="0px" y="0px" width="76.42px" height="115.924px" viewBox="0 0 76.42 115.924" enable-background="new 0 0 76.42 115.924" xml:space="preserve">
    <g>
        <g class="letters" opacity="0.8">
            <path fill="#FFFFFF" d="M10.468,99.953c0.419,0.708,1.104,1.067,1.942,1.067c1.067,0,1.907-0.647,1.907-1.668
            c0-2.375-4.378-0.982-4.378-4.209c0-1.512,1.296-2.326,2.723-2.326c0.924,0,1.739,0.312,2.314,1.066l-0.684,0.491
            c-0.396-0.552-0.924-0.839-1.655-0.839c-1.02,0-1.907,0.527-1.907,1.605c0,2.556,4.377,1.021,4.377,4.211
            c0,1.535-1.259,2.387-2.638,2.387c-1.116,0-2.1-0.359-2.759-1.283L10.468,99.953z" />
            <path fill="#FFFFFF" d="M16.912,93.033h5.193v0.72h-4.401v3.021h4.126v0.72h-4.126v3.312h4.595v0.719h-5.387V93.033z" />
            <path fill="#FFFFFF" d="M24.028,93.033h0.792v7.771h3.958v0.721h-4.75V93.033z" />
            <path fill="#FFFFFF" d="M30.028,93.033h5.192v0.72h-4.4v3.021h4.126v0.72H30.82v3.312h4.594v0.719h-5.386V93.033z" />
            <path fill="#FFFFFF" d="M44.134,100.192c-0.803,1.104-1.904,1.548-3.152,1.548c-2.591,0-4.39-1.871-4.39-4.462
            c0-2.59,1.799-4.461,4.39-4.461c1.15,0,2.182,0.384,2.926,1.33l-0.646,0.541c-0.527-0.793-1.428-1.151-2.279-1.151
            c-2.219,0-3.597,1.631-3.597,3.741c0,2.111,1.378,3.742,3.597,3.742c0.852,0,1.906-0.408,2.508-1.319L44.134,100.192z" />
            <path fill="#FFFFFF" d="M47.474,93.752h-2.902v-0.72h6.598v0.72h-2.902v7.771h-0.793V93.752L47.474,93.752z" />
            <path fill="#FFFFFF" d="M52.479,93.033h5.193v0.72h-4.4v3.021h4.125v0.72h-4.125v3.312h4.594v0.719h-5.387V93.033L52.479,93.033z" />
            <path fill="#FFFFFF" d="M59.487,93.033h2.627c4.414,0,4.594,3.622,4.594,4.245s-0.18,4.246-4.594,4.246h-2.627V93.033z
             M60.278,100.804h1.633c2.254,0,4.004-1.091,4.004-3.525c0-2.436-1.75-3.525-4.004-3.525h-1.633V100.804z" />
            <path fill="#FFFFFF" d="M9.652,107.433H12.1c1.199,0,2.734,0.469,2.734,2.242c0,1.535-1.225,2.219-2.556,2.219h-1.835v4.03H9.651
            L9.652,107.433L9.652,107.433z M10.444,111.175h1.8c0.898,0,1.799-0.384,1.799-1.5c0-1.091-0.937-1.521-1.848-1.521h-1.751
            V111.175z" />
            <path fill="#FFFFFF" d="M16.541,107.433h2.23c0.671,0,3.021,0,3.021,2.23c0,1.619-1.234,2.062-2.17,2.184l2.471,4.077h-0.9
            l-2.387-4.03h-1.475v4.03h-0.793v-8.491H16.541z M17.332,111.175h1.68c1.666,0,1.99-0.924,1.99-1.512s-0.324-1.512-1.99-1.512
            h-1.68V111.175z" />
            <path fill="#FFFFFF" d="M27.494,107.217c2.592,0,4.391,1.871,4.391,4.461c0,2.591-1.799,4.462-4.391,4.462
            c-2.59,0-4.39-1.871-4.39-4.462C23.104,109.088,24.904,107.217,27.494,107.217z M27.494,115.42c2.219,0,3.6-1.631,3.6-3.742
            c0-2.11-1.381-3.741-3.6-3.741s-3.598,1.631-3.598,3.741C23.896,113.79,25.275,115.42,27.494,115.42z" />
            <path fill="#FFFFFF" d="M37.119,113.429c0,1.021-0.133,2.711-2.326,2.711c-1.235,0-1.967-0.695-2.207-1.738l0.791-0.145
            c0.191,0.791,0.672,1.163,1.416,1.163c1.127,0,1.535-0.769,1.535-1.799v-6.188h0.791V113.429z" />
            <path fill="#FFFFFF" d="M39.448,107.433h5.193v0.721H40.24v3.021h4.126v0.719H40.24v3.312h4.594v0.72h-5.386V107.433z" />
            <path fill="#FFFFFF" d="M53.556,114.593c-0.804,1.104-1.906,1.547-3.154,1.547c-2.59,0-4.39-1.871-4.39-4.462
            c0-2.59,1.8-4.461,4.39-4.461c1.151,0,2.183,0.384,2.927,1.331l-0.646,0.54c-0.528-0.792-1.428-1.151-2.279-1.151
            c-2.219,0-3.598,1.631-3.598,3.741c0,2.111,1.379,3.742,3.598,3.742c0.852,0,1.907-0.407,2.508-1.319L53.556,114.593z" />
            <path fill="#FFFFFF" d="M56.895,108.153h-2.902v-0.721h6.598v0.721h-2.902v7.771h-0.792L56.895,108.153L56.895,108.153z" />
            <path fill="#FFFFFF" d="M62.127,114.353c0.42,0.709,1.104,1.067,1.942,1.067c1.067,0,1.907-0.647,1.907-1.667
            c0-2.375-4.378-0.982-4.378-4.21c0-1.511,1.296-2.326,2.723-2.326c0.925,0,1.739,0.312,2.313,1.067l-0.684,0.49
            c-0.396-0.551-0.923-0.838-1.654-0.838c-1.02,0-1.906,0.526-1.906,1.605c0,2.555,4.377,1.02,4.377,4.21
            c0,1.535-1.26,2.388-2.639,2.388c-1.115,0-2.1-0.359-2.758-1.283L62.127,114.353z" />
        </g>
        <g>
            <g>
                <polygon class="shape" fill="#ACADA3" points="4.331,90.078 12.646,78.703 21.026,67.376 37.892,44.802 54.903,22.336 63.461,11.144 72.085,0 
                63.771,11.376 55.39,22.703 38.523,45.276 21.511,67.741 12.954,78.935            " />
                <circle class="shape" fill="#ACADA3" cx="38.21" cy="45.039" r="38.21" />
            </g>

            <linearGradient id="SVGID_1_" gradientUnits="userSpaceOnUse" x1="-307.1333" y1="10.8496" x2="-287.5789" y2="19.8549" gradientTransform="matrix(0.7071 -0.7071 -0.7352 -0.7352 243.2528 -130.7394)">
                <stop offset="0" style="stop-color:#000000;stop-opacity:0" />
                <stop offset="1" style="stop-color:#000000;stop-opacity:0.22" />
            </linearGradient>
            <path fill="url(#SVGID_1_)" d="M46.867,53.748H29.441V36.323L3.889,61.876c3.747,7.598,9.94,13.771,17.555,17.484L46.867,53.748z" />
            <path fill="#FFFFFF" d="M29.771,53.479V36.601h16.879v10.802v0.675v5.401H29.771z M45.3,37.951H31.121v4.051h1.36
            c0.102-0.756,0.504-1.322,0.988-1.322c0.482,0,0.887,0.566,0.986,1.322h0.723c0.098-0.764,0.504-1.336,0.991-1.336
            c0.485,0,0.893,0.572,0.989,1.336h4.771c0.098-0.764,0.504-1.336,0.99-1.336c0.485,0,0.894,0.572,0.99,1.336h1.39V37.951z
             M45.3,42.677h-1.384c-0.092,0.777-0.502,1.364-0.994,1.364c-0.493,0-0.902-0.587-0.993-1.364h-4.765
            c-0.093,0.777-0.501,1.364-0.993,1.364c-0.493,0-0.903-0.587-0.994-1.364h-0.713c-0.087,0.783-0.498,1.378-0.993,1.378
            c-0.497,0-0.907-0.595-0.994-1.378h-1.354v4.727h5.396c0.098-0.764,0.504-1.336,0.99-1.336c0.487,0,0.893,0.572,0.99,1.336h0.674
            c0.087-0.784,0.499-1.379,0.994-1.379c0.496,0,0.905,0.595,0.994,1.379h0.756c0.095-0.771,0.503-1.351,0.993-1.351
            c0.489,0,0.897,0.579,0.991,1.351H45.3V42.677z M45.3,48.078h-1.4c-0.094,0.771-0.502,1.353-0.991,1.353
            c-0.49,0-0.898-0.582-0.993-1.353h-0.764c-0.101,0.756-0.504,1.321-0.986,1.321c-0.483,0-0.889-0.565-0.987-1.321H38.5
            c-0.091,0.778-0.5,1.364-0.993,1.364s-0.902-0.586-0.993-1.364h-5.393v4.052H45.3V48.078z" />
        </g>
    </g>
</svg>
