<svg version="1.1" id="Layer_1" xmlns="http://www.w3.org/2000/svg" xmlns:xlink="http://www.w3.org/1999/xlink" x="0px" y="0px"
	 width="90.417px" height="98.188px" viewBox="0 0 90.417 98.188" enable-background="new 0 0 90.417 98.188" xml:space="preserve">
	     <g>
             <circle fill="none" stroke="#FFFFFF" stroke-width="1.36" stroke-miterlimit="10" cx="45.237" cy="45.124" r="44.483"/>
         </g>
<g class="letters">
	<path fill="#FFFFFF" d="M48.004,42.48c0-0.602-0.332-1.547-2.039-1.547h-1.72v3.095h1.72C47.673,44.028,48.004,43.083,48.004,42.48
		z"/>
	<polygon fill="#FFFFFF" points="36.044,45.846 40.037,45.846 38.071,41.081 	"/>
	<path fill="#FFFFFF" d="M45.238,0.639c-24.567,0-44.483,19.917-44.483,44.485c0,24.566,19.916,44.481,44.483,44.481
		c24.568,0,44.482-19.915,44.482-44.481C89.72,20.556,69.806,0.639,45.238,0.639z M41.277,48.893l-0.946-2.309h-4.606l-0.982,2.309
		h-0.848l3.795-8.697h0.835l3.66,8.697H41.277z M48.201,48.893l-2.444-4.127h-1.511v4.127h-0.811v-8.697h2.285
		c0.688,0,3.096,0,3.096,2.285c0,1.659-1.265,2.113-2.224,2.236l2.531,4.176H48.201z M56.5,40.933h-2.973v7.959h-0.811v-7.959
		h-2.973v-0.737H56.5V40.933z"/>
</g>
<g class="shape" opacity="0">
	<path fill="#FFFFFF" d="M37.69,40.196l-3.795,8.697h0.848l0.982-2.309h4.606l0.946,2.309h0.909l-3.66-8.697H37.69z M36.044,45.846
		l2.027-4.766l1.965,4.766H36.044z"/>
	<path fill="#FFFFFF" d="M48.815,42.48c0-2.285-2.408-2.285-3.096-2.285h-2.285v8.697h0.811v-4.127h1.511l2.444,4.127h0.921
		l-2.531-4.176C47.55,44.593,48.815,44.139,48.815,42.48z M44.246,44.028v-3.095h1.72c1.708,0,2.039,0.946,2.039,1.547
		c0,0.602-0.332,1.548-2.039,1.548H44.246z"/>
	<polygon fill="#FFFFFF" points="49.743,40.933 52.716,40.933 52.716,48.893 53.527,48.893 53.527,40.933 56.5,40.933 56.5,40.196 
		49.743,40.196 	"/>
</g>
</svg>