<svg version="1.1" id="Layer_1" xmlns="http://www.w3.org/2000/svg" xmlns:xlink="http://www.w3.org/1999/xlink" x="0px" y="0px"
	 width="90.417px" height="98.188px" viewBox="0 0 90.417 98.188" enable-background="new 0 0 90.417 98.188" xml:space="preserve">
	     <g>
             <circle fill="none" stroke="#FFFFFF" stroke-width="1.36" stroke-miterlimit="10" cx="45.237" cy="45.124" r="44.483"/>
         </g>
<g class="letters">
	<polygon fill="#FFFFFF" points="57.105,45.846 61.097,45.846 59.132,41.081 	"/>
	<polygon fill="#FFFFFF" points="15.422,45.846 19.414,45.846 17.449,41.081 	"/>
	<path fill="#FFFFFF" d="M45.238,0.639c-24.567,0-44.483,19.917-44.483,44.485c0,24.566,19.916,44.481,44.483,44.481
		c24.568,0,44.482-19.915,44.482-44.481C89.72,20.556,69.806,0.639,45.238,0.639z M12.111,48.893H11.3v-7.665h-0.025l-3.316,7.665
		H7.603l-3.366-7.665H4.212v7.665H3.402v-8.697h1.216l3.169,7.296l3.169-7.296h1.155V48.893z M20.655,48.893l-0.946-2.309h-4.606
		l-0.982,2.309h-0.848l3.795-8.697h0.835l3.66,8.697H20.655z M27.691,40.933h-2.973v7.959h-0.811v-7.959h-2.973v-0.737h6.756V40.933
		z M35.512,48.893h-0.811v-4.127h-4.864v4.127h-0.811v-8.697h0.811v3.833h4.864v-3.833h0.811V48.893z M43.406,48.893h-5.515v-8.697
		h5.319v0.737h-4.508v3.095h4.226v0.737h-4.226v3.391h4.705V48.893z M53.794,48.893h-0.811v-7.665h-0.025l-3.316,7.665h-0.356
		l-3.365-7.665h-0.025v7.665h-0.811v-8.697h1.216l3.169,7.296l3.169-7.296h1.155V48.893z M62.337,48.893l-0.945-2.309h-4.606
		l-0.982,2.309h-0.848l3.796-8.697h0.835l3.66,8.697H62.337z M69.375,40.933h-2.973v7.959h-0.811v-7.959h-2.973v-0.737h6.756V40.933
		z M71.52,48.893h-0.811v-8.697h0.811V48.893z M77.832,49.114c-2.652,0-4.495-1.917-4.495-4.569c0-2.653,1.843-4.569,4.495-4.569
		c1.18,0,2.236,0.393,2.998,1.363l-0.664,0.553c-0.54-0.811-1.461-1.179-2.334-1.179c-2.271,0-3.685,1.67-3.685,3.833
		c0,2.162,1.413,3.832,3.685,3.832c0.873,0,1.953-0.417,2.568-1.351l0.662,0.504C80.24,48.659,79.109,49.114,77.832,49.114z
		 M84.83,49.114c-1.143,0-2.149-0.369-2.825-1.314l0.774-0.516c0.43,0.725,1.13,1.093,1.989,1.093c1.093,0,1.953-0.663,1.953-1.707
		c0-2.432-4.483-1.007-4.483-4.312c0-1.548,1.326-2.383,2.789-2.383c0.945,0,1.78,0.319,2.37,1.093l-0.7,0.504
		c-0.405-0.565-0.945-0.86-1.695-0.86c-1.044,0-1.953,0.541-1.953,1.646c0,2.616,4.484,1.044,4.484,4.312
		C87.533,48.242,86.242,49.114,84.83,49.114z"/>
</g>
<g class="shape" opacity="0">
	<polygon fill="#FFFFFF" points="7.787,47.492 4.618,40.196 3.402,40.196 3.402,48.893 4.212,48.893 4.212,41.228 4.237,41.228 
		7.603,48.893 7.959,48.893 11.275,41.228 11.3,41.228 11.3,48.893 12.111,48.893 12.111,40.196 10.956,40.196 	"/>
	<path fill="#FFFFFF" d="M17.068,40.196l-3.795,8.697h0.848l0.982-2.309h4.606l0.946,2.309h0.909l-3.66-8.697H17.068z
		 M15.422,45.846l2.027-4.766l1.965,4.766H15.422z"/>
	<polygon fill="#FFFFFF" points="20.935,40.933 23.908,40.933 23.908,48.893 24.718,48.893 24.718,40.933 27.691,40.933 
		27.691,40.196 20.935,40.196 	"/>
	<polygon fill="#FFFFFF" points="34.701,44.028 29.837,44.028 29.837,40.196 29.026,40.196 29.026,48.893 29.837,48.893 
		29.837,44.765 34.701,44.765 34.701,48.893 35.512,48.893 35.512,40.196 34.701,40.196 	"/>
	<polygon fill="#FFFFFF" points="38.701,44.765 42.927,44.765 42.927,44.028 38.701,44.028 38.701,40.933 43.209,40.933 
		43.209,40.196 37.891,40.196 37.891,48.893 43.406,48.893 43.406,48.156 38.701,48.156 	"/>
	<polygon fill="#FFFFFF" points="49.47,47.492 46.301,40.196 45.085,40.196 45.085,48.893 45.896,48.893 45.896,41.228 
		45.92,41.228 49.286,48.893 49.642,48.893 52.958,41.228 52.984,41.228 52.984,48.893 53.794,48.893 53.794,40.196 52.639,40.196 	
		"/>
	<path fill="#FFFFFF" d="M58.751,40.196l-3.796,8.697h0.848l0.982-2.309h4.606l0.945,2.309h0.909l-3.66-8.697H58.751z
		 M57.105,45.846l2.027-4.766l1.965,4.766H57.105z"/>
	<polygon fill="#FFFFFF" points="62.619,40.933 65.591,40.933 65.591,48.893 66.402,48.893 66.402,40.933 69.375,40.933 
		69.375,40.196 62.619,40.196 	"/>
	<rect x="70.709" y="40.196" fill="#FFFFFF" width="0.811" height="8.697"/>
	<path fill="#FFFFFF" d="M77.832,48.376c-2.271,0-3.685-1.67-3.685-3.832c0-2.162,1.413-3.833,3.685-3.833
		c0.873,0,1.794,0.369,2.334,1.179l0.664-0.553c-0.762-0.97-1.818-1.363-2.998-1.363c-2.652,0-4.495,1.916-4.495,4.569
		c0,2.653,1.843,4.569,4.495,4.569c1.277,0,2.408-0.455,3.23-1.584L80.4,47.025C79.785,47.959,78.705,48.376,77.832,48.376z"/>
	<path fill="#FFFFFF" d="M83.048,42.358c0-1.105,0.909-1.646,1.953-1.646c0.75,0,1.29,0.295,1.695,0.86l0.7-0.504
		c-0.59-0.773-1.425-1.093-2.37-1.093c-1.463,0-2.789,0.835-2.789,2.383c0,3.304,4.483,1.879,4.483,4.312
		c0,1.044-0.86,1.707-1.953,1.707c-0.859,0-1.56-0.368-1.989-1.093l-0.774,0.516c0.676,0.946,1.683,1.314,2.825,1.314
		c1.412,0,2.703-0.872,2.703-2.444C87.533,43.402,83.048,44.974,83.048,42.358z"/>
</g>
</svg>