<svg version="1.1" id="Layer_1" xmlns="http://www.w3.org/2000/svg" xmlns:xlink="http://www.w3.org/1999/xlink" x="0px" y="0px"
	 width="176.79px" height="90.08px" viewBox="0 0 176.79 90.08" xml:space="preserve">
     <g>
	     <g>
             <polygon class="shape" fill="#ACADA3" points="4.331,90.078 12.646,78.703 21.027,67.376 37.892,44.802 54.904,22.336 63.461,11.144 72.085,0
                 63.771,11.376 55.39,22.703 38.524,45.276 21.511,67.741 12.954,78.934 	"/>
             <circle class="shape" fill="#ACADA3" cx="38.21" cy="45.039" r="38.21"/>
         </g>
         <g class="letters" opacity="0.8">
             <g>
                 <path fill="#ffffff" d="M88.169,33.033h0.815l3.574,8.491h-0.888l-0.923-2.255H86.25l-0.959,2.255h-0.828L88.169,33.033z
                      M88.541,33.896l-1.979,4.653h3.897L88.541,33.896z"/>
                 <path fill="#ffffff" d="M94.015,39.953c0.419,0.708,1.103,1.067,1.942,1.067c1.067,0,1.907-0.647,1.907-1.667
                     c0-2.375-4.378-0.983-4.378-4.21c0-1.511,1.296-2.326,2.723-2.326c0.924,0,1.739,0.312,2.314,1.067l-0.684,0.491
                     c-0.396-0.552-0.923-0.839-1.654-0.839c-1.02,0-1.907,0.527-1.907,1.606c0,2.555,4.377,1.02,4.377,4.21
                     c0,1.535-1.259,2.387-2.638,2.387c-1.116,0-2.1-0.359-2.759-1.283L94.015,39.953z"/>
                 <path fill="#ffffff" d="M100.687,39.953c0.419,0.708,1.103,1.067,1.942,1.067c1.067,0,1.907-0.647,1.907-1.667
                     c0-2.375-4.378-0.983-4.378-4.21c0-1.511,1.296-2.326,2.723-2.326c0.924,0,1.739,0.312,2.314,1.067l-0.684,0.491
                     c-0.396-0.552-0.923-0.839-1.654-0.839c-1.02,0-1.907,0.527-1.907,1.606c0,2.555,4.377,1.02,4.377,4.21
                     c0,1.535-1.259,2.387-2.638,2.387c-1.116,0-2.1-0.359-2.759-1.283L100.687,39.953z"/>
                 <path fill="#ffffff" d="M107.13,33.033h5.193v0.72h-4.401v3.022h4.126v0.719h-4.126v3.311h4.594v0.72h-5.386V33.033z"/>
                 <path fill="#ffffff" d="M114.475,39.953c0.419,0.708,1.104,1.067,1.942,1.067c1.067,0,1.907-0.647,1.907-1.667
                     c0-2.375-4.378-0.983-4.378-4.21c0-1.511,1.296-2.326,2.723-2.326c0.924,0,1.739,0.312,2.314,1.067l-0.684,0.491
                     c-0.396-0.552-0.923-0.839-1.654-0.839c-1.02,0-1.907,0.527-1.907,1.606c0,2.555,4.377,1.02,4.377,4.21
                     c0,1.535-1.259,2.387-2.638,2.387c-1.116,0-2.1-0.359-2.759-1.283L114.475,39.953z"/>
                 <path fill="#ffffff" d="M121.146,39.953c0.419,0.708,1.104,1.067,1.942,1.067c1.067,0,1.907-0.647,1.907-1.667
                     c0-2.375-4.378-0.983-4.378-4.21c0-1.511,1.296-2.326,2.723-2.326c0.924,0,1.739,0.312,2.314,1.067l-0.684,0.491
                     c-0.396-0.552-0.923-0.839-1.654-0.839c-1.02,0-1.907,0.527-1.907,1.606c0,2.555,4.377,1.02,4.377,4.21
                     c0,1.535-1.259,2.387-2.638,2.387c-1.116,0-2.1-0.359-2.759-1.283L121.146,39.953z"/>
                 <path fill="#ffffff" d="M127.506,33.033h1.188l3.095,7.124l3.094-7.124h1.128v8.491h-0.792v-7.483h-0.023l-3.238,7.483h-0.349
                     l-3.286-7.483h-0.023v7.483h-0.792V33.033z"/>
                 <path fill="#ffffff" d="M138.258,33.033h5.193v0.72h-4.401v3.022h4.126v0.719h-4.126v3.311h4.594v0.72h-5.386V33.033z"/>
                 <path fill="#ffffff" d="M145.374,33.033h1.02l5.169,7.436h0.024v-7.436h0.792v8.491h-1.02l-5.17-7.436h-0.023v7.436h-0.792V33.033
                     z"/>
                 <path fill="#ffffff" d="M156.593,33.753h-2.902v-0.72h6.597v0.72h-2.902v7.771h-0.792V33.753z"/>
                 <path fill="#ffffff" d="M85.459,47.434h2.626c4.414,0,4.594,3.622,4.594,4.245c0,0.624-0.18,4.246-4.594,4.246h-2.626V47.434z
                      M86.25,55.205h1.632c2.254,0,4.005-1.091,4.005-3.526c0-2.435-1.751-3.525-4.005-3.525H86.25V55.205z"/>
                 <path fill="#ffffff" d="M94.458,47.434h5.193v0.72H95.25v3.022h4.126v0.719H95.25v3.311h4.594v0.72h-5.386V47.434z"/>
                 <path fill="#ffffff" d="M100.375,47.434h0.852l2.734,7.448l2.759-7.448h0.84l-3.227,8.491h-0.792L100.375,47.434z"/>
                 <path fill="#ffffff" d="M108.69,47.434h5.193v0.72h-4.401v3.022h4.126v0.719h-4.126v3.311h4.594v0.72h-5.386V47.434z"/>
                 <path fill="#ffffff" d="M115.806,47.434h0.792v7.771h3.958v0.72h-4.75V47.434z"/>
                 <path fill="#ffffff" d="M125.644,47.218c2.591,0,4.39,1.871,4.39,4.461c0,2.591-1.799,4.462-4.39,4.462
                     c-2.59,0-4.39-1.871-4.39-4.462C121.254,49.089,123.054,47.218,125.644,47.218z M125.644,55.421c2.219,0,3.599-1.631,3.599-3.742
                     c0-2.11-1.38-3.741-3.599-3.741s-3.598,1.631-3.598,3.741C122.046,53.79,123.425,55.421,125.644,55.421z"/>
                 <path fill="#ffffff" d="M131.813,47.434h2.447c1.199,0,2.734,0.468,2.734,2.242c0,1.535-1.224,2.219-2.555,2.219h-1.835v4.03
                     h-0.792V47.434z M132.605,51.176h1.799c0.899,0,1.799-0.384,1.799-1.5c0-1.091-0.936-1.522-1.847-1.522h-1.751V51.176z"/>
                 <path fill="#ffffff" d="M138.618,47.434h1.188l3.095,7.124l3.094-7.124h1.128v8.491h-0.792v-7.483h-0.023l-3.238,7.483h-0.348
                     l-3.287-7.483h-0.023v7.483h-0.792V47.434z"/>
                 <path fill="#ffffff" d="M149.37,47.434h5.193v0.72h-4.401v3.022h4.126v0.719h-4.126v3.311h4.594v0.72h-5.386V47.434z"/>
                 <path fill="#ffffff" d="M156.485,47.434h1.02l5.169,7.436h0.024v-7.436h0.792v8.491h-1.02l-5.17-7.436h-0.023v7.436h-0.792V47.434
                     z"/>
                 <path fill="#ffffff" d="M167.704,48.153h-2.902v-0.72h6.597v0.72h-2.902v7.771h-0.792V48.153z"/>
             </g>
         </g>
        <linearGradient id="SVGID_1_" gradientUnits="userSpaceOnUse" x1="1.1704" y1="52.0576" x2="23.5504" y2="41.7511" gradientTransform="matrix(0.7071 -0.7071 0.7352 0.7352 -21.0148 41.0596)">
            <stop  offset="0" style="stop-color:#000000;stop-opacity:0"/>
            <stop  offset="1" style="stop-color:#000000;stop-opacity:0.22"/>
        </linearGradient>
        <path fill="url(#SVGID_1_)" d="M46.867,53.748l-0.046-17.379l-17.379-0.046L3.889,61.876c3.747,7.597,9.94,13.771,17.555,17.485
            L46.867,53.748z"/>
         <path fill-rule="evenodd" clip-rule="evenodd" fill="#FFFFFF" d="M32.887,36.458c0,0-2.063-2.088-4.863-0.382
             c-2.506,1.625-2.064,4.605-2.064,4.605s-5.565,1.139-5.565,7.106c0.125,5.964,6.047,6.022,6.047,6.022h9.313v-6.235h-2.931
             l4.929-5.575l4.931,5.575h-2.935v6.235h8.467c0,0,5.511,0.005,6.284-5.665c0.369-6.205-5.328-7.424-5.328-7.424
             s0.65-9.181-7.346-10.227C34.975,29.758,32.887,36.458,32.887,36.458z"/>
     </g>
</svg>