<svg version="1.1" id="Layer_1" xmlns="http://www.w3.org/2000/svg" xmlns:xlink="http://www.w3.org/1999/xlink" x="0px" y="0px"
	 width="90.417px" height="98.188px" viewBox="0 0 90.417 98.188" enable-background="new 0 0 90.417 98.188" xml:space="preserve">
	     <g>
             <circle fill="none" stroke="#FFFFFF" stroke-width="1.36" stroke-miterlimit="10" cx="45.237" cy="45.124" r="44.483"/>
         </g>
<g class="letters">
	<path fill="#FFFFFF" d="M51.723,40.712c-2.272,0-3.685,1.67-3.685,3.833c0,2.162,1.413,3.832,3.685,3.832s3.685-1.67,3.685-3.832
		C55.408,42.382,53.996,40.712,51.723,40.712z"/>
	<path fill="#FFFFFF" d="M31.932,40.712c-2.272,0-3.685,1.67-3.685,3.833c0,2.162,1.413,3.832,3.685,3.832s3.685-1.67,3.685-3.832
		C35.617,42.382,34.205,40.712,31.932,40.712z"/>
	<path fill="#FFFFFF" d="M45.238,0.639c-24.567,0-44.483,19.917-44.483,44.485c0,24.566,19.916,44.481,44.483,44.481
		c24.568,0,44.482-19.915,44.482-44.481C89.72,20.556,69.806,0.639,45.238,0.639z M17.593,48.893h-5.515v-8.697h5.319v0.737h-4.508
		v3.095h4.226v0.737h-4.226v3.391h4.705V48.893z M23.289,49.114c-2.653,0-4.496-1.917-4.496-4.569c0-2.653,1.842-4.569,4.496-4.569
		c1.179,0,2.236,0.393,2.997,1.363l-0.663,0.553c-0.541-0.811-1.462-1.179-2.334-1.179c-2.272,0-3.685,1.67-3.685,3.833
		c0,2.162,1.413,3.832,3.685,3.832c0.872,0,1.953-0.417,2.567-1.351l0.663,0.504C25.696,48.659,24.566,49.114,23.289,49.114z
		 M31.932,49.114c-2.653,0-4.496-1.917-4.496-4.569c0-2.653,1.842-4.569,4.496-4.569s4.496,1.916,4.496,4.569
		C36.428,47.197,34.585,49.114,31.932,49.114z M45.414,48.893H44.37l-5.294-7.616h-0.025v7.616h-0.811v-8.697h1.044l5.294,7.616
		h0.024v-7.616h0.811V48.893z M51.723,49.114c-2.653,0-4.496-1.917-4.496-4.569c0-2.653,1.842-4.569,4.496-4.569
		s4.495,1.916,4.495,4.569C56.218,47.197,54.376,49.114,51.723,49.114z M66.656,48.893h-0.811v-7.665H65.82l-3.316,7.665h-0.356
		l-3.365-7.665h-0.024v7.665h-0.811v-8.697h1.216l3.169,7.296l3.169-7.296h1.155V48.893z M69.757,48.893h-0.811v-8.697h0.811V48.893
		z M76.07,49.114c-2.654,0-4.496-1.917-4.496-4.569c0-2.653,1.842-4.569,4.496-4.569c1.179,0,2.235,0.393,2.996,1.363l-0.662,0.553
		c-0.541-0.811-1.463-1.179-2.334-1.179c-2.273,0-3.686,1.67-3.686,3.833c0,2.162,1.412,3.832,3.686,3.832
		c0.871,0,1.953-0.417,2.566-1.351l0.664,0.504C78.477,48.659,77.347,49.114,76.07,49.114z"/>
</g>
<g class="shape" opacity="0">
	<polygon fill="#FFFFFF" points="12.888,44.765 17.114,44.765 17.114,44.028 12.888,44.028 12.888,40.933 17.396,40.933 
		17.396,40.196 12.078,40.196 12.078,48.893 17.593,48.893 17.593,48.156 12.888,48.156 	"/>
	<path fill="#FFFFFF" d="M23.289,48.376c-2.272,0-3.685-1.67-3.685-3.832c0-2.162,1.413-3.833,3.685-3.833
		c0.872,0,1.793,0.369,2.334,1.179l0.663-0.553c-0.761-0.97-1.818-1.363-2.997-1.363c-2.653,0-4.496,1.916-4.496,4.569
		c0,2.653,1.842,4.569,4.496,4.569c1.277,0,2.408-0.455,3.23-1.584l-0.663-0.504C25.242,47.959,24.161,48.376,23.289,48.376z"/>
	<path fill="#FFFFFF" d="M31.932,39.975c-2.653,0-4.496,1.916-4.496,4.569c0,2.653,1.842,4.569,4.496,4.569s4.496-1.917,4.496-4.569
		C36.428,41.891,34.585,39.975,31.932,39.975z M31.932,48.376c-2.272,0-3.685-1.67-3.685-3.832c0-2.162,1.413-3.833,3.685-3.833
		s3.685,1.67,3.685,3.833C35.617,46.706,34.205,48.376,31.932,48.376z"/>
	<polygon fill="#FFFFFF" points="44.604,47.812 44.579,47.812 39.285,40.196 38.241,40.196 38.241,48.893 39.051,48.893 
		39.051,41.277 39.076,41.277 44.37,48.893 45.414,48.893 45.414,40.196 44.604,40.196 	"/>
	<path fill="#FFFFFF" d="M51.723,39.975c-2.653,0-4.496,1.916-4.496,4.569c0,2.653,1.842,4.569,4.496,4.569s4.495-1.917,4.495-4.569
		C56.218,41.891,54.376,39.975,51.723,39.975z M51.723,48.376c-2.272,0-3.685-1.67-3.685-3.832c0-2.162,1.413-3.833,3.685-3.833
		s3.685,1.67,3.685,3.833C55.408,46.706,53.996,48.376,51.723,48.376z"/>
	<polygon fill="#FFFFFF" points="62.332,47.492 59.163,40.196 57.947,40.196 57.947,48.893 58.757,48.893 58.757,41.228 
		58.782,41.228 62.147,48.893 62.503,48.893 65.82,41.228 65.845,41.228 65.845,48.893 66.656,48.893 66.656,40.196 65.5,40.196 	
		"/>
	<rect x="68.947" y="40.196" fill="#FFFFFF" width="0.811" height="8.697"/>
	<path fill="#FFFFFF" d="M78.636,47.025c-0.613,0.934-1.695,1.351-2.566,1.351c-2.273,0-3.686-1.67-3.686-3.832
		c0-2.162,1.412-3.833,3.686-3.833c0.871,0,1.793,0.369,2.334,1.179l0.662-0.553c-0.761-0.97-1.817-1.363-2.996-1.363
		c-2.654,0-4.496,1.916-4.496,4.569c0,2.653,1.842,4.569,4.496,4.569c1.277,0,2.407-0.455,3.23-1.584L78.636,47.025z"/>
</g>
</svg>
