<svg version="1.1" id="Layer_1" xmlns="http://www.w3.org/2000/svg" xmlns:xlink="http://www.w3.org/1999/xlink" x="0px" y="0px" width="85.94px" height="115.925px" viewBox="0 0 85.94 115.925" enable-background="new 0 0 85.94 115.925" xml:space="preserve">
    <g>
        <g class="letters" opacity="0.8">
            <path fill="#FFFFFF" d="M8.764,93.033h0.815l3.574,8.491h-0.888l-0.924-2.256H6.845l-0.959,2.256H5.058L8.764,93.033z
                 M9.136,93.896l-1.979,4.653h3.897L9.136,93.896z" />
            <path fill="#FFFFFF" d="M14.61,99.953c0.419,0.708,1.103,1.067,1.942,1.067c1.066,0,1.906-0.647,1.906-1.668
                c0-2.375-4.378-0.982-4.378-4.209c0-1.512,1.296-2.326,2.724-2.326c0.924,0,1.738,0.312,2.313,1.066l-0.685,0.491
                c-0.396-0.552-0.922-0.839-1.653-0.839c-1.021,0-1.907,0.527-1.907,1.605c0,2.556,4.377,1.021,4.377,4.211
                c0,1.535-1.259,2.387-2.638,2.387c-1.116,0-2.101-0.359-2.759-1.283L14.61,99.953z" />
            <path fill="#FFFFFF" d="M21.282,99.953c0.419,0.708,1.103,1.067,1.942,1.067c1.066,0,1.906-0.647,1.906-1.668
                c0-2.375-4.377-0.982-4.377-4.209c0-1.512,1.295-2.326,2.723-2.326c0.924,0,1.738,0.312,2.313,1.066l-0.684,0.491
                c-0.396-0.552-0.923-0.839-1.654-0.839c-1.021,0-1.907,0.527-1.907,1.605c0,2.556,4.377,1.021,4.377,4.211
                c0,1.535-1.259,2.387-2.638,2.387c-1.116,0-2.101-0.359-2.759-1.283L21.282,99.953z" />
            <path fill="#FFFFFF" d="M27.724,93.033h5.193v0.72h-4.4v3.021h4.125v0.72h-4.125v3.312h4.594v0.719h-5.387V93.033z" />
            <path fill="#FFFFFF" d="M35.07,99.953c0.419,0.708,1.104,1.067,1.941,1.067c1.067,0,1.908-0.647,1.908-1.668
                c0-2.375-4.379-0.982-4.379-4.209c0-1.512,1.297-2.326,2.723-2.326c0.924,0,1.74,0.312,2.314,1.066l-0.684,0.491
                c-0.396-0.552-0.924-0.839-1.654-0.839c-1.02,0-1.907,0.527-1.907,1.605c0,2.556,4.378,1.021,4.378,4.211
                c0,1.535-1.26,2.387-2.639,2.387c-1.116,0-2.1-0.359-2.76-1.283L35.07,99.953z" />
            <path fill="#FFFFFF" d="M41.741,99.953c0.419,0.708,1.104,1.067,1.942,1.067c1.066,0,1.906-0.647,1.906-1.668
                c0-2.375-4.377-0.982-4.377-4.209c0-1.512,1.295-2.326,2.723-2.326c0.924,0,1.738,0.312,2.313,1.066l-0.684,0.491
                c-0.396-0.552-0.923-0.839-1.654-0.839c-1.021,0-1.907,0.527-1.907,1.605c0,2.556,4.377,1.021,4.377,4.211
                c0,1.535-1.259,2.387-2.638,2.387c-1.116,0-2.101-0.359-2.759-1.283L41.741,99.953z" />
            <path fill="#FFFFFF" d="M48.101,93.033h1.188l3.096,7.124l3.094-7.124h1.128v8.491h-0.792v-7.483h-0.023l-3.238,7.483h-0.349
                l-3.286-7.483h-0.023v7.483h-0.791v-8.491H48.101z" />
            <path fill="#FFFFFF" d="M58.853,93.033h5.193v0.72h-4.402v3.021h4.127v0.72h-4.127v3.312h4.595v0.719h-5.386V93.033L58.853,93.033
                z" />
            <path fill="#FFFFFF" d="M65.968,93.033h1.021l5.169,7.436h0.023v-7.436h0.793v8.491h-1.021l-5.17-7.437h-0.022v7.437h-0.793
                V93.033L65.968,93.033z" />
            <path fill="#FFFFFF" d="M77.187,93.753h-2.901v-0.72h6.597v0.72h-2.901v7.771h-0.792v-7.771H77.187z" />
            <path fill="#FFFFFF" d="M0,107.435h2.626c4.414,0,4.594,3.621,4.594,4.244c0,0.624-0.181,4.246-4.594,4.246H0V107.435z
                 M0.791,115.205h1.632c2.254,0,4.005-1.091,4.005-3.526c0-2.435-1.751-3.525-4.005-3.525H0.791V115.205z" />
            <path fill="#FFFFFF" d="M8.999,107.435h5.193v0.719h-4.4v3.022h4.125v0.72H9.792v3.311h4.594v0.72H8.999V107.435z" />
            <path fill="#FFFFFF" d="M14.917,107.435h0.852l2.734,7.447l2.759-7.447h0.84l-3.228,8.49h-0.791L14.917,107.435z" />
            <path fill="#FFFFFF" d="M23.231,107.435h5.193v0.719h-4.401v3.022h4.126v0.72h-4.126v3.311h4.595v0.72h-5.387V107.435z" />
            <path fill="#FFFFFF" d="M30.347,107.435h0.792v7.771h3.958v0.72h-4.75V107.435z" />
            <path fill="#FFFFFF" d="M40.185,107.218c2.591,0,4.39,1.871,4.39,4.461c0,2.592-1.799,4.463-4.39,4.463
                c-2.59,0-4.39-1.871-4.39-4.463C35.795,109.089,37.595,107.218,40.185,107.218z M40.185,115.421c2.219,0,3.599-1.631,3.599-3.742
                c0-2.109-1.38-3.74-3.599-3.74c-2.22,0-3.599,1.631-3.599,3.74C36.586,113.79,37.965,115.421,40.185,115.421z" />
            <path fill="#FFFFFF" d="M46.354,107.435h2.447c1.199,0,2.734,0.467,2.734,2.241c0,1.535-1.225,2.22-2.556,2.22h-1.835v4.029
                h-0.792L46.354,107.435L46.354,107.435z M47.146,111.176h1.799c0.899,0,1.8-0.384,1.8-1.5c0-1.091-0.937-1.522-1.848-1.522h-1.751
                V111.176L47.146,111.176z" />
            <path fill="#FFFFFF" d="M53.159,107.435h1.188l3.095,7.123l3.094-7.123h1.129v8.49h-0.793v-7.482h-0.022l-3.238,7.482h-0.348
                l-3.287-7.482h-0.022v7.482h-0.793v-8.49H53.159z" />
            <path fill="#FFFFFF" d="M63.911,107.435h5.193v0.719h-4.4v3.022h4.125v0.72h-4.125v3.311h4.594v0.72h-5.387V107.435
                L63.911,107.435z" />
            <path fill="#FFFFFF" d="M71.026,107.435h1.02l5.17,7.436h0.023v-7.436h0.793v8.49h-1.021l-5.171-7.436h-0.022v7.436h-0.792
                V107.435L71.026,107.435z" />
            <path fill="#FFFFFF" d="M82.245,108.153h-2.902v-0.721h6.598v0.721h-2.902v7.771h-0.791v-7.771H82.245z" />
        </g>
        <g>
            <g>
                <polygon class="shape" fill="#ACADA3" points="9.091,90.078 17.406,78.703 25.787,67.376 42.652,44.802 59.664,22.336 68.221,11.144 76.845,0 
                68.531,11.376 60.15,22.703 43.284,45.276 26.271,67.741 17.714,78.935            " />
                <circle class="shape" fill="#ACADA3" cx="42.97" cy="45.039" r="38.21" />
            </g>

            <linearGradient id="SVGID_1_" gradientUnits="userSpaceOnUse" x1="-306.8662" y1="0.2529" x2="-284.4867" y2="10.5592" gradientTransform="matrix(0.7071 -0.7071 -0.7352 -0.7352 240.0155 -138.2941)">
                <stop offset="0" style="stop-color:#000000;stop-opacity:0" />
                <stop offset="1" style="stop-color:#000000;stop-opacity:0.22" />
            </linearGradient>
            <path fill="url(#SVGID_1_)" d="M51.627,53.748l-0.047-17.379l-17.379-0.046L8.649,61.876c3.747,7.598,9.94,13.771,17.555,17.484
            L51.627,53.748z" />
            <path fill="#FFFFFF" d="M37.647,36.458c0,0-2.062-2.088-4.863-0.382c-2.506,1.625-2.063,4.605-2.063,4.605
            s-5.565,1.139-5.565,7.106c0.125,5.964,6.047,6.022,6.047,6.022h9.313v-6.235h-2.931l4.929-5.575l4.931,5.575h-2.935v6.235h8.467
            c0,0,5.511,0.004,6.284-5.666c0.369-6.205-5.328-7.424-5.328-7.424s0.649-9.181-7.346-10.227
            C39.735,29.758,37.647,36.458,37.647,36.458z" />
        </g>
    </g>
</svg>
