<svg version="1.1" id="Layer_1" xmlns="http://www.w3.org/2000/svg" xmlns:xlink="http://www.w3.org/1999/xlink" x="0px" y="0px"
	 width="90.417px" height="98.188px" viewBox="0 0 90.417 98.188" enable-background="new 0 0 90.417 98.188" xml:space="preserve">
    <g>
     <circle fill="none" stroke="#FFFFFF" stroke-width="1.36" stroke-miterlimit="10" cx="45.237" cy="45.124" r="44.483"/>
    </g>
    <g class="letters">
        <path fill="#FFFFFF" d="M45.238,0.639c-24.567,0-44.483,19.917-44.483,44.485c0,24.566,19.916,44.481,44.483,44.481
            c24.568,0,44.482-19.915,44.482-44.481C89.72,20.556,69.806,0.639,45.238,0.639z M9.84,40.933H6.867v7.959H6.057v-7.959H3.084
            v-0.737H9.84V40.933z M16.69,48.893h-5.515v-8.697h5.319v0.737h-4.508v3.095h4.226v0.737h-4.226v3.391h4.705V48.893z
             M22.386,49.114c-2.653,0-4.496-1.917-4.496-4.569c0-2.653,1.842-4.569,4.496-4.569c1.179,0,2.236,0.393,2.997,1.363l-0.663,0.553
            c-0.541-0.811-1.462-1.179-2.334-1.179c-2.272,0-3.685,1.67-3.685,3.833c0,2.162,1.413,3.832,3.685,3.832
            c0.872,0,1.953-0.417,2.567-1.351l0.663,0.504C24.794,48.659,23.664,49.114,22.386,49.114z M33.584,48.893h-0.811v-4.127h-4.864
            v4.127h-0.811v-8.697h0.811v3.833h4.864v-3.833h0.811V48.893z M43.136,48.893h-1.044l-5.294-7.616h-0.025v7.616h-0.811v-8.697
            h1.044l5.294,7.616h0.024v-7.616h0.811V48.893z M49.445,49.114c-2.653,0-4.496-1.917-4.496-4.569c0-2.653,1.842-4.569,4.496-4.569
            c2.654,0,4.496,1.916,4.496,4.569C53.941,47.197,52.099,49.114,49.445,49.114z M60.619,48.893h-4.864v-8.697h0.811v7.96h4.054
            V48.893z M65.824,49.114c-2.653,0-4.496-1.917-4.496-4.569c0-2.653,1.843-4.569,4.496-4.569s4.496,1.916,4.496,4.569
            C70.32,47.197,68.477,49.114,65.824,49.114z M79.306,48.328c-1.008,0.577-2.113,0.786-3.243,0.786
            c-2.653,0-4.495-1.917-4.495-4.569c0-2.653,1.842-4.569,4.495-4.569c1.29,0,2.334,0.393,3.132,1.204l-0.589,0.614
            c-0.528-0.639-1.597-1.081-2.543-1.081c-2.272,0-3.685,1.67-3.685,3.833c0,2.162,1.412,3.832,3.685,3.832
            c0.934,0,1.769-0.123,2.433-0.516v-2.923h-2.088V44.2h2.898V48.328z M84.423,48.893h-0.811v-3.747l-3.193-4.95h0.971l2.629,4.127
            l2.689-4.127h0.909l-3.194,4.95V48.893z"/>
        <path fill="#FFFFFF" d="M65.824,40.712c-2.272,0-3.686,1.67-3.686,3.833c0,2.162,1.413,3.832,3.686,3.832s3.686-1.67,3.686-3.832
            C69.509,42.382,68.096,40.712,65.824,40.712z"/>
        <path fill="#FFFFFF" d="M49.445,40.712c-2.272,0-3.685,1.67-3.685,3.833c0,2.162,1.413,3.832,3.685,3.832
            c2.273,0,3.685-1.67,3.685-3.832C53.13,42.382,51.718,40.712,49.445,40.712z"/>
    </g>
    <g class="shape" opacity="0">
        <polygon fill="#FFFFFF" points="3.084,40.933 6.057,40.933 6.057,48.893 6.867,48.893 6.867,40.933 9.84,40.933 9.84,40.196
            3.084,40.196 	"/>
        <polygon fill="#FFFFFF" points="11.986,44.765 16.211,44.765 16.211,44.028 11.986,44.028 11.986,40.933 16.494,40.933
            16.494,40.196 11.175,40.196 11.175,48.893 16.69,48.893 16.69,48.156 11.986,48.156 	"/>
        <path fill="#FFFFFF" d="M22.386,48.376c-2.272,0-3.685-1.67-3.685-3.832c0-2.162,1.413-3.833,3.685-3.833
            c0.872,0,1.793,0.369,2.334,1.179l0.663-0.553c-0.761-0.97-1.818-1.363-2.997-1.363c-2.653,0-4.496,1.916-4.496,4.569
            c0,2.653,1.842,4.569,4.496,4.569c1.277,0,2.408-0.455,3.23-1.584l-0.663-0.504C24.339,47.959,23.258,48.376,22.386,48.376z"/>
        <polygon fill="#FFFFFF" points="32.773,44.028 27.909,44.028 27.909,40.196 27.099,40.196 27.099,48.893 27.909,48.893
            27.909,44.765 32.773,44.765 32.773,48.893 33.584,48.893 33.584,40.196 32.773,40.196 	"/>
        <polygon fill="#FFFFFF" points="42.326,47.812 42.301,47.812 37.007,40.196 35.963,40.196 35.963,48.893 36.773,48.893
            36.773,41.277 36.798,41.277 42.092,48.893 43.136,48.893 43.136,40.196 42.326,40.196 	"/>
        <path fill="#FFFFFF" d="M49.445,39.975c-2.653,0-4.496,1.916-4.496,4.569c0,2.653,1.842,4.569,4.496,4.569
            c2.654,0,4.496-1.917,4.496-4.569C53.941,41.891,52.099,39.975,49.445,39.975z M49.445,48.376c-2.272,0-3.685-1.67-3.685-3.832
            c0-2.162,1.413-3.833,3.685-3.833c2.273,0,3.685,1.67,3.685,3.833C53.13,46.706,51.718,48.376,49.445,48.376z"/>
        <polygon fill="#FFFFFF" points="56.565,40.196 55.754,40.196 55.754,48.893 60.619,48.893 60.619,48.156 56.565,48.156 	"/>
        <path fill="#FFFFFF" d="M65.824,39.975c-2.653,0-4.496,1.916-4.496,4.569c0,2.653,1.843,4.569,4.496,4.569s4.496-1.917,4.496-4.569
            C70.32,41.891,68.477,39.975,65.824,39.975z M65.824,48.376c-2.272,0-3.686-1.67-3.686-3.832c0-2.162,1.413-3.833,3.686-3.833
            s3.686,1.67,3.686,3.833C69.509,46.706,68.096,48.376,65.824,48.376z"/>
        <path fill="#FFFFFF" d="M76.408,44.938h2.088v2.923c-0.664,0.393-1.499,0.516-2.433,0.516c-2.272,0-3.685-1.67-3.685-3.832
            c0-2.162,1.412-3.833,3.685-3.833c0.946,0,2.015,0.442,2.543,1.081l0.589-0.614c-0.798-0.811-1.842-1.204-3.132-1.204
            c-2.653,0-4.495,1.916-4.495,4.569c0,2.653,1.842,4.569,4.495,4.569c1.13,0,2.235-0.209,3.243-0.786V44.2h-2.898V44.938z"/>
        <polygon fill="#FFFFFF" points="86.708,40.196 84.019,44.323 81.39,40.196 80.419,40.196 83.613,45.146 83.613,48.893
            84.423,48.893 84.423,45.146 87.618,40.196 	"/>
    </g>
</svg>