<svg version="1.1" xmlns="http://www.w3.org/2000/svg" x="0px" y="0px" xml:space="preserve" width="98.082" height="90.062" viewBox="0 0 90.062 98.082">
    <g>
        <g class="circle">
            <circle stroke="#ffffff" fill-opacity="0" stroke-miterlimit="10" cx="45.062" cy="45.018" r="44.483"/>
            <polygon fill="#FFFFFF" opacity="0.65" points="18.135,80.479 15.006,84.707 5.229,98.082 15.367,84.979 18.581,80.775 	"/>
        </g>
        <g class="shape" opacity="0.15">
            <path fill="#FFFFFF" d="M30.947,42.387c0-1.216-0.86-1.56-1.892-1.56h-1.793v3.021h1.683C30.628,43.849,30.947,42.927,30.947,42.387z"/>
            <path fill="#FFFFFF" class="shape" d="M45.063,0.533C20.496,0.533,0.58,20.45,0.58,45.018C0.58,69.586,20.496,89.5,45.063,89.5
                c24.569,0,44.482-19.914,44.482-44.482C89.546,20.45,69.633,0.533,45.063,0.533z M13.697,44.66h-1.879v4.127h-0.811v-8.697h2.506
                c1.229,0,2.801,0.479,2.801,2.298C16.313,43.959,15.061,44.66,13.697,44.66z M24.233,45.458c0,1.854-0.798,3.549-3.169,3.549
                c-2.371,0-3.169-1.695-3.169-3.549v-5.369h0.811v5.16c0,1.24,0.332,3.021,2.358,3.021c2.027,0,2.358-1.781,2.358-3.021v-5.16h0.811
                V45.458z M29.228,48.787h-2.776v-8.697h2.506c1.327,0,2.801,0.332,2.801,2.298c0,0.884-0.528,1.597-1.56,1.806v0.024
                c1.142,0.086,1.94,0.921,1.94,2.138C32.139,48.357,30.407,48.787,29.228,48.787z M39.051,48.787h-4.864v-8.697h0.811v7.961h4.054
                V48.787z M41.136,48.787h-0.811v-8.697h0.811V48.787z M45.802,49.007c-1.142,0-2.149-0.368-2.825-1.314l0.774-0.516
                c0.43,0.725,1.13,1.094,1.99,1.094c1.094,0,1.953-0.664,1.953-1.707c0-2.433-4.483-1.008-4.483-4.312
                c0-1.547,1.327-2.383,2.789-2.383c0.946,0,1.781,0.32,2.371,1.094l-0.7,0.504c-0.405-0.565-0.946-0.86-1.695-0.86
                c-1.044,0-1.953,0.54-1.953,1.646c0,2.617,4.483,1.045,4.483,4.312C48.504,48.136,47.215,49.007,45.802,49.007z M56.829,48.787
                h-0.812V44.66h-4.863v4.127h-0.811v-8.697h0.811v3.833h4.863v-3.833h0.812V48.787z M60.018,48.787h-0.811v-8.697h0.811V48.787z
                 M69.573,48.787h-1.044l-5.294-7.615h-0.024v7.615H62.4v-8.697h1.043l5.295,7.616h0.024v-7.616h0.811V48.787z M75.883,49.007
                c-2.654,0-4.496-1.916-4.496-4.568c0-2.654,1.842-4.57,4.496-4.57c1.289,0,2.334,0.394,3.132,1.204l-0.59,0.614
                c-0.528-0.639-1.597-1.081-2.542-1.081c-2.273,0-3.686,1.671-3.686,3.833c0,2.161,1.412,3.832,3.686,3.832
                c0.934,0,1.769-0.123,2.432-0.516v-2.924h-2.088v-0.737h2.898v4.128C78.118,48.798,77.013,49.007,75.883,49.007z"/>
            <path fill="#FFFFFF" d="M29.24,44.585h-1.978v3.465h1.855c1.904,0,2.211-1.057,2.211-1.672C31.328,45.089,30.272,44.585,29.24,44.585z"/>
            <path fill="#FFFFFF" d="M13.611,40.828h-1.793v3.095h1.843c0.921,0,1.842-0.394,1.842-1.535C15.502,41.269,14.544,40.828,13.611,40.828z"/>
        </g>
        <g class="letters" opacity="1">
            <path fill="#FFFFFF" d="M23.422,45.25c0,1.24-0.332,3.021-2.358,3.021c-2.026,0-2.358-1.781-2.358-3.021v-5.16h-0.811v5.369
                c0,1.854,0.798,3.549,3.169,3.549c2.371,0,3.169-1.695,3.169-3.549v-5.369h-0.811V45.25z"/>
            <path fill="#FFFFFF" d="M13.513,40.089h-2.506v8.697h0.811V44.66h1.879c1.364,0,2.617-0.7,2.617-2.272
                C16.313,40.569,14.741,40.089,13.513,40.089z M13.66,43.922h-1.843v-3.095h1.793c0.934,0,1.892,0.441,1.892,1.56
                C15.502,43.529,14.582,43.922,13.66,43.922z"/>
            <path fill="#FFFFFF" d="M30.198,44.217v-0.024c1.032-0.209,1.56-0.922,1.56-1.806c0-1.966-1.474-2.298-2.801-2.298h-2.506v8.697
                h2.776c1.179,0,2.911-0.43,2.911-2.432C32.139,45.138,31.34,44.303,30.198,44.217z M27.262,40.828h1.793
                c1.032,0,1.892,0.344,1.892,1.56c0,0.54-0.319,1.462-2.002,1.462h-1.683V40.828z M29.117,48.05h-1.855v-3.465h1.978
                c1.032,0,2.088,0.504,2.088,1.793C31.328,46.994,31.021,48.05,29.117,48.05z"/>
            <polygon fill="#FFFFFF" points="34.997,40.089 34.187,40.089 34.187,48.787 39.051,48.787 39.051,48.05 34.997,48.05 	"/>
            <rect x="40.325" y="40.089" fill="#FFFFFF" width="0.811" height="8.697"/>
            <path fill="#FFFFFF" d="M44.021,42.251c0-1.105,0.909-1.646,1.953-1.646c0.749,0,1.29,0.295,1.695,0.86l0.7-0.504
                c-0.59-0.773-1.425-1.094-2.371-1.094c-1.462,0-2.789,0.836-2.789,2.383c0,3.305,4.483,1.88,4.483,4.312
                c0,1.043-0.859,1.707-1.953,1.707c-0.859,0-1.56-0.369-1.99-1.094l-0.774,0.516c0.676,0.946,1.683,1.314,2.825,1.314
                c1.413,0,2.702-0.871,2.702-2.443C48.504,43.296,44.021,44.869,44.021,42.251z"/>
            <polygon fill="#FFFFFF" points="56.018,43.922 51.154,43.922 51.154,40.089 50.344,40.089 50.344,48.787 51.154,48.787
                51.154,44.66 56.018,44.66 56.018,48.787 56.829,48.787 56.829,40.089 56.018,40.089 	"/>
            <rect x="59.207" y="40.089" fill="#FFFFFF" width="0.811" height="8.697"/>
            <polygon fill="#FFFFFF" points="68.763,47.706 68.738,47.706 63.443,40.089 62.4,40.089 62.4,48.787 63.211,48.787 63.211,41.171
                63.235,41.171 68.529,48.787 69.573,48.787 69.573,40.089 68.763,40.089 	"/>
            <path fill="#FFFFFF" d="M76.227,44.094v0.737h2.088v2.924c-0.663,0.393-1.498,0.516-2.432,0.516c-2.273,0-3.686-1.671-3.686-3.832
                c0-2.162,1.412-3.833,3.686-3.833c0.945,0,2.014,0.442,2.542,1.081l0.59-0.614c-0.798-0.811-1.843-1.204-3.132-1.204
                c-2.654,0-4.496,1.916-4.496,4.57c0,2.652,1.842,4.568,4.496,4.568c1.13,0,2.235-0.209,3.242-0.785v-4.128H76.227z"/>
        </g>
    </g>
</svg>