<svg version="1.1" id="Layer_1" xmlns="http://www.w3.org/2000/svg" xmlns:xlink="http://www.w3.org/1999/xlink" x="0px" y="0px"
	 width="90.333px" height="90.333px" viewBox="0 0 90.333 90.333" enable-background="new 0 0 90.333 90.333" xml:space="preserve">
	 <g>
	     <g class="circle">
             <circle fill="none" stroke="#FFFFFF" stroke-width="1.36" stroke-miterlimit="10" cx="45.167" cy="45.168" r="44.483"/>
             <polygon fill="#FFFFFF" opacity="0.65" points="18.135,80.479 15.006,84.707 5.229,98.082 15.367,84.979 18.581,80.775 	"/>
         </g>
         <g class="shape" opacity="0.15">
         	<path fill="#FFFFFF" d="M61.195,40.711c-2.272,0-3.686,1.67-3.686,3.833c0,2.162,1.413,3.832,3.686,3.832s3.686-1.67,3.686-3.832
         		C64.88,42.381,63.467,40.711,61.195,40.711z"/>
         	<polygon fill="#FFFFFF" points="41.23,45.845 45.222,45.845 43.257,41.08 	"/>
         	<path fill="#FFFFFF" d="M45.238,0.639c-24.567,0-44.483,19.917-44.483,44.485c0,24.566,19.916,44.481,44.483,44.481
         		c24.569,0,44.482-19.915,44.482-44.481C89.72,20.556,69.807,0.639,45.238,0.639z M24.425,48.892h-0.811v-7.665h-0.025l-3.316,7.665
         		h-0.356l-3.365-7.665h-0.025v7.665h-0.811v-8.697h1.216l3.169,7.296l3.169-7.296h1.155V48.892z M32.231,48.892h-5.515v-8.697h5.319
         		v0.737h-4.508v3.095h4.226v0.737h-4.226v3.391h4.705V48.892z M36.736,48.892h-0.811v-7.959h-2.973v-0.737h6.756v0.737h-2.973
         		V48.892z M46.463,48.892l-0.946-2.309h-4.606l-0.982,2.309h-0.848l3.795-8.697h0.835l3.66,8.697H46.463z M52.551,49.113
         		c-2.653,0-4.496-1.917-4.496-4.569c0-2.653,1.842-4.569,4.496-4.569c1.179,0,2.235,0.393,2.997,1.363l-0.663,0.553
         		c-0.54-0.811-1.462-1.179-2.334-1.179c-2.272,0-3.685,1.67-3.685,3.833c0,2.162,1.413,3.832,3.685,3.832
         		c0.872,0,1.953-0.417,2.567-1.351l0.663,0.504C54.958,48.658,53.829,49.113,52.551,49.113z M61.195,49.113
         		c-2.653,0-4.496-1.917-4.496-4.569c0-2.653,1.843-4.569,4.496-4.569s4.496,1.916,4.496,4.569
         		C65.691,47.196,63.848,49.113,61.195,49.113z M74.677,48.327c-1.008,0.577-2.113,0.786-3.243,0.786
         		c-2.653,0-4.495-1.917-4.495-4.569c0-2.653,1.842-4.569,4.495-4.569c1.29,0,2.334,0.393,3.132,1.204l-0.589,0.614
         		c-0.528-0.639-1.597-1.081-2.543-1.081c-2.272,0-3.685,1.67-3.685,3.833c0,2.162,1.412,3.832,3.685,3.832
         		c0.934,0,1.769-0.123,2.433-0.516v-2.923h-2.088v-0.737h2.898V48.327z"/>
         </g>
         <g class="letters" opacity="1">
         	<polygon fill="#FFFFFF" points="20.101,47.491 16.932,40.195 15.716,40.195 15.716,48.892 16.526,48.892 16.526,41.227
         		16.551,41.227 19.917,48.892 20.273,48.892 23.589,41.227 23.614,41.227 23.614,48.892 24.425,48.892 24.425,40.195 23.27,40.195
         		"/>
         	<polygon fill="#FFFFFF" points="27.527,44.764 31.752,44.764 31.752,44.027 27.527,44.027 27.527,40.932 32.035,40.932
         		32.035,40.195 26.716,40.195 26.716,48.892 32.231,48.892 32.231,48.155 27.527,48.155 	"/>
         	<polygon fill="#FFFFFF" points="39.708,40.195 32.953,40.195 32.953,40.932 35.925,40.932 35.925,48.892 36.736,48.892
         		36.736,40.932 39.708,40.932 	"/>
         	<path fill="#FFFFFF" d="M42.876,40.195l-3.795,8.697h0.848l0.982-2.309h4.606l0.946,2.309h0.909l-3.66-8.697H42.876z M41.23,45.845
         		l2.027-4.766l1.965,4.766H41.23z"/>
         	<path fill="#FFFFFF" d="M52.551,48.375c-2.272,0-3.685-1.67-3.685-3.832c0-2.162,1.413-3.833,3.685-3.833
         		c0.872,0,1.794,0.369,2.334,1.179l0.663-0.553c-0.762-0.97-1.818-1.363-2.997-1.363c-2.653,0-4.496,1.916-4.496,4.569
         		c0,2.653,1.842,4.569,4.496,4.569c1.277,0,2.407-0.455,3.23-1.584l-0.663-0.504C54.504,47.958,53.423,48.375,52.551,48.375z"/>
         	<path fill="#FFFFFF" d="M61.195,39.974c-2.653,0-4.496,1.916-4.496,4.569c0,2.653,1.843,4.569,4.496,4.569s4.496-1.917,4.496-4.569
         		C65.691,41.89,63.848,39.974,61.195,39.974z M61.195,48.375c-2.272,0-3.686-1.67-3.686-3.832c0-2.162,1.413-3.833,3.686-3.833
         		s3.686,1.67,3.686,3.833C64.88,46.705,63.467,48.375,61.195,48.375z"/>
         	<path fill="#FFFFFF" d="M71.779,44.937h2.088v2.923c-0.664,0.393-1.499,0.516-2.433,0.516c-2.272,0-3.685-1.67-3.685-3.832
         		c0-2.162,1.412-3.833,3.685-3.833c0.946,0,2.015,0.442,2.543,1.081l0.589-0.614c-0.798-0.811-1.842-1.204-3.132-1.204
         		c-2.653,0-4.495,1.916-4.495,4.569c0,2.653,1.842,4.569,4.495,4.569c1.13,0,2.235-0.209,3.243-0.786v-4.127h-2.898V44.937z"/>
         </g>
	 </g>
</svg>