<svg version="1.1" id="Layer_1" xmlns="http://www.w3.org/2000/svg" xmlns:xlink="http://www.w3.org/1999/xlink" x="0px" y="0px"
	 width="90.417px" height="98.188px" viewBox="0 0 90.417 98.188" enable-background="new 0 0 90.417 98.188" xml:space="preserve">
    <g>
        <circle fill="none" stroke="#FFFFFF" stroke-width="1.36" stroke-miterlimit="10" cx="45.237" cy="45.124" r="44.483"/>
    </g>
    <g class="letters">
        <path fill="#FFFFFF" d="M44.987,40.933h-1.67v7.223h1.67c2.31,0,4.103-1.118,4.103-3.611
            C49.089,42.051,47.296,40.933,44.987,40.933z"/>
        <path fill="#FFFFFF" d="M21.734,44.692h-1.978v3.464h1.855c1.904,0,2.211-1.057,2.211-1.671
            C23.822,45.195,22.766,44.692,21.734,44.692z"/>
        <polygon fill="#FFFFFF" points="52.734,45.846 56.726,45.846 54.76,41.081 	"/>
        <path fill="#FFFFFF" d="M23.441,42.493c0-1.216-0.86-1.56-1.892-1.56h-1.793v3.021h1.683
            C23.122,43.955,23.441,43.033,23.441,42.493z"/>
        <polygon fill="#FFFFFF" points="66.524,45.846 70.516,45.846 68.55,41.081 	"/>
        <path fill="#FFFFFF" d="M45.238,0.639c-24.567,0-44.483,19.917-44.483,44.485c0,24.566,19.916,44.481,44.483,44.481
            c24.568,0,44.482-19.915,44.482-44.481C89.72,20.556,69.806,0.639,45.238,0.639z M21.721,48.893h-2.776v-8.697h2.506
            c1.327,0,2.801,0.332,2.801,2.297c0,0.884-0.528,1.597-1.56,1.806v0.024c1.142,0.086,1.94,0.921,1.94,2.137
            C24.632,48.463,22.9,48.893,21.721,48.893z M27.491,48.893H26.68v-8.697h0.811V48.893z M37.045,48.328
            c-1.007,0.577-2.112,0.786-3.243,0.786c-2.653,0-4.496-1.917-4.496-4.569c0-2.653,1.842-4.569,4.496-4.569
            c1.29,0,2.334,0.393,3.132,1.204l-0.59,0.614c-0.528-0.639-1.597-1.081-2.542-1.081c-2.272,0-3.685,1.67-3.685,3.833
            c0,2.162,1.413,3.832,3.685,3.832c0.934,0,1.769-0.123,2.432-0.516v-2.923h-2.088V44.2h2.898V48.328z M45.196,48.893h-2.69v-8.697
            h2.69c4.52,0,4.705,3.71,4.705,4.349S49.716,48.893,45.196,48.893z M57.966,48.893l-0.945-2.309h-4.607l-0.982,2.309h-0.848
            l3.796-8.697h0.835l3.66,8.697H57.966z M62.03,48.893h-0.811v-7.959h-2.973v-0.737h6.756v0.737H62.03V48.893z M71.757,48.893
            l-0.946-2.309h-4.606l-0.982,2.309h-0.848l3.795-8.697h0.836l3.66,8.697H71.757z"/>
    </g>
    <g class="shape" opacity="0">
        <path fill="#FFFFFF" d="M22.692,44.323v-0.024c1.032-0.209,1.56-0.921,1.56-1.806c0-1.965-1.474-2.297-2.801-2.297h-2.506v8.697
            h2.776c1.179,0,2.911-0.43,2.911-2.432C24.632,45.245,23.834,44.409,22.692,44.323z M19.756,40.933h1.793
            c1.032,0,1.892,0.344,1.892,1.56c0,0.54-0.319,1.461-2.002,1.461h-1.683V40.933z M21.611,48.156h-1.855v-3.464h1.978
            c1.032,0,2.088,0.503,2.088,1.793C23.822,47.099,23.515,48.156,21.611,48.156z"/>
        <rect x="26.68" y="40.196" fill="#FFFFFF" width="0.811" height="8.697"/>
        <path fill="#FFFFFF" d="M34.147,44.938h2.088v2.923c-0.663,0.393-1.499,0.516-2.432,0.516c-2.272,0-3.685-1.67-3.685-3.832
            c0-2.162,1.413-3.833,3.685-3.833c0.946,0,2.015,0.442,2.542,1.081l0.59-0.614c-0.798-0.811-1.842-1.204-3.132-1.204
            c-2.653,0-4.496,1.916-4.496,4.569c0,2.653,1.842,4.569,4.496,4.569c1.13,0,2.236-0.209,3.243-0.786V44.2h-2.898V44.938z"/>
        <path fill="#FFFFFF" d="M45.196,40.196h-2.69v8.697h2.69c4.52,0,4.705-3.709,4.705-4.348S49.716,40.196,45.196,40.196z
             M44.987,48.156h-1.67v-7.223h1.67c2.31,0,4.103,1.118,4.103,3.611C49.089,47.038,47.296,48.156,44.987,48.156z"/>
        <polygon fill="#FFFFFF" points="65.002,40.196 58.247,40.196 58.247,40.933 61.219,40.933 61.219,48.893 62.03,48.893
            62.03,40.933 65.002,40.933 	"/>
        <path fill="#FFFFFF" d="M54.379,40.196l-3.796,8.697h0.848l0.982-2.309h4.607l0.945,2.309h0.908l-3.66-8.697H54.379z
             M52.734,45.846l2.026-4.766l1.966,4.766H52.734z"/>
        <path fill="#FFFFFF" d="M68.169,40.196l-3.795,8.697h0.848l0.982-2.309h4.606l0.946,2.309h0.908l-3.66-8.697H68.169z
             M66.524,45.846l2.026-4.766l1.966,4.766H66.524z"/>
    </g>
</svg>
