<svg version="1.1" xmlns="http://www.w3.org/2000/svg" x="0px" y="0px" xml:space="preserve" width="98.082" height="90.062" viewBox="0 0 90.062 98.082">
    <g>
        <g class="circle">
            <circle fill="none" stroke="#FFFFFF" stroke-width="1.36" stroke-miterlimit="10" cx="45.167" cy="45.168" r="44.483"/>
            <polygon fill="#FFFFFF" opacity="0.65" points="18.135,80.479 15.006,84.707 5.229,98.082 15.367,84.979 18.581,80.775 	"/>
        </g>
        <g class="shape" opacity="0">
            <path fill="#FFFFFF" d="M45.166,0.684C20.599,0.684,0.684,20.6,0.684,45.168c0,24.567,19.915,44.481,44.482,44.481
                c24.568,0,44.484-19.914,44.484-44.481C89.65,20.6,69.734,0.684,45.166,0.684z M21.657,48.939h-2.776v-8.696h2.506
                c1.327,0,2.801,0.332,2.801,2.297c0,0.884-0.528,1.596-1.56,1.805v0.025c1.142,0.086,1.94,0.921,1.94,2.137
                C24.568,48.51,22.836,48.939,21.657,48.939z M27.427,48.939h-0.811v-8.696h0.811V48.939z M36.981,48.375
                c-1.007,0.577-2.112,0.786-3.243,0.786c-2.653,0-4.495-1.917-4.495-4.569c0-2.653,1.842-4.569,4.495-4.569
                c1.29,0,2.334,0.393,3.133,1.204l-0.59,0.614c-0.528-0.639-1.597-1.081-2.543-1.081c-2.272,0-3.685,1.67-3.685,3.833
                s1.412,3.832,3.685,3.832c0.934,0,1.77-0.123,2.433-0.516v-2.924h-2.088v-0.736h2.898V48.375z M45.132,48.939h-2.69v-8.696h2.69
                c4.52,0,4.704,3.71,4.704,4.349S49.651,48.939,45.132,48.939z M57.902,48.939l-0.946-2.309H52.35l-0.982,2.309H50.52l3.796-8.696
                h0.835l3.66,8.696H57.902z M61.966,48.939h-0.811V40.98h-2.973v-0.737h6.756v0.737h-2.973V48.939z M71.692,48.939l-0.945-2.309
                h-4.606l-0.982,2.309h-0.848l3.795-8.696h0.836l3.66,8.696H71.692z"/>
            <path fill="#FFFFFF" d="M44.923,40.98h-1.671v7.223h1.671c2.31,0,4.103-1.118,4.103-3.611C49.025,42.098,47.232,40.98,44.923,40.98
                z"/>
            <path fill="#FFFFFF" d="M23.377,42.541c0-1.216-0.86-1.56-1.892-1.56h-1.794v3.021h1.684
                C23.058,44.002,23.377,43.081,23.377,42.541z"/>
            <polygon fill="#FFFFFF" points="52.669,45.894 56.661,45.894 54.696,41.128 	"/>
            <path fill="#FFFFFF" d="M21.67,44.739h-1.979v3.464h1.855c1.903,0,2.211-1.057,2.211-1.671
                C23.758,45.242,22.701,44.739,21.67,44.739z"/>
            <polygon fill="#FFFFFF" points="66.46,45.894 70.452,45.894 68.486,41.128 	"/>
        </g>
        <g class="letters" opacity="1">
            <path fill="#FFFFFF" d="M22.628,44.371v-0.025c1.031-0.209,1.56-0.921,1.56-1.805c0-1.965-1.474-2.297-2.801-2.297h-2.506v8.696
                h2.776c1.179,0,2.911-0.43,2.911-2.432C24.568,45.292,23.77,44.457,22.628,44.371z M19.691,40.98h1.794
                c1.031,0,1.892,0.344,1.892,1.56c0,0.54-0.319,1.461-2.002,1.461h-1.684V40.98z M21.547,48.203h-1.855v-3.464h1.979
                c1.031,0,2.088,0.503,2.088,1.793C23.758,47.146,23.45,48.203,21.547,48.203z"/>
            <rect x="26.616" y="40.243" fill="#FFFFFF" width="0.811" height="8.696"/>
            <path fill="#FFFFFF" d="M34.083,44.984h2.088v2.924c-0.663,0.393-1.499,0.516-2.433,0.516c-2.272,0-3.685-1.67-3.685-3.832
                s1.412-3.833,3.685-3.833c0.946,0,2.015,0.442,2.543,1.081l0.59-0.614c-0.799-0.811-1.843-1.204-3.133-1.204
                c-2.653,0-4.495,1.916-4.495,4.569c0,2.652,1.842,4.569,4.495,4.569c1.131,0,2.236-0.209,3.243-0.786v-4.127h-2.898V44.984z"/>
            <path fill="#FFFFFF" d="M45.132,40.243h-2.69v8.696h2.69c4.52,0,4.704-3.709,4.704-4.348S49.651,40.243,45.132,40.243z
                 M44.923,48.203h-1.671V40.98h1.671c2.31,0,4.103,1.118,4.103,3.611C49.025,47.085,47.232,48.203,44.923,48.203z"/>
            <path fill="#FFFFFF" d="M54.315,40.243l-3.796,8.696h0.848l0.982-2.309h4.606l0.946,2.309h0.908l-3.66-8.696H54.315z
                 M52.669,45.894l2.027-4.766l1.965,4.766H52.669z"/>
            <polygon fill="#FFFFFF" points="64.938,40.243 58.183,40.243 58.183,40.98 61.155,40.98 61.155,48.939 61.966,48.939 61.966,40.98
                64.938,40.98 	"/>
            <path fill="#FFFFFF" d="M68.105,40.243l-3.795,8.696h0.848l0.982-2.309h4.606l0.945,2.309h0.909l-3.66-8.696H68.105z M66.46,45.894
                l2.026-4.766l1.966,4.766H66.46z"/>
        </g>
    </g>
</svg>