<svg version="1.1" id="Layer_1" xmlns="http://www.w3.org/2000/svg" xmlns:xlink="http://www.w3.org/1999/xlink" x="0px" y="0px"
	 width="169.902px" height="90.08px" viewBox="0 0 169.902 90.08" enable-background="new 0 0 169.902 90.08" xml:space="preserve">
     <g>
         <g class="letters">
             <text transform="matrix(1 0 0 1 84.4033 48.7236)" fill="#241F20" font-family="'Avenir-Light'" font-size="12">ENGLISH</text>
         </g>
         <g>
             <polygon class="shape" fill="#ACADA3" points="4.331,90.078 12.646,78.703 21.027,67.376 37.892,44.802 54.904,22.336 63.461,11.144 72.085,0
              63.771,11.376 55.39,22.703 38.524,45.276 21.511,67.741 12.954,78.934 	"/>
             <circle class="shape" fill="#ACADA3" cx="38.21" cy="45.039" r="38.21"/>
         </g>
         <linearGradient id="SVGID_1_" gradientUnits="userSpaceOnUse" x1="11.709" y1="67.5591" x2="41.7983" y2="53.7022">
             <stop  offset="0" style="stop-color:#000000;stop-opacity:0"/>
             <stop  offset="1" style="stop-color:#000000;stop-opacity:0.22"/>
         </linearGradient>
         <path fill="url(#SVGID_1_)" d="M31.772,40.109c0,0-22.818,28.103-22.916,28.754c6.686,8.313,15.332,11.161,15.332,11.161
             l20.705-30.35c0,0-4.67,7.106-12.517,1.677C28.012,46.01,31.772,40.109,31.772,40.109z"/>
         <g>
             <g>
                 <path fill-rule="evenodd" clip-rule="evenodd" fill="#FFFFFF" d="M38.209,36.895c-4.497,0-8.145,3.647-8.145,8.146
                     c0,4.499,3.647,8.146,8.145,8.146c4.498,0,8.146-3.646,8.146-8.146C46.355,40.542,42.707,36.895,38.209,36.895z M35.542,37.937
                     c-0.4,0.725-0.875,1.851-1.186,3.444h-2.799C32.427,39.808,33.838,38.575,35.542,37.937z M31.274,41.943h2.986
                     c-0.131,0.824-0.22,1.757-0.232,2.815h-3.403C30.661,43.758,30.885,42.808,31.274,41.943z M30.62,45.321h3.41
                     c0.014,1.063,0.105,1.989,0.237,2.815h-2.972C30.907,47.271,30.656,46.326,30.62,45.321z M31.564,48.699h2.795
                     c0.315,1.609,0.796,2.734,1.199,3.45C33.847,51.514,32.436,50.275,31.564,48.699z M37.963,52.629
                     c-0.59-0.02-1.16-0.112-1.71-0.259c-0.425-0.694-0.976-1.889-1.324-3.671h3.034V52.629z M37.963,48.137h-3.133
                     c-0.133-0.825-0.224-1.752-0.236-2.815h3.369V48.137z M37.963,44.759H34.59c0.015-1.059,0.102-1.989,0.235-2.815h3.138V44.759z
                      M37.963,41.381h-3.046c0.345-1.77,0.895-2.958,1.316-3.666c0.556-0.148,1.132-0.244,1.729-0.264V41.381z M45.795,44.759h-3.334
                     c-0.014-1.059-0.1-1.991-0.232-2.815h2.904C45.521,42.81,45.756,43.758,45.795,44.759z M44.85,41.381h-2.717
                     c-0.309-1.576-0.775-2.696-1.174-3.421C42.625,38.607,43.994,39.833,44.85,41.381z M38.526,37.451
                     c0.599,0.025,1.18,0.121,1.736,0.276c0.422,0.71,0.967,1.894,1.311,3.653h-3.046V37.451z M38.526,41.943h3.138
                     c0.133,0.826,0.221,1.757,0.234,2.815h-3.373V41.943z M38.526,45.321h3.369c-0.012,1.063-0.104,1.99-0.236,2.815h-3.132V45.321z
                      M38.526,52.619v-3.92h3.035c-0.346,1.771-0.893,2.962-1.316,3.658C39.695,52.51,39.118,52.592,38.526,52.619z M40.943,52.127
                     c0.4-0.718,0.875-1.835,1.186-3.428h2.717C43.99,50.253,42.617,51.479,40.943,52.127z M45.115,48.137h-2.895
                     c0.133-0.826,0.225-1.752,0.238-2.815h3.33C45.752,46.325,45.504,47.27,45.115,48.137z"/>
             </g>
         </g>
     </g>
</svg>
