<svg version="1.1" id="Layer_1" xmlns="http://www.w3.org/2000/svg" xmlns:xlink="http://www.w3.org/1999/xlink" x="0px" y="0px"
	 width="155.404px" height="90.08px" viewBox="0 0 155.404 90.08" enable-background="new 0 0 155.404 90.08" xml:space="preserve">
     <g>
         <g class="letters">
             <text transform="matrix(1 0 0 1 84.4033 48.7236)" fill="#241F20" font-family="'Avenir-Light'" font-size="12">FRENCH</text>
         </g>
         <g>
             <polygon class="shape" fill="#ACADA3" points="4.331,90.078 12.646,78.703 21.027,67.376 37.892,44.802 54.904,22.336 63.461,11.144 72.085,0
              63.771,11.376 55.39,22.703 38.524,45.276 21.511,67.741 12.954,78.934 	"/>
             <circle class="shape" fill="#ACADA3" cx="38.21" cy="45.039" r="38.21"/>
         </g>
         <linearGradient id="SVGID_1_" gradientUnits="userSpaceOnUse" x1="13.4204" y1="71.4521" x2="38.8095" y2="50.8663">
             <stop  offset="0" style="stop-color:#000000;stop-opacity:0"/>
             <stop  offset="1" style="stop-color:#000000;stop-opacity:0.22"/>
         </linearGradient>
         <path fill="url(#SVGID_1_)" d="M37.16,34.888c0.005,1.477-29.508,31.958-29.604,32.606c6.393,9.287,16.242,12.857,16.242,12.857
             l19.179-22.403c-0.228-0.56-2.897-5.025-6.597-9.637c0-1.845,0.735-2.348,0.753-4.812C37.143,42.067,37.282,36.147,37.16,34.888z"/>
         <g>

                 <rect x="38.035" y="33.598" fill="#FFFFFF" stroke="#FFFFFF" stroke-width="0.7655" stroke-linecap="round" stroke-linejoin="round" stroke-miterlimit="10" width="0.015" height="0.854"/>

                 <path fill="#FFFFFF" stroke="#FFFFFF" stroke-width="0.7655" stroke-linecap="round" stroke-linejoin="round" stroke-miterlimit="10" d="
                 M35.201,56.253c0-1.238,1.343-2.242,3-2.242c1.658,0,3.003,1.004,3.003,2.242c0,0.077-0.007,0.154-0.017,0.229h1.789l-1.894-3.371
                 h-5.827l-1.812,3.371h1.774C35.208,56.408,35.201,56.331,35.201,56.253z"/>

                 <polygon fill="#FFFFFF" stroke="#FFFFFF" stroke-width="0.7655" stroke-linecap="round" stroke-linejoin="round" stroke-miterlimit="10" points="
                 39.536,47.794 36.795,47.794 36.434,47.975 39.791,47.975 	"/>

                 <polygon fill="#FFFFFF" stroke="#FFFFFF" stroke-width="0.7655" stroke-linecap="round" stroke-linejoin="round" stroke-miterlimit="10" points="
                 39.517,48.568 39.673,48.474 39.773,47.975 39.517,47.975 	"/>

                 <path fill="#FFFFFF" stroke="#FFFFFF" stroke-width="0.7655" stroke-linecap="round" stroke-linejoin="round" stroke-miterlimit="10" d="
                 M38.733,42.369c-0.072-0.839-0.251-5.378-0.251-5.378l-0.063-0.045h-0.386h-0.339l-0.09,0.053c0,0-0.054,2.58-0.134,5.211
                 c-0.08,2.63-0.645,5.585-0.645,5.585h0.807l0.507-4.521l0.405,4.521h0.927C39.253,47.777,38.804,43.21,38.733,42.369z"/>

                 <polygon fill="#FFFFFF" stroke="#FFFFFF" stroke-width="0.7655" stroke-linecap="round" stroke-linejoin="round" stroke-miterlimit="10" points="
                 37.525,35.678 38.048,35.221 38.545,35.678 38.048,36.028 	"/>

                 <rect x="37.498" y="35.678" fill="#FFFFFF" stroke="#FFFFFF" stroke-width="0.7655" stroke-linecap="round" stroke-linejoin="round" stroke-miterlimit="10" width="1.074" height="0.532"/>

                 <polygon fill="#FFFFFF" stroke="#FFFFFF" stroke-width="0.7655" stroke-linecap="round" stroke-linejoin="round" stroke-miterlimit="10" points="
                 38.387,36.028 37.779,36.028 37.682,36.028 37.682,36.367 38.387,36.367 	"/>

                 <rect x="37.936" y="34.433" fill="#FFFFFF" stroke="#FFFFFF" stroke-width="0.7655" stroke-linecap="round" stroke-linejoin="round" stroke-miterlimit="10" width="0.22" height="0.91"/>

                 <polygon fill="#FFFFFF" stroke="#FFFFFF" stroke-width="0.7655" stroke-linecap="round" stroke-linejoin="round" stroke-miterlimit="10" points="
                 37.354,36.235 37.686,36.028 37.686,36.382 37.354,36.494 	"/>

                 <polygon fill="#FFFFFF" stroke="#FFFFFF" stroke-width="0.7655" stroke-linecap="round" stroke-linejoin="round" stroke-miterlimit="10" points="
                 38.734,36.225 38.387,36.028 38.387,36.355 38.729,36.494 	"/>

                 <polygon fill="#FFFFFF" stroke="#FFFFFF" stroke-width="0.7655" stroke-linecap="round" stroke-linejoin="round" stroke-miterlimit="10" points="
                 37.604,37.01 37.354,36.494 37.717,36.292 37.717,36.955 	"/>

                 <polygon fill="#FFFFFF" stroke="#FFFFFF" stroke-width="0.7655" stroke-linecap="round" stroke-linejoin="round" stroke-miterlimit="10" points="
                 38.482,37.013 38.729,36.494 38.353,36.292 38.353,36.955 	"/>

                 <path fill="#FFFFFF" stroke="#FFFFFF" stroke-width="0.7655" stroke-linecap="round" stroke-linejoin="round" stroke-miterlimit="10" d="
                 M35.522,52.562c0,0,1.17-3.586,1.17-4.137h0.912c0,0-0.375,3.208-0.845,4.137H35.522z"/>

                 <path fill="#FFFFFF" stroke="#FFFFFF" stroke-width="0.7655" stroke-linecap="round" stroke-linejoin="round" stroke-miterlimit="10" d="
                 M40.713,52.562c0,0-1.167-3.586-1.167-4.137h-0.914c0,0,0.378,3.208,0.848,4.137H40.713z"/>

                 <polygon fill="#FFFFFF" stroke="#FFFFFF" stroke-width="0.7655" stroke-linecap="round" stroke-linejoin="round" stroke-miterlimit="10" points="
                 39.665,48.84 36.618,48.84 36.539,49.165 39.744,49.165 	"/>

                 <rect x="37.717" y="36.292" fill="#FFFFFF" stroke="#FFFFFF" stroke-width="0.7655" stroke-linecap="round" stroke-linejoin="round" stroke-miterlimit="10" width="0.636" height="0.662"/>

                 <rect x="36.531" y="48.425" fill="#FFFFFF" stroke="#FFFFFF" stroke-width="0.7655" stroke-linecap="round" stroke-linejoin="round" stroke-miterlimit="10" width="3.142" height="0.456"/>

                 <polygon fill="#FFFFFF" stroke="#FFFFFF" stroke-width="0.7655" stroke-linecap="round" stroke-linejoin="round" stroke-miterlimit="10" points="
                 36.705,48.568 36.538,48.458 36.464,47.975 36.718,47.975 	"/>

                 <polygon fill="#FFFFFF" stroke="#FFFFFF" stroke-width="0.7655" stroke-linecap="round" stroke-linejoin="round" stroke-miterlimit="10" points="
                 39.773,47.975 36.464,47.975 36.531,48.425 39.684,48.425 	"/>
         </g>
     </g>
</svg>
