<svg version="1.1" id="Layer_1" xmlns="http://www.w3.org/2000/svg" xmlns:xlink="http://www.w3.org/1999/xlink" x="0px" y="0px"
	 width="169.902px" height="90.08px" viewBox="0 0 169.902 90.08" enable-background="new 0 0 169.902 90.08" xml:space="preserve">
     <g>
         <g class="letters">
             <text transform="matrix(1 0 0 1 84.4033 48.7236)" fill="#241F20" font-family="'Avenir-Light'" font-size="12">HEALTH</text>
         </g>
         <g>
             <polygon class="shape" fill="#ACADA3" points="4.331,90.078 12.646,78.703 21.027,67.376 37.892,44.802 54.904,22.336 63.461,11.144 72.085,0
              63.771,11.376 55.39,22.703 38.524,45.276 21.511,67.741 12.954,78.934 	"/>
             <circle class="shape" fill="#ACADA3" cx="38.21" cy="45.039" r="38.21"/>
         </g>
         <linearGradient id="SVGID_1_" gradientUnits="userSpaceOnUse" x1="11.1499" y1="68.7251" x2="37.9039" y2="54.1744">
             <stop  offset="0" style="stop-color:#000000;stop-opacity:0"/>
             <stop  offset="1" style="stop-color:#000000;stop-opacity:0.22"/>
         </linearGradient>
         <path fill="url(#SVGID_1_)" d="M29.944,39.999c0.006,1.87-20.796,26.776-20.919,27.598c6.861,8.992,16.245,11.957,16.245,11.957
             s17.625-25.408,17.97-26.485C42.145,53.792,30.273,42.611,29.944,39.999z"/>
         <g>
             <g>
                 <path fill-rule="evenodd" clip-rule="evenodd" fill="#FFFFFF" d="M35.185,37.259c-0.716-0.716-1.878-0.716-2.594,0L30.43,39.42
                     c-0.716,0.716-0.716,1.877,0,2.593l3.025,3.026l4.755-4.755L35.185,37.259z M45.99,48.065l-3.025-3.025l-4.755,4.755l3.025,3.025
                     c0.716,0.717,1.878,0.717,2.594,0l2.161-2.161C46.707,49.943,46.707,48.782,45.99,48.065z M38.643,40.716l-4.755,4.756l3.89,3.891
                     l4.755-4.756L38.643,40.716z M36.07,45.345h-0.611v-0.611h0.611V45.345z M37.294,46.568h-0.612v-0.611h0.612V46.568z
                      M37.294,45.345h-0.612v-0.611h0.612V45.345z M37.294,44.123h-0.612v-0.611h0.612V44.123z M38.516,47.791h-0.611v-0.611h0.611
                     V47.791z M38.516,46.568h-0.611v-0.611h0.611V46.568z M38.516,45.345h-0.611v-0.611h0.611V45.345z M38.516,44.123h-0.611v-0.611
                     h0.611V44.123z M38.516,42.9h-0.611v-0.61h0.611V42.9z M39.738,46.568h-0.611v-0.611h0.611V46.568z M39.738,45.345h-0.611v-0.611
                     h0.611V45.345z M39.738,44.123h-0.611v-0.611h0.611V44.123z M40.35,45.345v-0.611h0.611v0.611H40.35z"/>
             </g>
         </g>
     </g>
</svg>
