<svg version="1.1" id="Layer_1" xmlns="http://www.w3.org/2000/svg" xmlns:xlink="http://www.w3.org/1999/xlink" x="0px" y="0px"
	 width="169.902px" height="90.08px" viewBox="0 0 169.902 90.08" enable-background="new 0 0 169.902 90.08" xml:space="preserve">
     <g>
         <g class="letters">
             <text transform="matrix(1 0 0 1 84.4033 48.7241)" fill="#241F20" font-family="'Avenir-Light'" font-size="12">MATHEMATICS</text>
         </g>
         <g>
             <polygon class="shape" fill="#ACADA3" points="4.331,90.078 12.646,78.703 21.027,67.376 37.892,44.802 54.904,22.336 63.461,11.144 72.085,0
              63.771,11.376 55.39,22.703 38.524,45.276 21.511,67.741 12.954,78.934 	"/>
             <circle class="shape" fill="#ACADA3" cx="38.21" cy="45.039" r="38.21"/>
         </g>
         <linearGradient id="SVGID_1_" gradientUnits="userSpaceOnUse" x1="10.9102" y1="68.6431" x2="39.8911" y2="52.8812">
             <stop  offset="0" style="stop-color:#000000;stop-opacity:0"/>
             <stop  offset="1" style="stop-color:#000000;stop-opacity:0.22"/>
         </linearGradient>
         <path fill="url(#SVGID_1_)" d="M29.753,36.601C29.759,38.47,8.807,66.739,8.684,67.559c8.738,11.05,19.806,13.316,19.806,13.316
             l18.159-27.396c0,0-11.886-0.759-16.183-1.095C29.337,49.507,31.047,40.356,29.753,36.601z"/>
         <path fill-rule="evenodd" clip-rule="evenodd" fill="#FFFFFF" d="M29.771,53.479V36.601h16.879v10.802v0.675v5.401H29.771z
              M45.3,37.951H31.121v4.051h1.361c0.101-0.756,0.504-1.322,0.988-1.322c0.482,0,0.887,0.566,0.986,1.322h0.723
             c0.098-0.764,0.504-1.336,0.991-1.336c0.486,0,0.893,0.572,0.989,1.336h4.771c0.098-0.764,0.504-1.336,0.99-1.336
             s0.894,0.572,0.99,1.336H45.3V37.951z M45.3,42.677h-1.384c-0.092,0.777-0.502,1.364-0.994,1.364c-0.493,0-0.902-0.587-0.993-1.364
             h-4.765c-0.092,0.777-0.501,1.364-0.993,1.364c-0.493,0-0.903-0.587-0.994-1.364h-0.713c-0.087,0.783-0.498,1.378-0.993,1.378
             c-0.497,0-0.907-0.595-0.994-1.378h-1.355v4.726h5.396c0.097-0.763,0.504-1.336,0.99-1.336c0.487,0,0.893,0.573,0.99,1.336h0.674
             c0.087-0.784,0.499-1.378,0.994-1.378c0.496,0,0.906,0.594,0.994,1.378h0.756c0.095-0.771,0.503-1.35,0.993-1.35
             s0.898,0.579,0.992,1.35H45.3V42.677z M45.3,48.078H43.9c-0.094,0.771-0.502,1.352-0.992,1.352s-0.898-0.581-0.993-1.352h-0.763
             c-0.101,0.756-0.504,1.322-0.987,1.322s-0.888-0.566-0.987-1.322H38.5c-0.091,0.778-0.5,1.365-0.993,1.365s-0.902-0.587-0.993-1.365
             h-5.393v4.052H45.3V48.078z"/>
     </g>
</svg>