<svg version="1.1" id="Layer_1" xmlns="http://www.w3.org/2000/svg" xmlns:xlink="http://www.w3.org/1999/xlink" x="0px" y="0px"
	 width="169.902px" height="90.08px" viewBox="0 0 169.902 90.08" enable-background="new 0 0 169.902 90.08" xml:space="preserve">
     <g>
         <g class="letters">
             <text transform="matrix(1 0 0 1 84.4033 48.7236)" fill="#241F20" font-family="'Avenir-Light'" font-size="12">SCIENCE</text>
         </g>
         <g>
             <polygon class="shape" fill="#ACADA3" points="4.331,90.078 12.646,78.703 21.027,67.376 37.892,44.802 54.904,22.336 63.461,11.144 72.085,0
              63.771,11.376 55.39,22.703 38.524,45.276 21.511,67.741 12.954,78.934 	"/>
             <circle class="shape" fill="#ACADA3" cx="38.21" cy="45.039" r="38.21"/>
         </g>
         <linearGradient id="SVGID_1_" gradientUnits="userSpaceOnUse" x1="11.3984" y1="71.2817" x2="41.5327" y2="54.47">
             <stop  offset="0" style="stop-color:#000000;stop-opacity:0"/>
             <stop  offset="1" style="stop-color:#000000;stop-opacity:0.22"/>
         </linearGradient>
         <path fill="url(#SVGID_1_)" d="M34.534,39.933c0.005,1.482-24.419,29.368-24.516,30.021c6.59,8.403,16.925,11.1,16.925,11.1
             l16.926-26.03c0,0-10.012,0.235-11.713,0.235c-0.482-1.507-0.092-2.354,0.657-3.56c1.222-1.965,2.736-4.409,2.994-6.024
             c0.26-1.627,0.234-3.048-0.283-4.41C35.342,40.786,34.534,40.477,34.534,39.933z"/>
         <g>
             <g>
                 <path fill-rule="evenodd" clip-rule="evenodd" fill="#FFFFFF" d="M40.117,47.635c0,0-0.953,1.217-2.168,0
                     c-1.182-1.144-2.039,0-2.039,0l-2.842,5.604c-0.083,0.305,0.098,0.618,0.404,0.7h9.442c0.305-0.082,0.484-0.396,0.402-0.7
                     L40.117,47.635z M44.471,52.952l-4.565-7.685l-0.001-0.015l-0.008-4.504h0.314c0.475,0,0.859-0.384,0.859-0.857
                     c0-0.473-0.385-0.857-0.859-0.857h-4.575c-0.474,0-0.857,0.385-0.857,0.857c0,0.474,0.384,0.857,0.857,0.857h0.276l-0.009,4.505
                     l-3.955,7.698c-0.245,0.915,0.298,1.855,1.213,2.102h10.096C44.174,54.807,44.717,53.867,44.471,52.952z M43.105,54.478
                     l-9.792-0.01c-0.609-0.163-0.972-0.791-0.808-1.4l3.976-7.792l0.012-5.099h-0.857c-0.157,0-0.285-0.128-0.285-0.286
                     s0.128-0.285,0.285-0.285h4.575c0.158,0,0.287,0.127,0.287,0.285s-0.129,0.286-0.287,0.286h-0.856l0.015,5.079l4.542,7.821
                     C44.078,53.689,43.715,54.316,43.105,54.478z M38.486,38.175c0,0.316,0.256,0.572,0.572,0.572c0.315,0,0.572-0.256,0.572-0.572
                     s-0.257-0.572-0.572-0.572C38.742,37.603,38.486,37.859,38.486,38.175z M39.058,36.744c0.474,0,0.857-0.384,0.857-0.858
                     c0-0.474-0.384-0.858-0.857-0.858c-0.475,0-0.858,0.385-0.858,0.858C38.2,36.36,38.583,36.744,39.058,36.744z M36.767,38.175
                     c0.317,0,0.573-0.256,0.573-0.572c0-0.315-0.256-0.572-0.573-0.572c-0.315,0-0.571,0.257-0.571,0.572
                     C36.196,37.919,36.452,38.175,36.767,38.175z"/>
             </g>
         </g>
     </g>
</svg>