<svg version="1.1" id="Layer_1" xmlns="http://www.w3.org/2000/svg" xmlns:xlink="http://www.w3.org/1999/xlink" x="0px" y="0px"
	 width="169.902px" height="90.08px" viewBox="0 0 169.902 90.08" enable-background="new 0 0 169.902 90.08" xml:space="preserve">
     <g>
         <g class="letters">
             <text transform="matrix(1 0 0 1 84.4033 41.5244)"><tspan x="0" y="0" fill="#241F20" font-family="'Avenir-Light'" font-size="12">SOCIAL </tspan><tspan x="0" y="14.4" fill="#241F20" font-family="'Avenir-Light'" font-size="12">STUDIES</tspan></text>
         </g>
         <g>
             <polygon class="shape" fill="#ACADA3" points="4.331,90.078 12.646,78.703 21.027,67.376 37.892,44.802 54.904,22.336 63.461,11.144 72.085,0
              63.771,11.376 55.39,22.703 38.524,45.276 21.511,67.741 12.954,78.934 	"/>
             <circle class="shape" fill="#ACADA3" cx="38.21" cy="45.039" r="38.21"/>
         </g>
         <linearGradient id="SVGID_1_" gradientUnits="userSpaceOnUse" x1="11.3369" y1="67.5649" x2="41.9171" y2="53.4819">
             <stop  offset="0" style="stop-color:#000000;stop-opacity:0"/>
             <stop  offset="1" style="stop-color:#000000;stop-opacity:0.22"/>
         </linearGradient>
         <path fill="url(#SVGID_1_)" d="M32.721,38.573c0,0-25.211,27.44-25.309,28.092c6.149,9.675,17.765,13.671,17.765,13.671
             l19.918-30.874c0,0-4.617,8.103-12.464,2.672C24.645,44.821,32.721,38.573,32.721,38.573z"/>
         <path fill-rule="evenodd" clip-rule="evenodd" fill="#FFFFFF" d="M42.686,41.593h3.234c0.432,0.964,0.691,2.02,0.736,3.135h-3.711
             C42.93,43.549,42.832,42.511,42.686,41.593z M41.272,37.16c1.854,0.721,3.378,2.085,4.331,3.808H42.58
             C42.236,39.213,41.715,37.966,41.272,37.16z M38.565,40.967v-4.375c0.666,0.03,1.313,0.136,1.933,0.309
             c0.47,0.79,1.075,2.108,1.457,4.066H38.565z M34.45,48.488c-0.146-0.919-0.247-1.95-0.262-3.134h3.75v3.134H34.45z M34.444,41.593
             h3.494v3.135h-3.754C34.2,43.548,34.298,42.512,34.444,41.593z M36.014,36.886c0.617-0.166,1.26-0.271,1.925-0.292v4.373h-3.39
             C34.933,38.999,35.542,37.674,36.014,36.886z M30.807,40.967c0.97-1.751,2.54-3.122,4.437-3.834
             c-0.445,0.807-0.975,2.061-1.32,3.834H30.807z M33.559,44.728h-3.79c0.042-1.114,0.292-2.172,0.724-3.135h3.325
             C33.671,42.512,33.572,43.549,33.559,44.728z M33.825,48.488h-3.308c-0.435-0.965-0.713-2.016-0.754-3.134h3.797
             C33.575,46.538,33.678,47.568,33.825,48.488z M33.927,49.114c0.35,1.791,0.886,3.044,1.335,3.841
             c-1.903-0.708-3.475-2.086-4.446-3.841H33.927z M37.938,49.114v4.374c-0.658-0.021-1.293-0.125-1.903-0.288
             c-0.474-0.773-1.086-2.104-1.474-4.086H37.938z M41.941,49.114c-0.384,1.972-0.993,3.296-1.464,4.072
             c-0.611,0.17-1.254,0.261-1.912,0.29v-4.362H41.941z M38.565,45.354h3.749c-0.014,1.184-0.117,2.215-0.264,3.134h-3.485V45.354z
              M42.318,44.728h-3.753v-3.135h3.491C42.205,42.512,42.303,43.548,42.318,44.728z M42.943,45.354h3.705
             c-0.041,1.117-0.316,2.169-0.748,3.134h-3.223C42.824,47.568,42.928,46.538,42.943,45.354z M45.6,49.114
             c-0.951,1.729-2.48,3.095-4.345,3.813c0.446-0.797,0.976-2.041,1.321-3.813H45.6z"/>
     </g>
</svg>