<svg version="1.1" id="Layer_1" xmlns="http://www.w3.org/2000/svg" xmlns:xlink="http://www.w3.org/1999/xlink" x="0px" y="0px"
	 width="169.902px" height="90.08px" viewBox="0 0 169.902 90.08" enable-background="new 0 0 169.902 90.08" xml:space="preserve">
     <g>
         <g class="letters">
             <text transform="matrix(1 0 0 1 84.4033 48.7236)" fill="#241F20" font-family="'Avenir-Light'" font-size="12">SPANISH</text>
         </g>
         <g>
             <polygon class="shape" fill="#ACADA3" points="4.331,90.078 12.646,78.703 21.027,67.376 37.892,44.802 54.904,22.336 63.461,11.144 72.085,0
              63.771,11.376 55.39,22.703 38.524,45.276 21.511,67.741 12.954,78.934 	"/>
             <circle class="shape" fill="#ACADA3" cx="38.21" cy="45.039" r="38.21"/>
         </g>
         <linearGradient id="SVGID_1_" gradientUnits="userSpaceOnUse" x1="11.4893" y1="70.2207" x2="43.1324" y2="52.5672">
             <stop  offset="0" style="stop-color:#000000;stop-opacity:0"/>
             <stop  offset="1" style="stop-color:#000000;stop-opacity:0.22"/>
         </linearGradient>
         <path fill="url(#SVGID_1_)" d="M33.564,42.02c0.005,1.482-23.061,26.811-23.157,27.463c5.751,6.884,13.308,9.804,13.308,9.804
             l19.143-27.36c0,0-0.586-6.887-2.287-6.887C40.378,43.251,33.564,42.563,33.564,42.02z"/>
         <g>
             <path fill="#FFFFFF" d="M36.148,41.976v1.379h0.059c0.344-0.576,0.792-0.993,1.341-1.256c0.551-0.262,1.111-0.394,1.687-0.394
                 c0.729,0,1.327,0.101,1.792,0.299c0.467,0.198,0.834,0.473,1.102,0.824c0.268,0.35,0.457,0.778,0.566,1.283
                 c0.108,0.504,0.162,1.062,0.162,1.677v6.094h-2.721v-5.596c0-0.816-0.13-1.429-0.383-1.831c-0.256-0.402-0.711-0.604-1.361-0.604
                 c-0.742,0-1.276,0.222-1.609,0.662c-0.332,0.441-0.498,1.166-0.498,2.175v5.193h-2.721v-9.906H36.148z M41.506,38.908
                 c-0.083,0.256-0.204,0.491-0.365,0.711c-0.159,0.216-0.363,0.398-0.612,0.544c-0.25,0.147-0.564,0.221-0.948,0.221
                 c-0.296,0-0.57-0.036-0.824-0.104c-0.255-0.07-0.505-0.146-0.747-0.223c-0.244-0.088-0.475-0.165-0.689-0.228
                 c-0.218-0.065-0.436-0.098-0.653-0.098c-0.255,0-0.437,0.075-0.544,0.221c-0.11,0.148-0.195,0.342-0.26,0.585h-1.168
                 c0.062-0.282,0.146-0.56,0.247-0.833c0.104-0.274,0.243-0.525,0.424-0.747c0.177-0.224,0.406-0.405,0.688-0.547
                 c0.281-0.143,0.632-0.212,1.054-0.212c0.218,0,0.424,0.036,0.622,0.107c0.197,0.068,0.398,0.143,0.604,0.219
                 c0.204,0.09,0.411,0.17,0.623,0.24s0.425,0.104,0.641,0.104c0.296,0,0.506-0.067,0.634-0.201c0.129-0.135,0.185-0.291,0.171-0.47
                 h1.324C41.661,38.416,41.588,38.652,41.506,38.908z"/>
         </g>
     </g>
</svg>
