<svg version="1.1" id="Layer_1" xmlns="http://www.w3.org/2000/svg" xmlns:xlink="http://www.w3.org/1999/xlink" x="0px" y="0px"
	 width="169.902px" height="90.08px" viewBox="0 0 169.902 90.08" enable-background="new 0 0 169.902 90.08" xml:space="preserve">
     <g>
         <g class="letters">
             <text transform="matrix(1 0 0 1 84.4033 27.124)"><tspan x="0" y="0" fill="#241F20" font-family="'Avenir-Light'" font-size="12">TRADE </tspan><tspan x="0" y="14.4" fill="#241F20" font-family="'Avenir-Light'" font-size="12">BOOKS </tspan><tspan x="0" y="28.8" fill="#241F20" font-family="'Avenir-Light'" font-size="12">FOR </tspan><tspan x="0" y="43.2" fill="#241F20" font-family="'Avenir-Light'" font-size="12">CHILDREN</tspan></text>
         </g>
         <g>
             <polygon class="shape" fill="#ACADA3" points="4.331,90.078 12.646,78.703 21.027,67.376 37.892,44.802 54.904,22.336 63.461,11.144 72.085,0
              63.771,11.376 55.39,22.703 38.524,45.276 21.511,67.741 12.954,78.934 	"/>
             <circle class="shape" fill="#ACADA3" cx="38.21" cy="45.039" r="38.21"/>
         </g>
         <linearGradient id="SVGID_1_" gradientUnits="userSpaceOnUse" x1="12.5996" y1="67.644" x2="42.7913" y2="53.74">
             <stop  offset="0" style="stop-color:#000000;stop-opacity:0"/>
             <stop  offset="1" style="stop-color:#000000;stop-opacity:0.22"/>
         </linearGradient>
         <path fill="url(#SVGID_1_)" d="M29.639,38.976c0,0-19.646,29.67-19.743,30.321c7.271,9.148,18.659,11.818,18.659,11.818
             l18.224-29.499c-0.191-0.215-3.588-3.718-8.25-0.014c-0.256,0.204-0.371,0.172-0.637-0.01c-1.596-1.098-3.619-2.647-8.253,0
             C29.639,45.642,29.639,38.976,29.639,38.976z"/>
         <g>
             <g>
                 <path fill-rule="evenodd" clip-rule="evenodd" fill="#FFFFFF" d="M29.64,38.751v12.617c0,0,1.707-1.229,4.126-1.229
                     c2.422,0,4.127,1.229,4.127,1.229V38.91c0,0-1.705-1.428-4.127-1.428C31.347,37.482,29.64,38.751,29.64,38.751z M30.91,40.022
                     h2.539v3.174H30.91V40.022z M36.624,48.273H30.91v-0.634h5.714V48.273z M36.624,47.004H30.91V46.37h5.714V47.004z M36.624,45.735
                     H30.91V45.1h5.714V45.735z M36.624,44.464H30.91V43.83h5.714V44.464z M34.084,40.022h2.54v0.635h-2.54V40.022z M34.084,41.29h2.54
                     v0.636h-2.54V41.29z M34.084,42.56h2.54v0.636h-2.54V42.56z M39.162,51.448c0,0,3.928-1.309,6.982,1.15c0-0.039,0-1.15,0-1.15
                     C42.574,49.463,39.162,51.448,39.162,51.448z M42.653,37.482c-2.419,0-4.126,1.27-4.126,1.27v12.617c0,0,1.707-1.229,4.126-1.229
                     c2.421,0,4.127,1.229,4.127,1.229V38.91C46.78,38.91,45.074,37.482,42.653,37.482z M45.512,48.273h-5.715v-0.634h5.715V48.273z
                      M45.512,47.004h-5.715V46.37h5.715V47.004z M45.512,45.735h-5.715V45.1h5.715V45.735z M45.512,44.464h-5.715V43.83h5.715V44.464z
                      M45.512,43.196h-5.715V42.56h5.715V43.196z M45.512,41.925h-5.715V41.29h5.715V41.925z M45.512,40.657h-5.715v-0.635h5.715
                     V40.657z M30.274,51.448c0,0,0,1.111,0,1.15c3.055-2.459,6.983-1.15,6.983-1.15S33.846,49.463,30.274,51.448z"/>
             </g>
         </g>
     </g>
</svg>